ISO-10303-21;
HEADER;
/* Generated by software containing ST-Developer
 * from STEP Tools, Inc. (www.steptools.com) 
 */

FILE_DESCRIPTION(
/* description */ (''),
/* implementation_level */ '2;1');

FILE_NAME(
/* name */ 'CAP.step',
/* time_stamp */ '2026-09-17T05:59:34+02:00',
/* author */ (''),
/* organization */ (''),
/* preprocessor_version */ 'ST-DEVELOPER v20.2',
/* originating_system */ 'Autodesk Translation Framework v15.15.0.0',
/* authorisation */ '');

FILE_SCHEMA (('AUTOMOTIVE_DESIGN { 1 0 10303 214 3 1 1 }'));
ENDSEC;

DATA;
#10=MECHANICAL_DESIGN_GEOMETRIC_PRESENTATION_REPRESENTATION('',(#13),#1221);
#11=SHAPE_REPRESENTATION_RELATIONSHIP('SRR','None',#1228,#12);
#12=ADVANCED_BREP_SHAPE_REPRESENTATION('',(#14),#1220);
#13=STYLED_ITEM('',(#1237),#14);
#14=MANIFOLD_SOLID_BREP('CAP',#709);
#15=CYLINDRICAL_SURFACE('',#736,1.4);
#16=CYLINDRICAL_SURFACE('',#740,1.4);
#17=CYLINDRICAL_SURFACE('',#744,1.4);
#18=CYLINDRICAL_SURFACE('',#748,1.4);
#19=CYLINDRICAL_SURFACE('',#750,2.625);
#20=CYLINDRICAL_SURFACE('',#752,4.5);
#21=CYLINDRICAL_SURFACE('',#759,1.5);
#22=CYLINDRICAL_SURFACE('',#762,1.5);
#23=CYLINDRICAL_SURFACE('',#765,1.5);
#24=CYLINDRICAL_SURFACE('',#768,1.5);
#25=CYLINDRICAL_SURFACE('',#780,4.99999999997117);
#26=CYLINDRICAL_SURFACE('',#782,4.99999999999999);
#27=CYLINDRICAL_SURFACE('',#784,4.99999959352641);
#28=CYLINDRICAL_SURFACE('',#786,5.);
#29=CYLINDRICAL_SURFACE('',#789,2.74999999999999);
#30=CYLINDRICAL_SURFACE('',#792,2.74999959351643);
#31=CYLINDRICAL_SURFACE('',#795,2.74999999999999);
#32=CYLINDRICAL_SURFACE('',#798,2.74999999997116);
#33=FACE_BOUND('',#103,.T.);
#34=FACE_BOUND('',#104,.T.);
#35=FACE_BOUND('',#105,.T.);
#36=FACE_BOUND('',#106,.T.);
#37=FACE_BOUND('',#107,.T.);
#38=FACE_BOUND('',#108,.T.);
#39=FACE_BOUND('',#119,.T.);
#40=FACE_BOUND('',#129,.T.);
#41=FACE_BOUND('',#147,.T.);
#42=FACE_BOUND('',#148,.T.);
#43=FACE_BOUND('',#149,.T.);
#44=FACE_BOUND('',#150,.T.);
#45=FACE_BOUND('',#151,.T.);
#46=FACE_BOUND('',#152,.T.);
#47=PLANE('',#726);
#48=PLANE('',#754);
#49=PLANE('',#761);
#50=PLANE('',#764);
#51=PLANE('',#767);
#52=PLANE('',#770);
#53=PLANE('',#771);
#54=PLANE('',#781);
#55=PLANE('',#783);
#56=PLANE('',#785);
#57=PLANE('',#787);
#58=PLANE('',#788);
#59=PLANE('',#791);
#60=PLANE('',#794);
#61=PLANE('',#797);
#62=PLANE('',#800);
#63=FACE_OUTER_BOUND('',#101,.T.);
#64=FACE_OUTER_BOUND('',#102,.T.);
#65=FACE_OUTER_BOUND('',#109,.T.);
#66=FACE_OUTER_BOUND('',#110,.T.);
#67=FACE_OUTER_BOUND('',#111,.T.);
#68=FACE_OUTER_BOUND('',#112,.T.);
#69=FACE_OUTER_BOUND('',#113,.T.);
#70=FACE_OUTER_BOUND('',#114,.T.);
#71=FACE_OUTER_BOUND('',#115,.T.);
#72=FACE_OUTER_BOUND('',#116,.T.);
#73=FACE_OUTER_BOUND('',#117,.T.);
#74=FACE_OUTER_BOUND('',#118,.T.);
#75=FACE_OUTER_BOUND('',#120,.T.);
#76=FACE_OUTER_BOUND('',#121,.T.);
#77=FACE_OUTER_BOUND('',#122,.T.);
#78=FACE_OUTER_BOUND('',#123,.T.);
#79=FACE_OUTER_BOUND('',#124,.T.);
#80=FACE_OUTER_BOUND('',#125,.T.);
#81=FACE_OUTER_BOUND('',#126,.T.);
#82=FACE_OUTER_BOUND('',#127,.T.);
#83=FACE_OUTER_BOUND('',#128,.T.);
#84=FACE_OUTER_BOUND('',#130,.T.);
#85=FACE_OUTER_BOUND('',#131,.T.);
#86=FACE_OUTER_BOUND('',#132,.T.);
#87=FACE_OUTER_BOUND('',#133,.T.);
#88=FACE_OUTER_BOUND('',#134,.T.);
#89=FACE_OUTER_BOUND('',#135,.T.);
#90=FACE_OUTER_BOUND('',#136,.T.);
#91=FACE_OUTER_BOUND('',#137,.T.);
#92=FACE_OUTER_BOUND('',#138,.T.);
#93=FACE_OUTER_BOUND('',#139,.T.);
#94=FACE_OUTER_BOUND('',#140,.T.);
#95=FACE_OUTER_BOUND('',#141,.T.);
#96=FACE_OUTER_BOUND('',#142,.T.);
#97=FACE_OUTER_BOUND('',#143,.T.);
#98=FACE_OUTER_BOUND('',#144,.T.);
#99=FACE_OUTER_BOUND('',#145,.T.);
#100=FACE_OUTER_BOUND('',#146,.T.);
#101=EDGE_LOOP('',(#471,#472,#473,#474));
#102=EDGE_LOOP('',(#475,#476,#477,#478,#479,#480,#481,#482));
#103=EDGE_LOOP('',(#483));
#104=EDGE_LOOP('',(#484));
#105=EDGE_LOOP('',(#485));
#106=EDGE_LOOP('',(#486));
#107=EDGE_LOOP('',(#487));
#108=EDGE_LOOP('',(#488));
#109=EDGE_LOOP('',(#489,#490,#491,#492));
#110=EDGE_LOOP('',(#493,#494,#495,#496));
#111=EDGE_LOOP('',(#497,#498,#499,#500));
#112=EDGE_LOOP('',(#501,#502,#503,#504));
#113=EDGE_LOOP('',(#505,#506,#507,#508));
#114=EDGE_LOOP('',(#509,#510,#511,#512));
#115=EDGE_LOOP('',(#513,#514,#515,#516));
#116=EDGE_LOOP('',(#517,#518,#519,#520));
#117=EDGE_LOOP('',(#521,#522,#523,#524));
#118=EDGE_LOOP('',(#525,#526,#527,#528,#529,#530,#531,#532));
#119=EDGE_LOOP('',(#533));
#120=EDGE_LOOP('',(#534,#535,#536,#537));
#121=EDGE_LOOP('',(#538,#539,#540,#541));
#122=EDGE_LOOP('',(#542,#543,#544,#545));
#123=EDGE_LOOP('',(#546,#547,#548,#549));
#124=EDGE_LOOP('',(#550,#551,#552,#553));
#125=EDGE_LOOP('',(#554,#555,#556,#557));
#126=EDGE_LOOP('',(#558,#559,#560,#561));
#127=EDGE_LOOP('',(#562,#563,#564,#565));
#128=EDGE_LOOP('',(#566,#567,#568,#569,#570,#571,#572,#573));
#129=EDGE_LOOP('',(#574,#575,#576,#577,#578,#579,#580,#581));
#130=EDGE_LOOP('',(#582,#583,#584,#585));
#131=EDGE_LOOP('',(#586,#587,#588,#589));
#132=EDGE_LOOP('',(#590,#591,#592,#593));
#133=EDGE_LOOP('',(#594,#595,#596,#597));
#134=EDGE_LOOP('',(#598,#599,#600,#601));
#135=EDGE_LOOP('',(#602,#603,#604,#605));
#136=EDGE_LOOP('',(#606,#607,#608,#609));
#137=EDGE_LOOP('',(#610,#611,#612,#613));
#138=EDGE_LOOP('',(#614,#615,#616,#617));
#139=EDGE_LOOP('',(#618,#619,#620,#621));
#140=EDGE_LOOP('',(#622,#623,#624,#625));
#141=EDGE_LOOP('',(#626,#627,#628,#629));
#142=EDGE_LOOP('',(#630,#631,#632,#633));
#143=EDGE_LOOP('',(#634,#635,#636,#637));
#144=EDGE_LOOP('',(#638,#639,#640,#641));
#145=EDGE_LOOP('',(#642,#643,#644,#645));
#146=EDGE_LOOP('',(#646,#647,#648,#649,#650,#651,#652,#653));
#147=EDGE_LOOP('',(#654));
#148=EDGE_LOOP('',(#655));
#149=EDGE_LOOP('',(#656));
#150=EDGE_LOOP('',(#657));
#151=EDGE_LOOP('',(#658));
#152=EDGE_LOOP('',(#659,#660,#661,#662,#663,#664,#665,#666));
#153=LINE('',#1022,#211);
#154=LINE('',#1027,#212);
#155=LINE('',#1031,#213);
#156=LINE('',#1035,#214);
#157=LINE('',#1039,#215);
#158=LINE('',#1054,#216);
#159=LINE('',#1057,#217);
#160=LINE('',#1062,#218);
#161=LINE('',#1065,#219);
#162=LINE('',#1070,#220);
#163=LINE('',#1073,#221);
#164=LINE('',#1078,#222);
#165=LINE('',#1082,#223);
#166=LINE('',#1085,#224);
#167=LINE('',#1090,#225);
#168=LINE('',#1094,#226);
#169=LINE('',#1098,#227);
#170=LINE('',#1102,#228);
#171=LINE('',#1108,#229);
#172=LINE('',#1109,#230);
#173=LINE('',#1112,#231);
#174=LINE('',#1113,#232);
#175=LINE('',#1117,#233);
#176=LINE('',#1120,#234);
#177=LINE('',#1121,#235);
#178=LINE('',#1125,#236);
#179=LINE('',#1128,#237);
#180=LINE('',#1129,#238);
#181=LINE('',#1133,#239);
#182=LINE('',#1135,#240);
#183=LINE('',#1139,#241);
#184=LINE('',#1143,#242);
#185=LINE('',#1147,#243);
#186=LINE('',#1151,#244);
#187=LINE('',#1155,#245);
#188=LINE('',#1159,#246);
#189=LINE('',#1163,#247);
#190=LINE('',#1167,#248);
#191=LINE('',#1170,#249);
#192=LINE('',#1171,#250);
#193=LINE('',#1173,#251);
#194=LINE('',#1175,#252);
#195=LINE('',#1177,#253);
#196=LINE('',#1179,#254);
#197=LINE('',#1181,#255);
#198=LINE('',#1183,#256);
#199=LINE('',#1187,#257);
#200=LINE('',#1189,#258);
#201=LINE('',#1190,#259);
#202=LINE('',#1194,#260);
#203=LINE('',#1197,#261);
#204=LINE('',#1198,#262);
#205=LINE('',#1202,#263);
#206=LINE('',#1205,#264);
#207=LINE('',#1206,#265);
#208=LINE('',#1210,#266);
#209=LINE('',#1213,#267);
#210=LINE('',#1214,#268);
#211=VECTOR('',#807,1.775);
#212=VECTOR('',#812,10.);
#213=VECTOR('',#815,10.);
#214=VECTOR('',#818,10.);
#215=VECTOR('',#821,10.);
#216=VECTOR('',#838,1.4);
#217=VECTOR('',#841,1.775);
#218=VECTOR('',#848,1.4);
#219=VECTOR('',#851,1.775);
#220=VECTOR('',#858,1.4);
#221=VECTOR('',#861,1.775);
#222=VECTOR('',#868,1.4);
#223=VECTOR('',#873,2.625);
#224=VECTOR('',#876,4.5);
#225=VECTOR('',#881,10.);
#226=VECTOR('',#884,10.);
#227=VECTOR('',#887,10.);
#228=VECTOR('',#890,10.);
#229=VECTOR('',#897,10.);
#230=VECTOR('',#898,10.);
#231=VECTOR('',#901,10.);
#232=VECTOR('',#902,10.);
#233=VECTOR('',#907,10.);
#234=VECTOR('',#910,10.);
#235=VECTOR('',#911,10.);
#236=VECTOR('',#916,10.);
#237=VECTOR('',#919,10.);
#238=VECTOR('',#920,10.);
#239=VECTOR('',#925,10.);
#240=VECTOR('',#928,10.);
#241=VECTOR('',#931,10.);
#242=VECTOR('',#934,10.);
#243=VECTOR('',#937,10.);
#244=VECTOR('',#940,10.);
#245=VECTOR('',#943,10.);
#246=VECTOR('',#946,10.);
#247=VECTOR('',#949,10.);
#248=VECTOR('',#952,10.);
#249=VECTOR('',#957,10.);
#250=VECTOR('',#958,10.);
#251=VECTOR('',#961,10.);
#252=VECTOR('',#964,10.);
#253=VECTOR('',#967,10.);
#254=VECTOR('',#970,10.);
#255=VECTOR('',#973,10.);
#256=VECTOR('',#976,10.);
#257=VECTOR('',#981,10.);
#258=VECTOR('',#982,10.);
#259=VECTOR('',#983,10.);
#260=VECTOR('',#988,10.);
#261=VECTOR('',#991,10.);
#262=VECTOR('',#992,10.);
#263=VECTOR('',#997,10.);
#264=VECTOR('',#1000,10.);
#265=VECTOR('',#1001,10.);
#266=VECTOR('',#1006,10.);
#267=VECTOR('',#1009,10.);
#268=VECTOR('',#1010,10.);
#269=CIRCLE('',#724,2.15);
#270=CIRCLE('',#725,1.4);
#271=CIRCLE('',#727,5.);
#272=CIRCLE('',#728,4.99999959352641);
#273=CIRCLE('',#729,4.99999999999999);
#274=CIRCLE('',#730,4.99999999997117);
#275=CIRCLE('',#731,2.15);
#276=CIRCLE('',#732,2.15);
#277=CIRCLE('',#733,2.625);
#278=CIRCLE('',#734,4.5);
#279=CIRCLE('',#735,2.15);
#280=CIRCLE('',#737,1.4);
#281=CIRCLE('',#739,1.4);
#282=CIRCLE('',#741,1.4);
#283=CIRCLE('',#743,1.4);
#284=CIRCLE('',#745,1.4);
#285=CIRCLE('',#747,1.4);
#286=CIRCLE('',#749,1.4);
#287=CIRCLE('',#751,2.625);
#288=CIRCLE('',#753,4.5);
#289=CIRCLE('',#755,1.5);
#290=CIRCLE('',#756,1.5);
#291=CIRCLE('',#757,1.5);
#292=CIRCLE('',#758,1.5);
#293=CIRCLE('',#760,1.5);
#294=CIRCLE('',#763,1.5);
#295=CIRCLE('',#766,1.5);
#296=CIRCLE('',#769,1.5);
#297=CIRCLE('',#772,4.99999999997117);
#298=CIRCLE('',#773,4.99999999999999);
#299=CIRCLE('',#774,4.99999959352641);
#300=CIRCLE('',#775,5.);
#301=CIRCLE('',#776,2.74999999999999);
#302=CIRCLE('',#777,2.74999959351643);
#303=CIRCLE('',#778,2.74999999999999);
#304=CIRCLE('',#779,2.74999999997116);
#305=CIRCLE('',#790,2.74999999999999);
#306=CIRCLE('',#793,2.74999959351643);
#307=CIRCLE('',#796,2.74999999999999);
#308=CIRCLE('',#799,2.74999999997116);
#309=VERTEX_POINT('',#1019);
#310=VERTEX_POINT('',#1021);
#311=VERTEX_POINT('',#1025);
#312=VERTEX_POINT('',#1026);
#313=VERTEX_POINT('',#1028);
#314=VERTEX_POINT('',#1030);
#315=VERTEX_POINT('',#1032);
#316=VERTEX_POINT('',#1034);
#317=VERTEX_POINT('',#1036);
#318=VERTEX_POINT('',#1038);
#319=VERTEX_POINT('',#1041);
#320=VERTEX_POINT('',#1043);
#321=VERTEX_POINT('',#1045);
#322=VERTEX_POINT('',#1047);
#323=VERTEX_POINT('',#1049);
#324=VERTEX_POINT('',#1052);
#325=VERTEX_POINT('',#1056);
#326=VERTEX_POINT('',#1060);
#327=VERTEX_POINT('',#1064);
#328=VERTEX_POINT('',#1068);
#329=VERTEX_POINT('',#1072);
#330=VERTEX_POINT('',#1076);
#331=VERTEX_POINT('',#1080);
#332=VERTEX_POINT('',#1084);
#333=VERTEX_POINT('',#1088);
#334=VERTEX_POINT('',#1089);
#335=VERTEX_POINT('',#1091);
#336=VERTEX_POINT('',#1093);
#337=VERTEX_POINT('',#1095);
#338=VERTEX_POINT('',#1097);
#339=VERTEX_POINT('',#1099);
#340=VERTEX_POINT('',#1101);
#341=VERTEX_POINT('',#1105);
#342=VERTEX_POINT('',#1106);
#343=VERTEX_POINT('',#1111);
#344=VERTEX_POINT('',#1115);
#345=VERTEX_POINT('',#1119);
#346=VERTEX_POINT('',#1123);
#347=VERTEX_POINT('',#1127);
#348=VERTEX_POINT('',#1131);
#349=VERTEX_POINT('',#1137);
#350=VERTEX_POINT('',#1138);
#351=VERTEX_POINT('',#1140);
#352=VERTEX_POINT('',#1142);
#353=VERTEX_POINT('',#1144);
#354=VERTEX_POINT('',#1146);
#355=VERTEX_POINT('',#1148);
#356=VERTEX_POINT('',#1150);
#357=VERTEX_POINT('',#1153);
#358=VERTEX_POINT('',#1154);
#359=VERTEX_POINT('',#1156);
#360=VERTEX_POINT('',#1158);
#361=VERTEX_POINT('',#1160);
#362=VERTEX_POINT('',#1162);
#363=VERTEX_POINT('',#1164);
#364=VERTEX_POINT('',#1166);
#365=VERTEX_POINT('',#1186);
#366=VERTEX_POINT('',#1188);
#367=VERTEX_POINT('',#1192);
#368=VERTEX_POINT('',#1196);
#369=VERTEX_POINT('',#1200);
#370=VERTEX_POINT('',#1204);
#371=VERTEX_POINT('',#1208);
#372=VERTEX_POINT('',#1212);
#373=EDGE_CURVE('',#309,#309,#269,.T.);
#374=EDGE_CURVE('',#309,#310,#153,.T.);
#375=EDGE_CURVE('',#310,#310,#270,.T.);
#376=EDGE_CURVE('',#311,#312,#154,.T.);
#377=EDGE_CURVE('',#312,#313,#271,.T.);
#378=EDGE_CURVE('',#313,#314,#155,.T.);
#379=EDGE_CURVE('',#314,#315,#272,.T.);
#380=EDGE_CURVE('',#315,#316,#156,.T.);
#381=EDGE_CURVE('',#316,#317,#273,.T.);
#382=EDGE_CURVE('',#317,#318,#157,.T.);
#383=EDGE_CURVE('',#318,#311,#274,.T.);
#384=EDGE_CURVE('',#319,#319,#275,.T.);
#385=EDGE_CURVE('',#320,#320,#276,.T.);
#386=EDGE_CURVE('',#321,#321,#277,.T.);
#387=EDGE_CURVE('',#322,#322,#278,.T.);
#388=EDGE_CURVE('',#323,#323,#279,.T.);
#389=EDGE_CURVE('',#324,#324,#280,.T.);
#390=EDGE_CURVE('',#324,#310,#158,.T.);
#391=EDGE_CURVE('',#319,#325,#159,.T.);
#392=EDGE_CURVE('',#325,#325,#281,.T.);
#393=EDGE_CURVE('',#326,#326,#282,.T.);
#394=EDGE_CURVE('',#326,#325,#160,.T.);
#395=EDGE_CURVE('',#323,#327,#161,.T.);
#396=EDGE_CURVE('',#327,#327,#283,.T.);
#397=EDGE_CURVE('',#328,#328,#284,.T.);
#398=EDGE_CURVE('',#328,#327,#162,.T.);
#399=EDGE_CURVE('',#320,#329,#163,.T.);
#400=EDGE_CURVE('',#329,#329,#285,.T.);
#401=EDGE_CURVE('',#330,#330,#286,.T.);
#402=EDGE_CURVE('',#330,#329,#164,.T.);
#403=EDGE_CURVE('',#331,#331,#287,.T.);
#404=EDGE_CURVE('',#331,#321,#165,.T.);
#405=EDGE_CURVE('',#322,#332,#166,.T.);
#406=EDGE_CURVE('',#332,#332,#288,.T.);
#407=EDGE_CURVE('',#333,#334,#167,.T.);
#408=EDGE_CURVE('',#335,#333,#289,.T.);
#409=EDGE_CURVE('',#336,#335,#168,.T.);
#410=EDGE_CURVE('',#337,#336,#290,.T.);
#411=EDGE_CURVE('',#338,#337,#169,.T.);
#412=EDGE_CURVE('',#339,#338,#291,.T.);
#413=EDGE_CURVE('',#340,#339,#170,.T.);
#414=EDGE_CURVE('',#334,#340,#292,.T.);
#415=EDGE_CURVE('',#341,#342,#293,.T.);
#416=EDGE_CURVE('',#337,#341,#171,.T.);
#417=EDGE_CURVE('',#336,#342,#172,.T.);
#418=EDGE_CURVE('',#342,#343,#173,.T.);
#419=EDGE_CURVE('',#335,#343,#174,.T.);
#420=EDGE_CURVE('',#343,#344,#294,.T.);
#421=EDGE_CURVE('',#333,#344,#175,.T.);
#422=EDGE_CURVE('',#344,#345,#176,.T.);
#423=EDGE_CURVE('',#334,#345,#177,.T.);
#424=EDGE_CURVE('',#345,#346,#295,.T.);
#425=EDGE_CURVE('',#340,#346,#178,.T.);
#426=EDGE_CURVE('',#346,#347,#179,.T.);
#427=EDGE_CURVE('',#339,#347,#180,.T.);
#428=EDGE_CURVE('',#347,#348,#296,.T.);
#429=EDGE_CURVE('',#338,#348,#181,.T.);
#430=EDGE_CURVE('',#348,#341,#182,.T.);
#431=EDGE_CURVE('',#349,#350,#183,.T.);
#432=EDGE_CURVE('',#351,#349,#297,.T.);
#433=EDGE_CURVE('',#352,#351,#184,.T.);
#434=EDGE_CURVE('',#353,#352,#298,.T.);
#435=EDGE_CURVE('',#354,#353,#185,.T.);
#436=EDGE_CURVE('',#355,#354,#299,.T.);
#437=EDGE_CURVE('',#356,#355,#186,.T.);
#438=EDGE_CURVE('',#350,#356,#300,.T.);
#439=EDGE_CURVE('',#357,#358,#187,.T.);
#440=EDGE_CURVE('',#357,#359,#301,.T.);
#441=EDGE_CURVE('',#360,#359,#188,.T.);
#442=EDGE_CURVE('',#360,#361,#302,.T.);
#443=EDGE_CURVE('',#362,#361,#189,.T.);
#444=EDGE_CURVE('',#362,#363,#303,.T.);
#445=EDGE_CURVE('',#364,#363,#190,.T.);
#446=EDGE_CURVE('',#364,#358,#304,.T.);
#447=EDGE_CURVE('',#349,#311,#191,.T.);
#448=EDGE_CURVE('',#351,#318,#192,.T.);
#449=EDGE_CURVE('',#352,#317,#193,.T.);
#450=EDGE_CURVE('',#353,#316,#194,.T.);
#451=EDGE_CURVE('',#354,#315,#195,.T.);
#452=EDGE_CURVE('',#355,#314,#196,.T.);
#453=EDGE_CURVE('',#356,#313,#197,.T.);
#454=EDGE_CURVE('',#350,#312,#198,.T.);
#455=EDGE_CURVE('',#358,#365,#199,.T.);
#456=EDGE_CURVE('',#366,#365,#200,.T.);
#457=EDGE_CURVE('',#357,#366,#201,.T.);
#458=EDGE_CURVE('',#367,#366,#305,.T.);
#459=EDGE_CURVE('',#359,#367,#202,.T.);
#460=EDGE_CURVE('',#368,#367,#203,.T.);
#461=EDGE_CURVE('',#360,#368,#204,.T.);
#462=EDGE_CURVE('',#369,#368,#306,.T.);
#463=EDGE_CURVE('',#361,#369,#205,.T.);
#464=EDGE_CURVE('',#370,#369,#206,.T.);
#465=EDGE_CURVE('',#362,#370,#207,.T.);
#466=EDGE_CURVE('',#371,#370,#307,.T.);
#467=EDGE_CURVE('',#363,#371,#208,.T.);
#468=EDGE_CURVE('',#372,#371,#209,.T.);
#469=EDGE_CURVE('',#364,#372,#210,.T.);
#470=EDGE_CURVE('',#365,#372,#308,.T.);
#471=ORIENTED_EDGE('',*,*,#373,.T.);
#472=ORIENTED_EDGE('',*,*,#374,.T.);
#473=ORIENTED_EDGE('',*,*,#375,.T.);
#474=ORIENTED_EDGE('',*,*,#374,.F.);
#475=ORIENTED_EDGE('',*,*,#376,.T.);
#476=ORIENTED_EDGE('',*,*,#377,.T.);
#477=ORIENTED_EDGE('',*,*,#378,.T.);
#478=ORIENTED_EDGE('',*,*,#379,.T.);
#479=ORIENTED_EDGE('',*,*,#380,.T.);
#480=ORIENTED_EDGE('',*,*,#381,.T.);
#481=ORIENTED_EDGE('',*,*,#382,.T.);
#482=ORIENTED_EDGE('',*,*,#383,.T.);
#483=ORIENTED_EDGE('',*,*,#384,.F.);
#484=ORIENTED_EDGE('',*,*,#385,.F.);
#485=ORIENTED_EDGE('',*,*,#386,.T.);
#486=ORIENTED_EDGE('',*,*,#387,.T.);
#487=ORIENTED_EDGE('',*,*,#388,.F.);
#488=ORIENTED_EDGE('',*,*,#373,.F.);
#489=ORIENTED_EDGE('',*,*,#389,.F.);
#490=ORIENTED_EDGE('',*,*,#390,.T.);
#491=ORIENTED_EDGE('',*,*,#375,.F.);
#492=ORIENTED_EDGE('',*,*,#390,.F.);
#493=ORIENTED_EDGE('',*,*,#384,.T.);
#494=ORIENTED_EDGE('',*,*,#391,.T.);
#495=ORIENTED_EDGE('',*,*,#392,.T.);
#496=ORIENTED_EDGE('',*,*,#391,.F.);
#497=ORIENTED_EDGE('',*,*,#393,.F.);
#498=ORIENTED_EDGE('',*,*,#394,.T.);
#499=ORIENTED_EDGE('',*,*,#392,.F.);
#500=ORIENTED_EDGE('',*,*,#394,.F.);
#501=ORIENTED_EDGE('',*,*,#388,.T.);
#502=ORIENTED_EDGE('',*,*,#395,.T.);
#503=ORIENTED_EDGE('',*,*,#396,.T.);
#504=ORIENTED_EDGE('',*,*,#395,.F.);
#505=ORIENTED_EDGE('',*,*,#397,.F.);
#506=ORIENTED_EDGE('',*,*,#398,.T.);
#507=ORIENTED_EDGE('',*,*,#396,.F.);
#508=ORIENTED_EDGE('',*,*,#398,.F.);
#509=ORIENTED_EDGE('',*,*,#385,.T.);
#510=ORIENTED_EDGE('',*,*,#399,.T.);
#511=ORIENTED_EDGE('',*,*,#400,.T.);
#512=ORIENTED_EDGE('',*,*,#399,.F.);
#513=ORIENTED_EDGE('',*,*,#401,.F.);
#514=ORIENTED_EDGE('',*,*,#402,.T.);
#515=ORIENTED_EDGE('',*,*,#400,.F.);
#516=ORIENTED_EDGE('',*,*,#402,.F.);
#517=ORIENTED_EDGE('',*,*,#403,.F.);
#518=ORIENTED_EDGE('',*,*,#404,.T.);
#519=ORIENTED_EDGE('',*,*,#386,.F.);
#520=ORIENTED_EDGE('',*,*,#404,.F.);
#521=ORIENTED_EDGE('',*,*,#387,.F.);
#522=ORIENTED_EDGE('',*,*,#405,.T.);
#523=ORIENTED_EDGE('',*,*,#406,.F.);
#524=ORIENTED_EDGE('',*,*,#405,.F.);
#525=ORIENTED_EDGE('',*,*,#407,.F.);
#526=ORIENTED_EDGE('',*,*,#408,.F.);
#527=ORIENTED_EDGE('',*,*,#409,.F.);
#528=ORIENTED_EDGE('',*,*,#410,.F.);
#529=ORIENTED_EDGE('',*,*,#411,.F.);
#530=ORIENTED_EDGE('',*,*,#412,.F.);
#531=ORIENTED_EDGE('',*,*,#413,.F.);
#532=ORIENTED_EDGE('',*,*,#414,.F.);
#533=ORIENTED_EDGE('',*,*,#406,.T.);
#534=ORIENTED_EDGE('',*,*,#415,.F.);
#535=ORIENTED_EDGE('',*,*,#416,.F.);
#536=ORIENTED_EDGE('',*,*,#410,.T.);
#537=ORIENTED_EDGE('',*,*,#417,.T.);
#538=ORIENTED_EDGE('',*,*,#418,.F.);
#539=ORIENTED_EDGE('',*,*,#417,.F.);
#540=ORIENTED_EDGE('',*,*,#409,.T.);
#541=ORIENTED_EDGE('',*,*,#419,.T.);
#542=ORIENTED_EDGE('',*,*,#420,.F.);
#543=ORIENTED_EDGE('',*,*,#419,.F.);
#544=ORIENTED_EDGE('',*,*,#408,.T.);
#545=ORIENTED_EDGE('',*,*,#421,.T.);
#546=ORIENTED_EDGE('',*,*,#422,.F.);
#547=ORIENTED_EDGE('',*,*,#421,.F.);
#548=ORIENTED_EDGE('',*,*,#407,.T.);
#549=ORIENTED_EDGE('',*,*,#423,.T.);
#550=ORIENTED_EDGE('',*,*,#424,.F.);
#551=ORIENTED_EDGE('',*,*,#423,.F.);
#552=ORIENTED_EDGE('',*,*,#414,.T.);
#553=ORIENTED_EDGE('',*,*,#425,.T.);
#554=ORIENTED_EDGE('',*,*,#426,.F.);
#555=ORIENTED_EDGE('',*,*,#425,.F.);
#556=ORIENTED_EDGE('',*,*,#413,.T.);
#557=ORIENTED_EDGE('',*,*,#427,.T.);
#558=ORIENTED_EDGE('',*,*,#428,.F.);
#559=ORIENTED_EDGE('',*,*,#427,.F.);
#560=ORIENTED_EDGE('',*,*,#412,.T.);
#561=ORIENTED_EDGE('',*,*,#429,.T.);
#562=ORIENTED_EDGE('',*,*,#430,.F.);
#563=ORIENTED_EDGE('',*,*,#429,.F.);
#564=ORIENTED_EDGE('',*,*,#411,.T.);
#565=ORIENTED_EDGE('',*,*,#416,.T.);
#566=ORIENTED_EDGE('',*,*,#431,.F.);
#567=ORIENTED_EDGE('',*,*,#432,.F.);
#568=ORIENTED_EDGE('',*,*,#433,.F.);
#569=ORIENTED_EDGE('',*,*,#434,.F.);
#570=ORIENTED_EDGE('',*,*,#435,.F.);
#571=ORIENTED_EDGE('',*,*,#436,.F.);
#572=ORIENTED_EDGE('',*,*,#437,.F.);
#573=ORIENTED_EDGE('',*,*,#438,.F.);
#574=ORIENTED_EDGE('',*,*,#439,.F.);
#575=ORIENTED_EDGE('',*,*,#440,.T.);
#576=ORIENTED_EDGE('',*,*,#441,.F.);
#577=ORIENTED_EDGE('',*,*,#442,.T.);
#578=ORIENTED_EDGE('',*,*,#443,.F.);
#579=ORIENTED_EDGE('',*,*,#444,.T.);
#580=ORIENTED_EDGE('',*,*,#445,.F.);
#581=ORIENTED_EDGE('',*,*,#446,.T.);
#582=ORIENTED_EDGE('',*,*,#432,.T.);
#583=ORIENTED_EDGE('',*,*,#447,.T.);
#584=ORIENTED_EDGE('',*,*,#383,.F.);
#585=ORIENTED_EDGE('',*,*,#448,.F.);
#586=ORIENTED_EDGE('',*,*,#433,.T.);
#587=ORIENTED_EDGE('',*,*,#448,.T.);
#588=ORIENTED_EDGE('',*,*,#382,.F.);
#589=ORIENTED_EDGE('',*,*,#449,.F.);
#590=ORIENTED_EDGE('',*,*,#434,.T.);
#591=ORIENTED_EDGE('',*,*,#449,.T.);
#592=ORIENTED_EDGE('',*,*,#381,.F.);
#593=ORIENTED_EDGE('',*,*,#450,.F.);
#594=ORIENTED_EDGE('',*,*,#435,.T.);
#595=ORIENTED_EDGE('',*,*,#450,.T.);
#596=ORIENTED_EDGE('',*,*,#380,.F.);
#597=ORIENTED_EDGE('',*,*,#451,.F.);
#598=ORIENTED_EDGE('',*,*,#436,.T.);
#599=ORIENTED_EDGE('',*,*,#451,.T.);
#600=ORIENTED_EDGE('',*,*,#379,.F.);
#601=ORIENTED_EDGE('',*,*,#452,.F.);
#602=ORIENTED_EDGE('',*,*,#437,.T.);
#603=ORIENTED_EDGE('',*,*,#452,.T.);
#604=ORIENTED_EDGE('',*,*,#378,.F.);
#605=ORIENTED_EDGE('',*,*,#453,.F.);
#606=ORIENTED_EDGE('',*,*,#438,.T.);
#607=ORIENTED_EDGE('',*,*,#453,.T.);
#608=ORIENTED_EDGE('',*,*,#377,.F.);
#609=ORIENTED_EDGE('',*,*,#454,.F.);
#610=ORIENTED_EDGE('',*,*,#431,.T.);
#611=ORIENTED_EDGE('',*,*,#454,.T.);
#612=ORIENTED_EDGE('',*,*,#376,.F.);
#613=ORIENTED_EDGE('',*,*,#447,.F.);
#614=ORIENTED_EDGE('',*,*,#439,.T.);
#615=ORIENTED_EDGE('',*,*,#455,.T.);
#616=ORIENTED_EDGE('',*,*,#456,.F.);
#617=ORIENTED_EDGE('',*,*,#457,.F.);
#618=ORIENTED_EDGE('',*,*,#440,.F.);
#619=ORIENTED_EDGE('',*,*,#457,.T.);
#620=ORIENTED_EDGE('',*,*,#458,.F.);
#621=ORIENTED_EDGE('',*,*,#459,.F.);
#622=ORIENTED_EDGE('',*,*,#441,.T.);
#623=ORIENTED_EDGE('',*,*,#459,.T.);
#624=ORIENTED_EDGE('',*,*,#460,.F.);
#625=ORIENTED_EDGE('',*,*,#461,.F.);
#626=ORIENTED_EDGE('',*,*,#442,.F.);
#627=ORIENTED_EDGE('',*,*,#461,.T.);
#628=ORIENTED_EDGE('',*,*,#462,.F.);
#629=ORIENTED_EDGE('',*,*,#463,.F.);
#630=ORIENTED_EDGE('',*,*,#443,.T.);
#631=ORIENTED_EDGE('',*,*,#463,.T.);
#632=ORIENTED_EDGE('',*,*,#464,.F.);
#633=ORIENTED_EDGE('',*,*,#465,.F.);
#634=ORIENTED_EDGE('',*,*,#444,.F.);
#635=ORIENTED_EDGE('',*,*,#465,.T.);
#636=ORIENTED_EDGE('',*,*,#466,.F.);
#637=ORIENTED_EDGE('',*,*,#467,.F.);
#638=ORIENTED_EDGE('',*,*,#445,.T.);
#639=ORIENTED_EDGE('',*,*,#467,.T.);
#640=ORIENTED_EDGE('',*,*,#468,.F.);
#641=ORIENTED_EDGE('',*,*,#469,.F.);
#642=ORIENTED_EDGE('',*,*,#446,.F.);
#643=ORIENTED_EDGE('',*,*,#469,.T.);
#644=ORIENTED_EDGE('',*,*,#470,.F.);
#645=ORIENTED_EDGE('',*,*,#455,.F.);
#646=ORIENTED_EDGE('',*,*,#470,.T.);
#647=ORIENTED_EDGE('',*,*,#468,.T.);
#648=ORIENTED_EDGE('',*,*,#466,.T.);
#649=ORIENTED_EDGE('',*,*,#464,.T.);
#650=ORIENTED_EDGE('',*,*,#462,.T.);
#651=ORIENTED_EDGE('',*,*,#460,.T.);
#652=ORIENTED_EDGE('',*,*,#458,.T.);
#653=ORIENTED_EDGE('',*,*,#456,.T.);
#654=ORIENTED_EDGE('',*,*,#389,.T.);
#655=ORIENTED_EDGE('',*,*,#397,.T.);
#656=ORIENTED_EDGE('',*,*,#393,.T.);
#657=ORIENTED_EDGE('',*,*,#401,.T.);
#658=ORIENTED_EDGE('',*,*,#403,.T.);
#659=ORIENTED_EDGE('',*,*,#424,.T.);
#660=ORIENTED_EDGE('',*,*,#426,.T.);
#661=ORIENTED_EDGE('',*,*,#428,.T.);
#662=ORIENTED_EDGE('',*,*,#430,.T.);
#663=ORIENTED_EDGE('',*,*,#415,.T.);
#664=ORIENTED_EDGE('',*,*,#418,.T.);
#665=ORIENTED_EDGE('',*,*,#420,.T.);
#666=ORIENTED_EDGE('',*,*,#422,.T.);
#667=CONICAL_SURFACE('',#723,1.775,0.785398163397447);
#668=CONICAL_SURFACE('',#738,1.775,0.785398163397447);
#669=CONICAL_SURFACE('',#742,1.775,0.785398163397448);
#670=CONICAL_SURFACE('',#746,1.775,0.785398163397448);
#671=ADVANCED_FACE('',(#63),#667,.F.);
#672=ADVANCED_FACE('',(#64,#33,#34,#35,#36,#37,#38),#47,.T.);
#673=ADVANCED_FACE('',(#65),#15,.F.);
#674=ADVANCED_FACE('',(#66),#668,.F.);
#675=ADVANCED_FACE('',(#67),#16,.F.);
#676=ADVANCED_FACE('',(#68),#669,.F.);
#677=ADVANCED_FACE('',(#69),#17,.F.);
#678=ADVANCED_FACE('',(#70),#670,.F.);
#679=ADVANCED_FACE('',(#71),#18,.F.);
#680=ADVANCED_FACE('',(#72),#19,.F.);
#681=ADVANCED_FACE('',(#73),#20,.F.);
#682=ADVANCED_FACE('',(#74,#39),#48,.F.);
#683=ADVANCED_FACE('',(#75),#21,.F.);
#684=ADVANCED_FACE('',(#76),#49,.F.);
#685=ADVANCED_FACE('',(#77),#22,.F.);
#686=ADVANCED_FACE('',(#78),#50,.F.);
#687=ADVANCED_FACE('',(#79),#23,.F.);
#688=ADVANCED_FACE('',(#80),#51,.F.);
#689=ADVANCED_FACE('',(#81),#24,.F.);
#690=ADVANCED_FACE('',(#82),#52,.F.);
#691=ADVANCED_FACE('',(#83,#40),#53,.F.);
#692=ADVANCED_FACE('',(#84),#25,.T.);
#693=ADVANCED_FACE('',(#85),#54,.T.);
#694=ADVANCED_FACE('',(#86),#26,.T.);
#695=ADVANCED_FACE('',(#87),#55,.T.);
#696=ADVANCED_FACE('',(#88),#27,.T.);
#697=ADVANCED_FACE('',(#89),#56,.T.);
#698=ADVANCED_FACE('',(#90),#28,.T.);
#699=ADVANCED_FACE('',(#91),#57,.T.);
#700=ADVANCED_FACE('',(#92),#58,.T.);
#701=ADVANCED_FACE('',(#93),#29,.T.);
#702=ADVANCED_FACE('',(#94),#59,.T.);
#703=ADVANCED_FACE('',(#95),#30,.T.);
#704=ADVANCED_FACE('',(#96),#60,.T.);
#705=ADVANCED_FACE('',(#97),#31,.T.);
#706=ADVANCED_FACE('',(#98),#61,.T.);
#707=ADVANCED_FACE('',(#99),#32,.T.);
#708=ADVANCED_FACE('',(#100,#41,#42,#43,#44,#45,#46),#62,.F.);
#709=CLOSED_SHELL('',(#671,#672,#673,#674,#675,#676,#677,#678,#679,#680,
#681,#682,#683,#684,#685,#686,#687,#688,#689,#690,#691,#692,#693,#694,#695,
#696,#697,#698,#699,#700,#701,#702,#703,#704,#705,#706,#707,#708));
#710=DERIVED_UNIT_ELEMENT(#712,1.);
#711=DERIVED_UNIT_ELEMENT(#1223,-3.);
#712=(
MASS_UNIT()
NAMED_UNIT(*)
SI_UNIT(.KILO.,.GRAM.)
);
#713=DERIVED_UNIT((#710,#711));
#714=MEASURE_REPRESENTATION_ITEM('density measure',
POSITIVE_RATIO_MEASURE(1060.),#713);
#715=PROPERTY_DEFINITION_REPRESENTATION(#720,#717);
#716=PROPERTY_DEFINITION_REPRESENTATION(#721,#718);
#717=REPRESENTATION('material name',(#719),#1220);
#718=REPRESENTATION('density',(#714),#1220);
#719=DESCRIPTIVE_REPRESENTATION_ITEM('ABS Plastic','ABS Plastic');
#720=PROPERTY_DEFINITION('material property','material name',#1230);
#721=PROPERTY_DEFINITION('material property','density of part',#1230);
#722=AXIS2_PLACEMENT_3D('',#1017,#801,#802);
#723=AXIS2_PLACEMENT_3D('',#1018,#803,#804);
#724=AXIS2_PLACEMENT_3D('',#1020,#805,#806);
#725=AXIS2_PLACEMENT_3D('',#1023,#808,#809);
#726=AXIS2_PLACEMENT_3D('',#1024,#810,#811);
#727=AXIS2_PLACEMENT_3D('',#1029,#813,#814);
#728=AXIS2_PLACEMENT_3D('',#1033,#816,#817);
#729=AXIS2_PLACEMENT_3D('',#1037,#819,#820);
#730=AXIS2_PLACEMENT_3D('',#1040,#822,#823);
#731=AXIS2_PLACEMENT_3D('',#1042,#824,#825);
#732=AXIS2_PLACEMENT_3D('',#1044,#826,#827);
#733=AXIS2_PLACEMENT_3D('',#1046,#828,#829);
#734=AXIS2_PLACEMENT_3D('',#1048,#830,#831);
#735=AXIS2_PLACEMENT_3D('',#1050,#832,#833);
#736=AXIS2_PLACEMENT_3D('',#1051,#834,#835);
#737=AXIS2_PLACEMENT_3D('',#1053,#836,#837);
#738=AXIS2_PLACEMENT_3D('',#1055,#839,#840);
#739=AXIS2_PLACEMENT_3D('',#1058,#842,#843);
#740=AXIS2_PLACEMENT_3D('',#1059,#844,#845);
#741=AXIS2_PLACEMENT_3D('',#1061,#846,#847);
#742=AXIS2_PLACEMENT_3D('',#1063,#849,#850);
#743=AXIS2_PLACEMENT_3D('',#1066,#852,#853);
#744=AXIS2_PLACEMENT_3D('',#1067,#854,#855);
#745=AXIS2_PLACEMENT_3D('',#1069,#856,#857);
#746=AXIS2_PLACEMENT_3D('',#1071,#859,#860);
#747=AXIS2_PLACEMENT_3D('',#1074,#862,#863);
#748=AXIS2_PLACEMENT_3D('',#1075,#864,#865);
#749=AXIS2_PLACEMENT_3D('',#1077,#866,#867);
#750=AXIS2_PLACEMENT_3D('',#1079,#869,#870);
#751=AXIS2_PLACEMENT_3D('',#1081,#871,#872);
#752=AXIS2_PLACEMENT_3D('',#1083,#874,#875);
#753=AXIS2_PLACEMENT_3D('',#1086,#877,#878);
#754=AXIS2_PLACEMENT_3D('',#1087,#879,#880);
#755=AXIS2_PLACEMENT_3D('',#1092,#882,#883);
#756=AXIS2_PLACEMENT_3D('',#1096,#885,#886);
#757=AXIS2_PLACEMENT_3D('',#1100,#888,#889);
#758=AXIS2_PLACEMENT_3D('',#1103,#891,#892);
#759=AXIS2_PLACEMENT_3D('',#1104,#893,#894);
#760=AXIS2_PLACEMENT_3D('',#1107,#895,#896);
#761=AXIS2_PLACEMENT_3D('',#1110,#899,#900);
#762=AXIS2_PLACEMENT_3D('',#1114,#903,#904);
#763=AXIS2_PLACEMENT_3D('',#1116,#905,#906);
#764=AXIS2_PLACEMENT_3D('',#1118,#908,#909);
#765=AXIS2_PLACEMENT_3D('',#1122,#912,#913);
#766=AXIS2_PLACEMENT_3D('',#1124,#914,#915);
#767=AXIS2_PLACEMENT_3D('',#1126,#917,#918);
#768=AXIS2_PLACEMENT_3D('',#1130,#921,#922);
#769=AXIS2_PLACEMENT_3D('',#1132,#923,#924);
#770=AXIS2_PLACEMENT_3D('',#1134,#926,#927);
#771=AXIS2_PLACEMENT_3D('',#1136,#929,#930);
#772=AXIS2_PLACEMENT_3D('',#1141,#932,#933);
#773=AXIS2_PLACEMENT_3D('',#1145,#935,#936);
#774=AXIS2_PLACEMENT_3D('',#1149,#938,#939);
#775=AXIS2_PLACEMENT_3D('',#1152,#941,#942);
#776=AXIS2_PLACEMENT_3D('',#1157,#944,#945);
#777=AXIS2_PLACEMENT_3D('',#1161,#947,#948);
#778=AXIS2_PLACEMENT_3D('',#1165,#950,#951);
#779=AXIS2_PLACEMENT_3D('',#1168,#953,#954);
#780=AXIS2_PLACEMENT_3D('',#1169,#955,#956);
#781=AXIS2_PLACEMENT_3D('',#1172,#959,#960);
#782=AXIS2_PLACEMENT_3D('',#1174,#962,#963);
#783=AXIS2_PLACEMENT_3D('',#1176,#965,#966);
#784=AXIS2_PLACEMENT_3D('',#1178,#968,#969);
#785=AXIS2_PLACEMENT_3D('',#1180,#971,#972);
#786=AXIS2_PLACEMENT_3D('',#1182,#974,#975);
#787=AXIS2_PLACEMENT_3D('',#1184,#977,#978);
#788=AXIS2_PLACEMENT_3D('',#1185,#979,#980);
#789=AXIS2_PLACEMENT_3D('',#1191,#984,#985);
#790=AXIS2_PLACEMENT_3D('',#1193,#986,#987);
#791=AXIS2_PLACEMENT_3D('',#1195,#989,#990);
#792=AXIS2_PLACEMENT_3D('',#1199,#993,#994);
#793=AXIS2_PLACEMENT_3D('',#1201,#995,#996);
#794=AXIS2_PLACEMENT_3D('',#1203,#998,#999);
#795=AXIS2_PLACEMENT_3D('',#1207,#1002,#1003);
#796=AXIS2_PLACEMENT_3D('',#1209,#1004,#1005);
#797=AXIS2_PLACEMENT_3D('',#1211,#1007,#1008);
#798=AXIS2_PLACEMENT_3D('',#1215,#1011,#1012);
#799=AXIS2_PLACEMENT_3D('',#1216,#1013,#1014);
#800=AXIS2_PLACEMENT_3D('',#1217,#1015,#1016);
#801=DIRECTION('axis',(0.,0.,1.));
#802=DIRECTION('refdir',(1.,0.,0.));
#803=DIRECTION('center_axis',(0.,1.,0.));
#804=DIRECTION('ref_axis',(1.,0.,0.));
#805=DIRECTION('center_axis',(0.,1.,0.));
#806=DIRECTION('ref_axis',(1.,0.,0.));
#807=DIRECTION('',(0.707106781186546,-0.707106781186549,-8.65956056235492E-17));
#808=DIRECTION('center_axis',(0.,-1.,0.));
#809=DIRECTION('ref_axis',(1.,0.,0.));
#810=DIRECTION('center_axis',(0.,1.,0.));
#811=DIRECTION('ref_axis',(-1.,0.,0.));
#812=DIRECTION('',(-1.,0.,0.));
#813=DIRECTION('center_axis',(0.,1.,0.));
#814=DIRECTION('ref_axis',(0.,0.,-1.));
#815=DIRECTION('',(-1.60874896578081E-13,0.,1.));
#816=DIRECTION('center_axis',(0.,1.,0.));
#817=DIRECTION('ref_axis',(-1.,0.,0.));
#818=DIRECTION('',(1.,0.,3.36067506464396E-15));
#819=DIRECTION('center_axis',(0.,1.,0.));
#820=DIRECTION('ref_axis',(-2.01261229904049E-12,0.,1.));
#821=DIRECTION('',(-7.95850840426089E-13,0.,-1.));
#822=DIRECTION('center_axis',(0.,1.,0.));
#823=DIRECTION('ref_axis',(1.,0.,0.));
#824=DIRECTION('center_axis',(0.,1.,0.));
#825=DIRECTION('ref_axis',(1.,0.,0.));
#826=DIRECTION('center_axis',(0.,1.,0.));
#827=DIRECTION('ref_axis',(1.,0.,0.));
#828=DIRECTION('center_axis',(0.,-1.,0.));
#829=DIRECTION('ref_axis',(-1.,1.25115934314716E-46,-2.2186712959341E-31));
#830=DIRECTION('center_axis',(0.,-1.,0.));
#831=DIRECTION('ref_axis',(-1.,0.,0.));
#832=DIRECTION('center_axis',(0.,1.,0.));
#833=DIRECTION('ref_axis',(1.,0.,0.));
#834=DIRECTION('center_axis',(0.,1.,0.));
#835=DIRECTION('ref_axis',(1.,0.,0.));
#836=DIRECTION('center_axis',(0.,1.,0.));
#837=DIRECTION('ref_axis',(1.,0.,0.));
#838=DIRECTION('',(0.,1.,0.));
#839=DIRECTION('center_axis',(0.,1.,0.));
#840=DIRECTION('ref_axis',(1.,0.,0.));
#841=DIRECTION('',(0.707106781186546,-0.707106781186549,-8.65956056235492E-17));
#842=DIRECTION('center_axis',(0.,-1.,0.));
#843=DIRECTION('ref_axis',(1.,0.,0.));
#844=DIRECTION('center_axis',(0.,1.,0.));
#845=DIRECTION('ref_axis',(1.,0.,0.));
#846=DIRECTION('center_axis',(0.,1.,0.));
#847=DIRECTION('ref_axis',(1.,0.,0.));
#848=DIRECTION('',(0.,1.,0.));
#849=DIRECTION('center_axis',(0.,1.,0.));
#850=DIRECTION('ref_axis',(1.,0.,0.));
#851=DIRECTION('',(0.707106781186548,-0.707106781186548,-8.65956056235493E-17));
#852=DIRECTION('center_axis',(0.,-1.,0.));
#853=DIRECTION('ref_axis',(1.,0.,0.));
#854=DIRECTION('center_axis',(0.,1.,0.));
#855=DIRECTION('ref_axis',(1.,0.,0.));
#856=DIRECTION('center_axis',(0.,1.,0.));
#857=DIRECTION('ref_axis',(1.,0.,0.));
#858=DIRECTION('',(0.,1.,0.));
#859=DIRECTION('center_axis',(0.,1.,0.));
#860=DIRECTION('ref_axis',(1.,0.,0.));
#861=DIRECTION('',(0.707106781186548,-0.707106781186548,-8.65956056235493E-17));
#862=DIRECTION('center_axis',(0.,-1.,0.));
#863=DIRECTION('ref_axis',(1.,0.,0.));
#864=DIRECTION('center_axis',(0.,1.,0.));
#865=DIRECTION('ref_axis',(1.,0.,0.));
#866=DIRECTION('center_axis',(0.,1.,0.));
#867=DIRECTION('ref_axis',(1.,0.,0.));
#868=DIRECTION('',(0.,1.,0.));
#869=DIRECTION('center_axis',(0.,1.,5.82867087928207E-16));
#870=DIRECTION('ref_axis',(-1.,1.25115934314716E-46,-2.2186712959341E-31));
#871=DIRECTION('center_axis',(0.,1.,0.));
#872=DIRECTION('ref_axis',(-1.,1.25115934314716E-46,-2.2186712959341E-31));
#873=DIRECTION('',(0.,1.,5.82867087928207E-16));
#874=DIRECTION('center_axis',(0.,-1.,0.));
#875=DIRECTION('ref_axis',(-1.,0.,0.));
#876=DIRECTION('',(0.,-1.,0.));
#877=DIRECTION('center_axis',(2.18952885050753E-47,1.,1.21543267145725E-63));
#878=DIRECTION('ref_axis',(-1.,0.,0.));
#879=DIRECTION('center_axis',(2.18952885050753E-47,1.,1.21543267145725E-63));
#880=DIRECTION('ref_axis',(-1.,2.18952885050753E-47,4.6182038900965E-170));
#881=DIRECTION('',(-1.,2.18952885050753E-47,2.46716227694479E-16));
#882=DIRECTION('center_axis',(2.18952885050753E-47,1.,1.21543267145725E-63));
#883=DIRECTION('ref_axis',(1.,-2.18952885050753E-47,8.88178419700124E-15));
#884=DIRECTION('',(2.66122490000509E-110,1.21543267145725E-63,-1.));
#885=DIRECTION('center_axis',(2.18952885050753E-47,1.,1.21543267145725E-63));
#886=DIRECTION('ref_axis',(-8.88178419700126E-15,1.93253794761704E-61,1.));
#887=DIRECTION('',(1.,-2.18952885050753E-47,4.60140982302702E-141));
#888=DIRECTION('center_axis',(2.18952885050753E-47,1.,1.21543267145725E-63));
#889=DIRECTION('ref_axis',(-1.,2.18952885050753E-47,-7.7715611723761E-15));
#890=DIRECTION('',(1.00929365875014E-16,-3.42531025592499E-63,1.));
#891=DIRECTION('center_axis',(2.18952885050753E-47,1.,1.21543267145725E-63));
#892=DIRECTION('ref_axis',(7.77156117237611E-15,-1.68945141332559E-61,-1.));
#893=DIRECTION('center_axis',(0.,-1.,0.));
#894=DIRECTION('ref_axis',(-8.88178419700126E-15,0.,1.));
#895=DIRECTION('center_axis',(0.,1.,0.));
#896=DIRECTION('ref_axis',(-8.88178419700126E-15,0.,1.));
#897=DIRECTION('',(0.,-1.,0.));
#898=DIRECTION('',(0.,-1.,0.));
#899=DIRECTION('center_axis',(1.,0.,2.66122490000509E-110));
#900=DIRECTION('ref_axis',(-2.66122490000509E-110,-1.21543267145725E-63,
1.));
#901=DIRECTION('',(2.66122490000509E-110,0.,-1.));
#902=DIRECTION('',(0.,-1.,0.));
#903=DIRECTION('center_axis',(0.,-1.,0.));
#904=DIRECTION('ref_axis',(1.,0.,8.88178419700124E-15));
#905=DIRECTION('center_axis',(0.,1.,0.));
#906=DIRECTION('ref_axis',(1.,0.,8.88178419700124E-15));
#907=DIRECTION('',(0.,-1.,0.));
#908=DIRECTION('center_axis',(-2.46716227694479E-16,0.,-1.));
#909=DIRECTION('ref_axis',(1.,-2.18952885050753E-47,-2.46716227694479E-16));
#910=DIRECTION('',(-1.,0.,2.46716227694479E-16));
#911=DIRECTION('',(0.,-1.,0.));
#912=DIRECTION('center_axis',(0.,-1.,0.));
#913=DIRECTION('ref_axis',(7.77156117237611E-15,0.,-1.));
#914=DIRECTION('center_axis',(0.,1.,0.));
#915=DIRECTION('ref_axis',(7.77156117237611E-15,0.,-1.));
#916=DIRECTION('',(0.,-1.,0.));
#917=DIRECTION('center_axis',(-1.,0.,1.00929365875014E-16));
#918=DIRECTION('ref_axis',(-1.00929365875014E-16,3.42531025592499E-63,-1.));
#919=DIRECTION('',(1.00929365875014E-16,0.,1.));
#920=DIRECTION('',(0.,-1.,0.));
#921=DIRECTION('center_axis',(0.,-1.,0.));
#922=DIRECTION('ref_axis',(-1.,0.,-7.7715611723761E-15));
#923=DIRECTION('center_axis',(0.,1.,0.));
#924=DIRECTION('ref_axis',(-1.,0.,-7.7715611723761E-15));
#925=DIRECTION('',(0.,-1.,0.));
#926=DIRECTION('center_axis',(-4.60140982302702E-141,0.,1.));
#927=DIRECTION('ref_axis',(-1.,2.18952885050753E-47,-4.60140982302702E-141));
#928=DIRECTION('',(1.,0.,4.60140982302702E-141));
#929=DIRECTION('center_axis',(0.,1.,0.));
#930=DIRECTION('ref_axis',(-1.,0.,0.));
#931=DIRECTION('',(-1.,0.,0.));
#932=DIRECTION('center_axis',(0.,1.,0.));
#933=DIRECTION('ref_axis',(1.,0.,0.));
#934=DIRECTION('',(-7.95850840426089E-13,0.,-1.));
#935=DIRECTION('center_axis',(0.,1.,0.));
#936=DIRECTION('ref_axis',(-2.01261229904049E-12,0.,1.));
#937=DIRECTION('',(1.,0.,3.36067506464396E-15));
#938=DIRECTION('center_axis',(0.,1.,0.));
#939=DIRECTION('ref_axis',(-1.,0.,0.));
#940=DIRECTION('',(-1.60874896578081E-13,0.,1.));
#941=DIRECTION('center_axis',(0.,1.,0.));
#942=DIRECTION('ref_axis',(0.,0.,-1.));
#943=DIRECTION('',(1.,0.,0.));
#944=DIRECTION('center_axis',(0.,1.,0.));
#945=DIRECTION('ref_axis',(2.62529392164818E-11,0.,-1.));
#946=DIRECTION('',(3.58136457281802E-17,0.,-1.));
#947=DIRECTION('center_axis',(0.,1.,0.));
#948=DIRECTION('ref_axis',(-1.,0.,-7.7035730604651E-9));
#949=DIRECTION('',(-1.,0.,-2.72934824892551E-13));
#950=DIRECTION('center_axis',(0.,1.,0.));
#951=DIRECTION('ref_axis',(3.12654952432986E-11,0.,1.));
#952=DIRECTION('',(7.95850840426252E-13,0.,1.));
#953=DIRECTION('center_axis',(0.,1.,0.));
#954=DIRECTION('ref_axis',(1.,0.,5.24509728584774E-12));
#955=DIRECTION('center_axis',(0.,1.,0.));
#956=DIRECTION('ref_axis',(1.,0.,0.));
#957=DIRECTION('',(0.,1.,0.));
#958=DIRECTION('',(0.,1.,0.));
#959=DIRECTION('center_axis',(1.,0.,-7.95850840426089E-13));
#960=DIRECTION('ref_axis',(-7.95850840426089E-13,0.,-1.));
#961=DIRECTION('',(0.,1.,0.));
#962=DIRECTION('center_axis',(0.,1.,0.));
#963=DIRECTION('ref_axis',(-2.01261229904049E-12,0.,1.));
#964=DIRECTION('',(0.,1.,0.));
#965=DIRECTION('center_axis',(-3.36067506464396E-15,0.,1.));
#966=DIRECTION('ref_axis',(1.,0.,3.36067506464396E-15));
#967=DIRECTION('',(0.,1.,0.));
#968=DIRECTION('center_axis',(0.,1.,0.));
#969=DIRECTION('ref_axis',(-1.,0.,0.));
#970=DIRECTION('',(0.,1.,0.));
#971=DIRECTION('center_axis',(-1.,0.,-1.60874896578081E-13));
#972=DIRECTION('ref_axis',(-1.60874896578081E-13,0.,1.));
#973=DIRECTION('',(0.,1.,0.));
#974=DIRECTION('center_axis',(0.,1.,0.));
#975=DIRECTION('ref_axis',(0.,0.,-1.));
#976=DIRECTION('',(0.,1.,0.));
#977=DIRECTION('center_axis',(0.,0.,-1.));
#978=DIRECTION('ref_axis',(-1.,0.,0.));
#979=DIRECTION('center_axis',(0.,0.,-1.));
#980=DIRECTION('ref_axis',(1.,0.,0.));
#981=DIRECTION('',(0.,-1.,0.));
#982=DIRECTION('',(1.,0.,0.));
#983=DIRECTION('',(0.,-1.,0.));
#984=DIRECTION('center_axis',(0.,-1.,0.));
#985=DIRECTION('ref_axis',(2.62529392164818E-11,0.,-1.));
#986=DIRECTION('center_axis',(0.,-1.,0.));
#987=DIRECTION('ref_axis',(2.62529392164818E-11,0.,-1.));
#988=DIRECTION('',(0.,-1.,0.));
#989=DIRECTION('center_axis',(-1.,0.,-3.58136457281802E-17));
#990=DIRECTION('ref_axis',(3.58136457281802E-17,0.,-1.));
#991=DIRECTION('',(3.58136457281802E-17,0.,-1.));
#992=DIRECTION('',(0.,-1.,0.));
#993=DIRECTION('center_axis',(0.,-1.,0.));
#994=DIRECTION('ref_axis',(-1.,0.,-7.7035730604651E-9));
#995=DIRECTION('center_axis',(0.,-1.,0.));
#996=DIRECTION('ref_axis',(-1.,0.,-7.7035730604651E-9));
#997=DIRECTION('',(0.,-1.,0.));
#998=DIRECTION('center_axis',(-2.72934824892551E-13,0.,1.));
#999=DIRECTION('ref_axis',(-1.,0.,-2.72934824892551E-13));
#1000=DIRECTION('',(-1.,0.,-2.72934824892551E-13));
#1001=DIRECTION('',(0.,-1.,0.));
#1002=DIRECTION('center_axis',(0.,-1.,0.));
#1003=DIRECTION('ref_axis',(3.12654952432986E-11,0.,1.));
#1004=DIRECTION('center_axis',(0.,-1.,0.));
#1005=DIRECTION('ref_axis',(3.12654952432986E-11,0.,1.));
#1006=DIRECTION('',(0.,-1.,0.));
#1007=DIRECTION('center_axis',(1.,0.,-7.95850840426252E-13));
#1008=DIRECTION('ref_axis',(7.95850840426252E-13,0.,1.));
#1009=DIRECTION('',(7.95850840426252E-13,0.,1.));
#1010=DIRECTION('',(0.,-1.,0.));
#1011=DIRECTION('center_axis',(0.,-1.,0.));
#1012=DIRECTION('ref_axis',(1.,0.,5.24509728584774E-12));
#1013=DIRECTION('center_axis',(0.,-1.,0.));
#1014=DIRECTION('ref_axis',(1.,0.,5.24509728584774E-12));
#1015=DIRECTION('center_axis',(0.,1.,0.));
#1016=DIRECTION('ref_axis',(-1.,0.,0.));
#1017=CARTESIAN_POINT('',(0.,0.,0.));
#1018=CARTESIAN_POINT('Origin',(-15.4762446935618,25.625,-23.547705378768));
#1019=CARTESIAN_POINT('',(-17.6262446935618,26.,-23.547705378768));
#1020=CARTESIAN_POINT('Origin',(-15.4762446935618,26.,-23.547705378768));
#1021=CARTESIAN_POINT('',(-16.8762446935618,25.25,-23.547705378768));
#1022=CARTESIAN_POINT('',(-17.2512446935618,25.625,-23.547705378768));
#1023=CARTESIAN_POINT('Origin',(-15.4762446935618,25.25,-23.547705378768));
#1024=CARTESIAN_POINT('Origin',(3.02375530645793,26.,7.45229462123198));
#1025=CARTESIAN_POINT('',(21.5237553064671,26.,-28.547705378768));
#1026=CARTESIAN_POINT('',(-15.4762446935618,26.,-28.547705378768));
#1027=CARTESIAN_POINT('',(21.5237553064671,26.,-28.547705378768));
#1028=CARTESIAN_POINT('',(-20.4762446935618,26.,-23.547705378768));
#1029=CARTESIAN_POINT('Origin',(-15.4762446935618,26.,-23.547705378768));
#1030=CARTESIAN_POINT('',(-20.4762446935717,26.,38.4522950277054));
#1031=CARTESIAN_POINT('',(-20.4762446935618,26.,-23.547705378768));
#1032=CARTESIAN_POINT('',(-15.4762451000453,26.,43.4522946212319));
#1033=CARTESIAN_POINT('Origin',(-15.4762451000453,26.,38.4522950277054));
#1034=CARTESIAN_POINT('',(21.5237553064775,26.,43.452294621232));
#1035=CARTESIAN_POINT('',(-15.4762451000453,26.,43.4522946212319));
#1036=CARTESIAN_POINT('',(26.5237553064876,26.,38.452294621232));
#1037=CARTESIAN_POINT('Origin',(21.5237553064876,26.,38.452294621232));
#1038=CARTESIAN_POINT('',(26.5237553064383,26.,-23.5477053787969));
#1039=CARTESIAN_POINT('',(26.5237553064876,26.,38.452294621232));
#1040=CARTESIAN_POINT('Origin',(21.5237553064671,26.,-23.5477053787969));
#1041=CARTESIAN_POINT('',(-17.6262451000453,26.,38.4522950277054));
#1042=CARTESIAN_POINT('Origin',(-15.4762451000453,26.,38.4522950277054));
#1043=CARTESIAN_POINT('',(19.3737553064671,26.,-23.5477053787969));
#1044=CARTESIAN_POINT('Origin',(21.5237553064671,26.,-23.5477053787969));
#1045=CARTESIAN_POINT('',(-10.375,26.,-3.78548829877318));
#1046=CARTESIAN_POINT('Origin',(-13.,26.,-3.78548829877318));
#1047=CARTESIAN_POINT('',(8.5,26.,-2.));
#1048=CARTESIAN_POINT('Origin',(4.,26.,-2.));
#1049=CARTESIAN_POINT('',(19.3737553064876,26.,38.452294621232));
#1050=CARTESIAN_POINT('Origin',(21.5237553064876,26.,38.452294621232));
#1051=CARTESIAN_POINT('Origin',(-15.4762446935618,10.12,-23.547705378768));
#1052=CARTESIAN_POINT('',(-16.8762446935618,21.,-23.547705378768));
#1053=CARTESIAN_POINT('Origin',(-15.4762446935618,21.,-23.547705378768));
#1054=CARTESIAN_POINT('',(-16.8762446935618,10.12,-23.547705378768));
#1055=CARTESIAN_POINT('Origin',(-15.4762451000453,25.625,38.4522950277054));
#1056=CARTESIAN_POINT('',(-16.8762451000453,25.25,38.4522950277054));
#1057=CARTESIAN_POINT('',(-17.2512451000453,25.625,38.4522950277054));
#1058=CARTESIAN_POINT('Origin',(-15.4762451000453,25.25,38.4522950277054));
#1059=CARTESIAN_POINT('Origin',(-15.4762451000453,1.5,38.4522950277054));
#1060=CARTESIAN_POINT('',(-16.8762451000453,21.,38.4522950277054));
#1061=CARTESIAN_POINT('Origin',(-15.4762451000453,21.,38.4522950277054));
#1062=CARTESIAN_POINT('',(-16.8762451000453,1.5,38.4522950277054));
#1063=CARTESIAN_POINT('Origin',(21.5237553064876,25.625,38.452294621232));
#1064=CARTESIAN_POINT('',(20.1237553064876,25.25,38.452294621232));
#1065=CARTESIAN_POINT('',(19.7487553064876,25.625,38.452294621232));
#1066=CARTESIAN_POINT('Origin',(21.5237553064876,25.25,38.452294621232));
#1067=CARTESIAN_POINT('Origin',(21.5237553064876,1.5,38.452294621232));
#1068=CARTESIAN_POINT('',(20.1237553064876,21.,38.452294621232));
#1069=CARTESIAN_POINT('Origin',(21.5237553064876,21.,38.452294621232));
#1070=CARTESIAN_POINT('',(20.1237553064876,1.5,38.452294621232));
#1071=CARTESIAN_POINT('Origin',(21.5237553064671,25.625,-23.5477053787969));
#1072=CARTESIAN_POINT('',(20.1237553064671,25.25,-23.5477053787969));
#1073=CARTESIAN_POINT('',(19.7487553064671,25.625,-23.5477053787969));
#1074=CARTESIAN_POINT('Origin',(21.5237553064671,25.25,-23.5477053787969));
#1075=CARTESIAN_POINT('Origin',(21.5237553064671,1.5,-23.5477053787969));
#1076=CARTESIAN_POINT('',(20.1237553064671,21.,-23.5477053787969));
#1077=CARTESIAN_POINT('Origin',(21.5237553064671,21.,-23.5477053787969));
#1078=CARTESIAN_POINT('',(20.1237553064671,1.5,-23.5477053787969));
#1079=CARTESIAN_POINT('Origin',(-13.,13.3844459638624,-3.78548829877319));
#1080=CARTESIAN_POINT('',(-10.375,21.,-3.78548829877319));
#1081=CARTESIAN_POINT('Origin',(-13.,21.,-3.78548829877319));
#1082=CARTESIAN_POINT('',(-10.375,13.3844459638624,-3.78548829877319));
#1083=CARTESIAN_POINT('Origin',(4.,26.,-2.));
#1084=CARTESIAN_POINT('',(8.5,24.,-2.));
#1085=CARTESIAN_POINT('',(8.5,26.,-2.));
#1086=CARTESIAN_POINT('Origin',(4.,24.,-2.));
#1087=CARTESIAN_POINT('Origin',(4.,24.,-2.));
#1088=CARTESIAN_POINT('',(9.5,24.,-9.00000000000001));
#1089=CARTESIAN_POINT('',(-1.49999999999999,24.,-9.));
#1090=CARTESIAN_POINT('',(9.5,24.,-9.));
#1091=CARTESIAN_POINT('',(11.,24.,-7.49999999999999));
#1092=CARTESIAN_POINT('Origin',(9.5,24.,-7.5));
#1093=CARTESIAN_POINT('',(11.,24.,3.49999999999999));
#1094=CARTESIAN_POINT('',(11.,24.,3.49999999999999));
#1095=CARTESIAN_POINT('',(9.49999999999999,24.,5.));
#1096=CARTESIAN_POINT('Origin',(9.5,24.,3.5));
#1097=CARTESIAN_POINT('',(-1.5,24.,5.));
#1098=CARTESIAN_POINT('',(-1.5,24.,5.));
#1099=CARTESIAN_POINT('',(-3.,24.,3.49999999999999));
#1100=CARTESIAN_POINT('Origin',(-1.5,24.,3.5));
#1101=CARTESIAN_POINT('',(-3.,24.,-7.5));
#1102=CARTESIAN_POINT('',(-3.,24.,-7.5));
#1103=CARTESIAN_POINT('Origin',(-1.5,24.,-7.5));
#1104=CARTESIAN_POINT('Origin',(9.5,23.,3.5));
#1105=CARTESIAN_POINT('',(9.49999999999999,21.,5.));
#1106=CARTESIAN_POINT('',(11.,21.,3.49999999999999));
#1107=CARTESIAN_POINT('Origin',(9.5,21.,3.5));
#1108=CARTESIAN_POINT('',(9.49999999999999,23.,5.));
#1109=CARTESIAN_POINT('',(11.,23.,3.49999999999999));
#1110=CARTESIAN_POINT('Origin',(11.,23.,-7.49999999999999));
#1111=CARTESIAN_POINT('',(11.,21.,-7.49999999999999));
#1112=CARTESIAN_POINT('',(11.,21.,-0.0238526893840074));
#1113=CARTESIAN_POINT('',(11.,23.,-7.49999999999999));
#1114=CARTESIAN_POINT('Origin',(9.5,23.,-7.5));
#1115=CARTESIAN_POINT('',(9.5,21.,-9.00000000000001));
#1116=CARTESIAN_POINT('Origin',(9.5,21.,-7.5));
#1117=CARTESIAN_POINT('',(9.5,23.,-9.00000000000001));
#1118=CARTESIAN_POINT('Origin',(-1.49999999999999,23.,-9.));
#1119=CARTESIAN_POINT('',(-1.49999999999999,21.,-9.));
#1120=CARTESIAN_POINT('',(0.761877653231463,21.,-9.));
#1121=CARTESIAN_POINT('',(-1.49999999999999,23.,-9.));
#1122=CARTESIAN_POINT('Origin',(-1.5,23.,-7.5));
#1123=CARTESIAN_POINT('',(-3.,21.,-7.5));
#1124=CARTESIAN_POINT('Origin',(-1.5,21.,-7.5));
#1125=CARTESIAN_POINT('',(-3.,23.,-7.5));
#1126=CARTESIAN_POINT('Origin',(-3.,23.,3.49999999999998));
#1127=CARTESIAN_POINT('',(-3.,21.,3.49999999999998));
#1128=CARTESIAN_POINT('',(-3.,21.,5.47614731061598));
#1129=CARTESIAN_POINT('',(-3.,23.,3.49999999999998));
#1130=CARTESIAN_POINT('Origin',(-1.5,23.,3.5));
#1131=CARTESIAN_POINT('',(-1.5,21.,5.));
#1132=CARTESIAN_POINT('Origin',(-1.5,21.,3.5));
#1133=CARTESIAN_POINT('',(-1.5,23.,5.));
#1134=CARTESIAN_POINT('Origin',(9.49999999999999,23.,5.));
#1135=CARTESIAN_POINT('',(6.26187765323145,21.,5.));
#1136=CARTESIAN_POINT('Origin',(3.02375530645793,23.5,7.45229462123198));
#1137=CARTESIAN_POINT('',(21.5237553064671,23.5,-28.547705378768));
#1138=CARTESIAN_POINT('',(-15.4762446935618,23.5,-28.547705378768));
#1139=CARTESIAN_POINT('',(21.5237553064671,23.5,-28.547705378768));
#1140=CARTESIAN_POINT('',(26.5237553064383,23.5,-23.5477053787969));
#1141=CARTESIAN_POINT('Origin',(21.5237553064671,23.5,-23.5477053787969));
#1142=CARTESIAN_POINT('',(26.5237553064876,23.5,38.452294621232));
#1143=CARTESIAN_POINT('',(26.5237553064876,23.5,38.452294621232));
#1144=CARTESIAN_POINT('',(21.5237553064775,23.5,43.452294621232));
#1145=CARTESIAN_POINT('Origin',(21.5237553064876,23.5,38.452294621232));
#1146=CARTESIAN_POINT('',(-15.4762451000453,23.5,43.4522946212319));
#1147=CARTESIAN_POINT('',(-15.4762451000453,23.5,43.4522946212319));
#1148=CARTESIAN_POINT('',(-20.4762446935717,23.5,38.4522950277054));
#1149=CARTESIAN_POINT('Origin',(-15.4762451000453,23.5,38.4522950277054));
#1150=CARTESIAN_POINT('',(-20.4762446935618,23.5,-23.547705378768));
#1151=CARTESIAN_POINT('',(-20.4762446935618,23.5,-23.547705378768));
#1152=CARTESIAN_POINT('Origin',(-15.4762446935618,23.5,-23.547705378768));
#1153=CARTESIAN_POINT('',(-15.4762446934896,23.5,-26.297705378768));
#1154=CARTESIAN_POINT('',(21.5237553064891,23.5,-26.297705378768));
#1155=CARTESIAN_POINT('',(-15.4762446934896,23.5,-26.297705378768));
#1156=CARTESIAN_POINT('',(-18.2262446935617,23.5,-23.5477053872718));
#1157=CARTESIAN_POINT('Origin',(-15.4762446935618,23.5,-23.547705378768));
#1158=CARTESIAN_POINT('',(-18.2262446935618,23.5,38.4522950065206));
#1159=CARTESIAN_POINT('',(-18.2262446935618,23.5,38.4522950065206));
#1160=CARTESIAN_POINT('',(-15.4762450999925,23.5,41.2022946212219));
#1161=CARTESIAN_POINT('Origin',(-15.4762451000453,23.5,38.4522950277054));
#1162=CARTESIAN_POINT('',(21.5237553065736,23.5,41.202294621232));
#1163=CARTESIAN_POINT('',(21.5237553065736,23.5,41.202294621232));
#1164=CARTESIAN_POINT('',(24.2737553064876,23.5,38.4522946212337));
#1165=CARTESIAN_POINT('Origin',(21.5237553064876,23.5,38.452294621232));
#1166=CARTESIAN_POINT('',(24.2737553064383,23.5,-23.5477053787824));
#1167=CARTESIAN_POINT('',(24.2737553064383,23.5,-23.5477053787824));
#1168=CARTESIAN_POINT('Origin',(21.5237553064671,23.5,-23.5477053787969));
#1169=CARTESIAN_POINT('Origin',(21.5237553064671,23.5,-23.5477053787969));
#1170=CARTESIAN_POINT('',(21.5237553064671,23.5,-28.547705378768));
#1171=CARTESIAN_POINT('',(26.5237553064383,23.5,-23.5477053787969));
#1172=CARTESIAN_POINT('Origin',(26.5237553064876,23.5,38.452294621232));
#1173=CARTESIAN_POINT('',(26.5237553064876,23.5,38.452294621232));
#1174=CARTESIAN_POINT('Origin',(21.5237553064876,23.5,38.452294621232));
#1175=CARTESIAN_POINT('',(21.5237553064775,23.5,43.452294621232));
#1176=CARTESIAN_POINT('Origin',(-15.4762451000453,23.5,43.4522946212319));
#1177=CARTESIAN_POINT('',(-15.4762451000453,23.5,43.4522946212319));
#1178=CARTESIAN_POINT('Origin',(-15.4762451000453,23.5,38.4522950277054));
#1179=CARTESIAN_POINT('',(-20.4762446935717,23.5,38.4522950277054));
#1180=CARTESIAN_POINT('Origin',(-20.4762446935618,23.5,-23.547705378768));
#1181=CARTESIAN_POINT('',(-20.4762446935618,23.5,-23.547705378768));
#1182=CARTESIAN_POINT('Origin',(-15.4762446935618,23.5,-23.547705378768));
#1183=CARTESIAN_POINT('',(-15.4762446935618,23.5,-28.547705378768));
#1184=CARTESIAN_POINT('Origin',(21.5237553064671,23.5,-28.547705378768));
#1185=CARTESIAN_POINT('Origin',(-15.4762446934896,23.5,-26.297705378768));
#1186=CARTESIAN_POINT('',(21.5237553064891,21.,-26.297705378768));
#1187=CARTESIAN_POINT('',(21.5237553064891,23.5,-26.297705378768));
#1188=CARTESIAN_POINT('',(-15.4762446934896,21.,-26.297705378768));
#1189=CARTESIAN_POINT('',(-15.4762446934896,21.,-26.297705378768));
#1190=CARTESIAN_POINT('',(-15.4762446934896,23.5,-26.297705378768));
#1191=CARTESIAN_POINT('Origin',(-15.4762446935618,23.5,-23.547705378768));
#1192=CARTESIAN_POINT('',(-18.2262446935617,21.,-23.5477053872718));
#1193=CARTESIAN_POINT('Origin',(-15.4762446935618,21.,-23.547705378768));
#1194=CARTESIAN_POINT('',(-18.2262446935617,23.5,-23.5477053872718));
#1195=CARTESIAN_POINT('Origin',(-18.2262446935618,23.5,38.4522950065206));
#1196=CARTESIAN_POINT('',(-18.2262446935617,21.,38.4522950065206));
#1197=CARTESIAN_POINT('',(-18.2262446935618,21.,38.4522950065206));
#1198=CARTESIAN_POINT('',(-18.2262446935618,23.5,38.4522950065206));
#1199=CARTESIAN_POINT('Origin',(-15.4762451000453,23.5,38.4522950277054));
#1200=CARTESIAN_POINT('',(-15.4762450999925,21.,41.2022946212219));
#1201=CARTESIAN_POINT('Origin',(-15.4762451000453,21.,38.4522950277054));
#1202=CARTESIAN_POINT('',(-15.4762450999925,23.5,41.2022946212219));
#1203=CARTESIAN_POINT('Origin',(21.5237553065736,23.5,41.202294621232));
#1204=CARTESIAN_POINT('',(21.5237553065736,21.,41.202294621232));
#1205=CARTESIAN_POINT('',(21.5237553065736,21.,41.202294621232));
#1206=CARTESIAN_POINT('',(21.5237553065736,23.5,41.202294621232));
#1207=CARTESIAN_POINT('Origin',(21.5237553064876,23.5,38.452294621232));
#1208=CARTESIAN_POINT('',(24.2737553064876,21.,38.4522946212337));
#1209=CARTESIAN_POINT('Origin',(21.5237553064876,21.,38.452294621232));
#1210=CARTESIAN_POINT('',(24.2737553064876,23.5,38.4522946212337));
#1211=CARTESIAN_POINT('Origin',(24.2737553064383,23.5,-23.5477053787824));
#1212=CARTESIAN_POINT('',(24.2737553064383,21.,-23.5477053787824));
#1213=CARTESIAN_POINT('',(24.2737553064383,21.,-23.5477053787824));
#1214=CARTESIAN_POINT('',(24.2737553064383,23.5,-23.5477053787824));
#1215=CARTESIAN_POINT('Origin',(21.5237553064671,23.5,-23.5477053787969));
#1216=CARTESIAN_POINT('Origin',(21.5237553064671,21.,-23.5477053787969));
#1217=CARTESIAN_POINT('Origin',(3.02375530646292,21.,7.45229462123198));
#1218=UNCERTAINTY_MEASURE_WITH_UNIT(LENGTH_MEASURE(0.01),#1222,
'DISTANCE_ACCURACY_VALUE',
'Maximum model space distance between geometric entities at asserted c
onnectivities');
#1219=UNCERTAINTY_MEASURE_WITH_UNIT(LENGTH_MEASURE(0.01),#1222,
'DISTANCE_ACCURACY_VALUE',
'Maximum model space distance between geometric entities at asserted c
onnectivities');
#1220=(
GEOMETRIC_REPRESENTATION_CONTEXT(3)
GLOBAL_UNCERTAINTY_ASSIGNED_CONTEXT((#1218))
GLOBAL_UNIT_ASSIGNED_CONTEXT((#1222,#1224,#1225))
REPRESENTATION_CONTEXT('','3D')
);
#1221=(
GEOMETRIC_REPRESENTATION_CONTEXT(3)
GLOBAL_UNCERTAINTY_ASSIGNED_CONTEXT((#1219))
GLOBAL_UNIT_ASSIGNED_CONTEXT((#1222,#1224,#1225))
REPRESENTATION_CONTEXT('','3D')
);
#1222=(
LENGTH_UNIT()
NAMED_UNIT(*)
SI_UNIT(.MILLI.,.METRE.)
);
#1223=(
LENGTH_UNIT()
NAMED_UNIT(*)
SI_UNIT($,.METRE.)
);
#1224=(
NAMED_UNIT(*)
PLANE_ANGLE_UNIT()
SI_UNIT($,.RADIAN.)
);
#1225=(
NAMED_UNIT(*)
SI_UNIT($,.STERADIAN.)
SOLID_ANGLE_UNIT()
);
#1226=SHAPE_DEFINITION_REPRESENTATION(#1227,#1228);
#1227=PRODUCT_DEFINITION_SHAPE('',$,#1230);
#1228=SHAPE_REPRESENTATION('',(#722),#1220);
#1229=PRODUCT_DEFINITION_CONTEXT('part definition',#1234,'design');
#1230=PRODUCT_DEFINITION('2026-09-17-05-59-34-236','CAP',#1231,#1229);
#1231=PRODUCT_DEFINITION_FORMATION('',$,#1236);
#1232=PRODUCT_RELATED_PRODUCT_CATEGORY('CAP','CAP',(#1236));
#1233=APPLICATION_PROTOCOL_DEFINITION('international standard',
'automotive_design',2009,#1234);
#1234=APPLICATION_CONTEXT(
'Core Data for Automotive Mechanical Design Process');
#1235=PRODUCT_CONTEXT('part definition',#1234,'mechanical');
#1236=PRODUCT('2026-09-17-05-59-34-236','CAP',$,(#1235));
#1237=PRESENTATION_STYLE_ASSIGNMENT((#1238));
#1238=SURFACE_STYLE_USAGE(.BOTH.,#1239);
#1239=SURFACE_SIDE_STYLE('',(#1240));
#1240=SURFACE_STYLE_FILL_AREA(#1241);
#1241=FILL_AREA_STYLE('Acrylic (Clear)',(#1242));
#1242=FILL_AREA_STYLE_COLOUR('Acrylic (Clear)',#1243);
#1243=COLOUR_RGB('Acrylic (Clear)',0.964705882352941,0.964705882352941,
0.952941176470588);
ENDSEC;
END-ISO-10303-21;
