ISO-10303-21;
HEADER;
/* Generated by software containing ST-Developer
 * from STEP Tools, Inc. (www.steptools.com) 
 */

FILE_DESCRIPTION(
/* description */ (''),
/* implementation_level */ '2;1');

FILE_NAME(
/* name */ 'WALL.step',
/* time_stamp */ '2026-09-17T05:59:26+02:00',
/* author */ (''),
/* organization */ (''),
/* preprocessor_version */ 'ST-DEVELOPER v20.2',
/* originating_system */ 'Autodesk Translation Framework v15.15.0.0',
/* authorisation */ '');

FILE_SCHEMA (('AUTOMOTIVE_DESIGN { 1 0 10303 214 3 1 1 }'));
ENDSEC;

DATA;
#10=MECHANICAL_DESIGN_GEOMETRIC_PRESENTATION_REPRESENTATION('',(#13),#2115);
#11=SHAPE_REPRESENTATION_RELATIONSHIP('SRR','None',#2122,#12);
#12=ADVANCED_BREP_SHAPE_REPRESENTATION('',(#14),#2114);
#13=STYLED_ITEM('',(#2131),#14);
#14=MANIFOLD_SOLID_BREP('WALL',#1255);
#15=CYLINDRICAL_SURFACE('',#1278,2.99999999999999);
#16=CYLINDRICAL_SURFACE('',#1285,2.99999959351643);
#17=CYLINDRICAL_SURFACE('',#1295,2.99999999999999);
#18=CYLINDRICAL_SURFACE('',#1298,1.65);
#19=CYLINDRICAL_SURFACE('',#1302,3.99999999999999);
#20=CYLINDRICAL_SURFACE('',#1311,1.65);
#21=CYLINDRICAL_SURFACE('',#1314,3.99999959351644);
#22=CYLINDRICAL_SURFACE('',#1319,2.99999959351643);
#23=CYLINDRICAL_SURFACE('',#1321,1.65);
#24=CYLINDRICAL_SURFACE('',#1325,3.99999999997116);
#25=CYLINDRICAL_SURFACE('',#1329,2.99999999997116);
#26=CYLINDRICAL_SURFACE('',#1331,1.65);
#27=CYLINDRICAL_SURFACE('',#1335,3.99999999999999);
#28=CYLINDRICAL_SURFACE('',#1347,2.99999999999999);
#29=CYLINDRICAL_SURFACE('',#1349,4.99999999999999);
#30=CYLINDRICAL_SURFACE('',#1356,4.99999959352641);
#31=CYLINDRICAL_SURFACE('',#1361,5.);
#32=CYLINDRICAL_SURFACE('',#1368,2.99999999997116);
#33=CYLINDRICAL_SURFACE('',#1369,2.5);
#34=CYLINDRICAL_SURFACE('',#1371,2.5);
#35=CYLINDRICAL_SURFACE('',#1373,2.5);
#36=CYLINDRICAL_SURFACE('',#1375,2.5);
#37=CYLINDRICAL_SURFACE('',#1377,1.5);
#38=CYLINDRICAL_SURFACE('',#1379,1.5);
#39=CYLINDRICAL_SURFACE('',#1381,1.5);
#40=CYLINDRICAL_SURFACE('',#1383,1.5);
#41=CYLINDRICAL_SURFACE('',#1385,2.99999999999999);
#42=CYLINDRICAL_SURFACE('',#1386,4.99999999997117);
#43=FACE_BOUND('',#120,.T.);
#44=FACE_BOUND('',#122,.T.);
#45=FACE_BOUND('',#125,.T.);
#46=FACE_BOUND('',#129,.T.);
#47=FACE_BOUND('',#131,.T.);
#48=FACE_BOUND('',#139,.T.);
#49=FACE_BOUND('',#141,.T.);
#50=FACE_BOUND('',#147,.T.);
#51=FACE_BOUND('',#154,.T.);
#52=FACE_BOUND('',#161,.T.);
#53=FACE_BOUND('',#163,.T.);
#54=FACE_BOUND('',#168,.T.);
#55=FACE_BOUND('',#171,.T.);
#56=FACE_BOUND('',#175,.T.);
#57=FACE_OUTER_BOUND('',#119,.T.);
#58=FACE_OUTER_BOUND('',#121,.T.);
#59=FACE_OUTER_BOUND('',#123,.T.);
#60=FACE_OUTER_BOUND('',#124,.T.);
#61=FACE_OUTER_BOUND('',#126,.T.);
#62=FACE_OUTER_BOUND('',#127,.T.);
#63=FACE_OUTER_BOUND('',#128,.T.);
#64=FACE_OUTER_BOUND('',#130,.T.);
#65=FACE_OUTER_BOUND('',#132,.T.);
#66=FACE_OUTER_BOUND('',#133,.T.);
#67=FACE_OUTER_BOUND('',#134,.T.);
#68=FACE_OUTER_BOUND('',#135,.T.);
#69=FACE_OUTER_BOUND('',#136,.T.);
#70=FACE_OUTER_BOUND('',#137,.T.);
#71=FACE_OUTER_BOUND('',#138,.T.);
#72=FACE_OUTER_BOUND('',#140,.T.);
#73=FACE_OUTER_BOUND('',#142,.T.);
#74=FACE_OUTER_BOUND('',#143,.T.);
#75=FACE_OUTER_BOUND('',#144,.T.);
#76=FACE_OUTER_BOUND('',#145,.T.);
#77=FACE_OUTER_BOUND('',#146,.T.);
#78=FACE_OUTER_BOUND('',#148,.T.);
#79=FACE_OUTER_BOUND('',#149,.T.);
#80=FACE_OUTER_BOUND('',#150,.T.);
#81=FACE_OUTER_BOUND('',#151,.T.);
#82=FACE_OUTER_BOUND('',#152,.T.);
#83=FACE_OUTER_BOUND('',#153,.T.);
#84=FACE_OUTER_BOUND('',#155,.T.);
#85=FACE_OUTER_BOUND('',#156,.T.);
#86=FACE_OUTER_BOUND('',#157,.T.);
#87=FACE_OUTER_BOUND('',#158,.T.);
#88=FACE_OUTER_BOUND('',#159,.T.);
#89=FACE_OUTER_BOUND('',#160,.T.);
#90=FACE_OUTER_BOUND('',#162,.T.);
#91=FACE_OUTER_BOUND('',#164,.T.);
#92=FACE_OUTER_BOUND('',#165,.T.);
#93=FACE_OUTER_BOUND('',#166,.T.);
#94=FACE_OUTER_BOUND('',#167,.T.);
#95=FACE_OUTER_BOUND('',#169,.T.);
#96=FACE_OUTER_BOUND('',#170,.T.);
#97=FACE_OUTER_BOUND('',#172,.T.);
#98=FACE_OUTER_BOUND('',#173,.T.);
#99=FACE_OUTER_BOUND('',#174,.T.);
#100=FACE_OUTER_BOUND('',#176,.T.);
#101=FACE_OUTER_BOUND('',#177,.T.);
#102=FACE_OUTER_BOUND('',#178,.T.);
#103=FACE_OUTER_BOUND('',#179,.T.);
#104=FACE_OUTER_BOUND('',#180,.T.);
#105=FACE_OUTER_BOUND('',#181,.T.);
#106=FACE_OUTER_BOUND('',#182,.T.);
#107=FACE_OUTER_BOUND('',#183,.T.);
#108=FACE_OUTER_BOUND('',#184,.T.);
#109=FACE_OUTER_BOUND('',#185,.T.);
#110=FACE_OUTER_BOUND('',#186,.T.);
#111=FACE_OUTER_BOUND('',#187,.T.);
#112=FACE_OUTER_BOUND('',#188,.T.);
#113=FACE_OUTER_BOUND('',#189,.T.);
#114=FACE_OUTER_BOUND('',#190,.T.);
#115=FACE_OUTER_BOUND('',#191,.T.);
#116=FACE_OUTER_BOUND('',#192,.T.);
#117=FACE_OUTER_BOUND('',#193,.T.);
#118=FACE_OUTER_BOUND('',#194,.T.);
#119=EDGE_LOOP('',(#799,#800,#801,#802,#803,#804));
#120=EDGE_LOOP('',(#805));
#121=EDGE_LOOP('',(#806,#807,#808,#809,#810,#811,#812,#813,#814,#815,#816,
#817));
#122=EDGE_LOOP('',(#818,#819,#820,#821,#822,#823,#824,#825));
#123=EDGE_LOOP('',(#826,#827,#828,#829));
#124=EDGE_LOOP('',(#830,#831,#832,#833,#834,#835));
#125=EDGE_LOOP('',(#836));
#126=EDGE_LOOP('',(#837,#838,#839,#840,#841,#842,#843,#844,#845,#846,#847,
#848));
#127=EDGE_LOOP('',(#849,#850,#851,#852));
#128=EDGE_LOOP('',(#853,#854,#855,#856,#857,#858));
#129=EDGE_LOOP('',(#859));
#130=EDGE_LOOP('',(#860,#861,#862,#863,#864,#865));
#131=EDGE_LOOP('',(#866));
#132=EDGE_LOOP('',(#867,#868,#869,#870));
#133=EDGE_LOOP('',(#871,#872,#873,#874,#875,#876,#877,#878,#879,#880,#881,
#882));
#134=EDGE_LOOP('',(#883,#884,#885,#886));
#135=EDGE_LOOP('',(#887,#888,#889,#890));
#136=EDGE_LOOP('',(#891,#892,#893,#894));
#137=EDGE_LOOP('',(#895,#896,#897,#898));
#138=EDGE_LOOP('',(#899,#900,#901,#902,#903,#904));
#139=EDGE_LOOP('',(#905));
#140=EDGE_LOOP('',(#906,#907,#908,#909,#910,#911,#912,#913,#914,#915,#916,
#917));
#141=EDGE_LOOP('',(#918,#919,#920,#921,#922,#923,#924,#925));
#142=EDGE_LOOP('',(#926,#927,#928,#929));
#143=EDGE_LOOP('',(#930,#931,#932,#933));
#144=EDGE_LOOP('',(#934,#935,#936,#937));
#145=EDGE_LOOP('',(#938,#939,#940,#941));
#146=EDGE_LOOP('',(#942,#943,#944,#945,#946,#947));
#147=EDGE_LOOP('',(#948));
#148=EDGE_LOOP('',(#949,#950,#951,#952));
#149=EDGE_LOOP('',(#953,#954,#955,#956));
#150=EDGE_LOOP('',(#957,#958,#959,#960));
#151=EDGE_LOOP('',(#961,#962,#963,#964));
#152=EDGE_LOOP('',(#965,#966,#967,#968));
#153=EDGE_LOOP('',(#969,#970,#971,#972,#973,#974));
#154=EDGE_LOOP('',(#975));
#155=EDGE_LOOP('',(#976,#977,#978,#979));
#156=EDGE_LOOP('',(#980,#981,#982,#983));
#157=EDGE_LOOP('',(#984,#985,#986,#987));
#158=EDGE_LOOP('',(#988,#989,#990,#991));
#159=EDGE_LOOP('',(#992,#993,#994,#995));
#160=EDGE_LOOP('',(#996,#997,#998,#999,#1000,#1001));
#161=EDGE_LOOP('',(#1002));
#162=EDGE_LOOP('',(#1003,#1004,#1005,#1006,#1007,#1008,#1009,#1010));
#163=EDGE_LOOP('',(#1011,#1012,#1013,#1014,#1015,#1016,#1017,#1018));
#164=EDGE_LOOP('',(#1019,#1020,#1021,#1022));
#165=EDGE_LOOP('',(#1023,#1024,#1025,#1026));
#166=EDGE_LOOP('',(#1027,#1028,#1029,#1030));
#167=EDGE_LOOP('',(#1031,#1032,#1033,#1034));
#168=EDGE_LOOP('',(#1035,#1036,#1037,#1038,#1039,#1040,#1041,#1042));
#169=EDGE_LOOP('',(#1043,#1044,#1045,#1046));
#170=EDGE_LOOP('',(#1047,#1048,#1049,#1050,#1051,#1052,#1053,#1054));
#171=EDGE_LOOP('',(#1055,#1056,#1057,#1058,#1059,#1060,#1061,#1062));
#172=EDGE_LOOP('',(#1063,#1064,#1065,#1066));
#173=EDGE_LOOP('',(#1067,#1068,#1069,#1070));
#174=EDGE_LOOP('',(#1071,#1072,#1073,#1074));
#175=EDGE_LOOP('',(#1075,#1076,#1077,#1078,#1079,#1080,#1081,#1082));
#176=EDGE_LOOP('',(#1083,#1084,#1085,#1086));
#177=EDGE_LOOP('',(#1087,#1088,#1089,#1090));
#178=EDGE_LOOP('',(#1091,#1092,#1093,#1094));
#179=EDGE_LOOP('',(#1095,#1096,#1097,#1098));
#180=EDGE_LOOP('',(#1099,#1100,#1101,#1102));
#181=EDGE_LOOP('',(#1103,#1104,#1105,#1106));
#182=EDGE_LOOP('',(#1107,#1108,#1109,#1110));
#183=EDGE_LOOP('',(#1111,#1112,#1113,#1114));
#184=EDGE_LOOP('',(#1115,#1116,#1117,#1118));
#185=EDGE_LOOP('',(#1119,#1120,#1121,#1122));
#186=EDGE_LOOP('',(#1123,#1124,#1125,#1126));
#187=EDGE_LOOP('',(#1127,#1128,#1129,#1130));
#188=EDGE_LOOP('',(#1131,#1132,#1133,#1134));
#189=EDGE_LOOP('',(#1135,#1136,#1137,#1138));
#190=EDGE_LOOP('',(#1139,#1140,#1141,#1142));
#191=EDGE_LOOP('',(#1143,#1144,#1145,#1146));
#192=EDGE_LOOP('',(#1147,#1148,#1149,#1150));
#193=EDGE_LOOP('',(#1151,#1152,#1153,#1154));
#194=EDGE_LOOP('',(#1155,#1156,#1157,#1158));
#195=CIRCLE('',#1270,3.99999999999999);
#196=CIRCLE('',#1271,2.99999999999999);
#197=CIRCLE('',#1272,1.65);
#198=CIRCLE('',#1274,1.5);
#199=CIRCLE('',#1275,1.5);
#200=CIRCLE('',#1276,1.5);
#201=CIRCLE('',#1277,1.5);
#202=CIRCLE('',#1279,2.99999999999999);
#203=CIRCLE('',#1281,3.99999959351644);
#204=CIRCLE('',#1282,2.99999959351643);
#205=CIRCLE('',#1283,1.65);
#206=CIRCLE('',#1286,2.99999959351643);
#207=CIRCLE('',#1288,3.99999999997116);
#208=CIRCLE('',#1289,2.99999999997116);
#209=CIRCLE('',#1290,1.65);
#210=CIRCLE('',#1292,3.99999999999999);
#211=CIRCLE('',#1293,2.99999999999999);
#212=CIRCLE('',#1294,1.65);
#213=CIRCLE('',#1296,2.99999999999999);
#214=CIRCLE('',#1299,1.65);
#215=CIRCLE('',#1303,3.99999999999999);
#216=CIRCLE('',#1305,2.99999999999999);
#217=CIRCLE('',#1307,2.5);
#218=CIRCLE('',#1308,2.5);
#219=CIRCLE('',#1309,2.5);
#220=CIRCLE('',#1310,2.5);
#221=CIRCLE('',#1312,1.65);
#222=CIRCLE('',#1315,3.99999959351644);
#223=CIRCLE('',#1318,2.99999959351643);
#224=CIRCLE('',#1320,2.99999959351643);
#225=CIRCLE('',#1322,1.65);
#226=CIRCLE('',#1326,3.99999999997116);
#227=CIRCLE('',#1328,2.99999999997116);
#228=CIRCLE('',#1330,2.99999999997116);
#229=CIRCLE('',#1332,1.65);
#230=CIRCLE('',#1336,3.99999999999999);
#231=CIRCLE('',#1338,2.99999999999999);
#232=CIRCLE('',#1340,5.);
#233=CIRCLE('',#1341,4.99999959352641);
#234=CIRCLE('',#1342,4.99999999999999);
#235=CIRCLE('',#1343,4.99999999997117);
#236=CIRCLE('',#1344,2.99999999997116);
#237=CIRCLE('',#1345,2.99999999999999);
#238=CIRCLE('',#1346,2.99999999999999);
#239=CIRCLE('',#1350,4.99999999999999);
#240=CIRCLE('',#1352,2.5);
#241=CIRCLE('',#1353,2.5);
#242=CIRCLE('',#1354,2.5);
#243=CIRCLE('',#1355,2.5);
#244=CIRCLE('',#1357,4.99999959352641);
#245=CIRCLE('',#1359,5.);
#246=CIRCLE('',#1360,4.99999999997117);
#247=CIRCLE('',#1364,1.5);
#248=CIRCLE('',#1365,1.5);
#249=CIRCLE('',#1366,1.5);
#250=CIRCLE('',#1367,1.5);
#251=LINE('',#1753,#375);
#252=LINE('',#1757,#376);
#253=LINE('',#1759,#377);
#254=LINE('',#1762,#378);
#255=LINE('',#1767,#379);
#256=LINE('',#1769,#380);
#257=LINE('',#1771,#381);
#258=LINE('',#1773,#382);
#259=LINE('',#1775,#383);
#260=LINE('',#1777,#384);
#261=LINE('',#1779,#385);
#262=LINE('',#1781,#386);
#263=LINE('',#1783,#387);
#264=LINE('',#1785,#388);
#265=LINE('',#1786,#389);
#266=LINE('',#1789,#390);
#267=LINE('',#1793,#391);
#268=LINE('',#1797,#392);
#269=LINE('',#1801,#393);
#270=LINE('',#1805,#394);
#271=LINE('',#1810,#395);
#272=LINE('',#1812,#396);
#273=LINE('',#1816,#397);
#274=LINE('',#1818,#398);
#275=LINE('',#1824,#399);
#276=LINE('',#1826,#400);
#277=LINE('',#1828,#401);
#278=LINE('',#1830,#402);
#279=LINE('',#1832,#403);
#280=LINE('',#1834,#404);
#281=LINE('',#1835,#405);
#282=LINE('',#1837,#406);
#283=LINE('',#1838,#407);
#284=LINE('',#1841,#408);
#285=LINE('',#1846,#409);
#286=LINE('',#1849,#410);
#287=LINE('',#1852,#411);
#288=LINE('',#1858,#412);
#289=LINE('',#1862,#413);
#290=LINE('',#1864,#414);
#291=LINE('',#1867,#415);
#292=LINE('',#1872,#416);
#293=LINE('',#1875,#417);
#294=LINE('',#1878,#418);
#295=LINE('',#1879,#419);
#296=LINE('',#1881,#420);
#297=LINE('',#1883,#421);
#298=LINE('',#1885,#422);
#299=LINE('',#1887,#423);
#300=LINE('',#1889,#424);
#301=LINE('',#1891,#425);
#302=LINE('',#1892,#426);
#303=LINE('',#1895,#427);
#304=LINE('',#1900,#428);
#305=LINE('',#1901,#429);
#306=LINE('',#1902,#430);
#307=LINE('',#1905,#431);
#308=LINE('',#1906,#432);
#309=LINE('',#1911,#433);
#310=LINE('',#1915,#434);
#311=LINE('',#1917,#435);
#312=LINE('',#1919,#436);
#313=LINE('',#1921,#437);
#314=LINE('',#1922,#438);
#315=LINE('',#1923,#439);
#316=LINE('',#1926,#440);
#317=LINE('',#1930,#441);
#318=LINE('',#1934,#442);
#319=LINE('',#1938,#443);
#320=LINE('',#1942,#444);
#321=LINE('',#1946,#445);
#322=LINE('',#1947,#446);
#323=LINE('',#1951,#447);
#324=LINE('',#1953,#448);
#325=LINE('',#1960,#449);
#326=LINE('',#1964,#450);
#327=LINE('',#1965,#451);
#328=LINE('',#1968,#452);
#329=LINE('',#1969,#453);
#330=LINE('',#1978,#454);
#331=LINE('',#1982,#455);
#332=LINE('',#1983,#456);
#333=LINE('',#1986,#457);
#334=LINE('',#1987,#458);
#335=LINE('',#1997,#459);
#336=LINE('',#2001,#460);
#337=LINE('',#2005,#461);
#338=LINE('',#2008,#462);
#339=LINE('',#2015,#463);
#340=LINE('',#2017,#464);
#341=LINE('',#2018,#465);
#342=LINE('',#2021,#466);
#343=LINE('',#2025,#467);
#344=LINE('',#2026,#468);
#345=LINE('',#2029,#469);
#346=LINE('',#2033,#470);
#347=LINE('',#2037,#471);
#348=LINE('',#2041,#472);
#349=LINE('',#2045,#473);
#350=LINE('',#2052,#474);
#351=LINE('',#2054,#475);
#352=LINE('',#2056,#476);
#353=LINE('',#2057,#477);
#354=LINE('',#2060,#478);
#355=LINE('',#2063,#479);
#356=LINE('',#2067,#480);
#357=LINE('',#2071,#481);
#358=LINE('',#2075,#482);
#359=LINE('',#2079,#483);
#360=LINE('',#2080,#484);
#361=LINE('',#2082,#485);
#362=LINE('',#2084,#486);
#363=LINE('',#2086,#487);
#364=LINE('',#2088,#488);
#365=LINE('',#2090,#489);
#366=LINE('',#2092,#490);
#367=LINE('',#2095,#491);
#368=LINE('',#2096,#492);
#369=LINE('',#2098,#493);
#370=LINE('',#2100,#494);
#371=LINE('',#2102,#495);
#372=LINE('',#2104,#496);
#373=LINE('',#2106,#497);
#374=LINE('',#2108,#498);
#375=VECTOR('',#1391,10.);
#376=VECTOR('',#1394,10.);
#377=VECTOR('',#1395,10.);
#378=VECTOR('',#1398,10.);
#379=VECTOR('',#1403,10.);
#380=VECTOR('',#1404,10.);
#381=VECTOR('',#1405,10.);
#382=VECTOR('',#1406,10.);
#383=VECTOR('',#1407,10.);
#384=VECTOR('',#1408,10.);
#385=VECTOR('',#1409,10.);
#386=VECTOR('',#1410,10.);
#387=VECTOR('',#1411,10.);
#388=VECTOR('',#1412,10.);
#389=VECTOR('',#1413,10.);
#390=VECTOR('',#1414,10.);
#391=VECTOR('',#1417,10.);
#392=VECTOR('',#1420,10.);
#393=VECTOR('',#1423,10.);
#394=VECTOR('',#1428,10.);
#395=VECTOR('',#1433,10.);
#396=VECTOR('',#1434,10.);
#397=VECTOR('',#1437,10.);
#398=VECTOR('',#1438,10.);
#399=VECTOR('',#1445,10.);
#400=VECTOR('',#1446,10.);
#401=VECTOR('',#1447,10.);
#402=VECTOR('',#1448,10.);
#403=VECTOR('',#1449,10.);
#404=VECTOR('',#1450,10.);
#405=VECTOR('',#1451,10.);
#406=VECTOR('',#1452,10.);
#407=VECTOR('',#1453,10.);
#408=VECTOR('',#1456,10.);
#409=VECTOR('',#1461,10.);
#410=VECTOR('',#1464,10.);
#411=VECTOR('',#1467,10.);
#412=VECTOR('',#1472,10.);
#413=VECTOR('',#1475,10.);
#414=VECTOR('',#1476,10.);
#415=VECTOR('',#1479,10.);
#416=VECTOR('',#1484,10.);
#417=VECTOR('',#1487,10.);
#418=VECTOR('',#1490,10.);
#419=VECTOR('',#1491,10.);
#420=VECTOR('',#1492,10.);
#421=VECTOR('',#1493,10.);
#422=VECTOR('',#1494,10.);
#423=VECTOR('',#1495,10.);
#424=VECTOR('',#1496,10.);
#425=VECTOR('',#1497,10.);
#426=VECTOR('',#1498,10.);
#427=VECTOR('',#1501,1.65);
#428=VECTOR('',#1506,10.);
#429=VECTOR('',#1507,10.);
#430=VECTOR('',#1508,10.);
#431=VECTOR('',#1511,10.);
#432=VECTOR('',#1512,10.);
#433=VECTOR('',#1519,10.);
#434=VECTOR('',#1524,10.);
#435=VECTOR('',#1525,10.);
#436=VECTOR('',#1526,10.);
#437=VECTOR('',#1527,10.);
#438=VECTOR('',#1528,10.);
#439=VECTOR('',#1529,10.);
#440=VECTOR('',#1530,10.);
#441=VECTOR('',#1533,10.);
#442=VECTOR('',#1536,10.);
#443=VECTOR('',#1539,10.);
#444=VECTOR('',#1544,1.65);
#445=VECTOR('',#1549,10.);
#446=VECTOR('',#1550,10.);
#447=VECTOR('',#1555,10.);
#448=VECTOR('',#1558,10.);
#449=VECTOR('',#1569,1.65);
#450=VECTOR('',#1574,10.);
#451=VECTOR('',#1575,10.);
#452=VECTOR('',#1578,10.);
#453=VECTOR('',#1579,10.);
#454=VECTOR('',#1594,1.65);
#455=VECTOR('',#1599,10.);
#456=VECTOR('',#1600,10.);
#457=VECTOR('',#1603,10.);
#458=VECTOR('',#1604,10.);
#459=VECTOR('',#1617,10.);
#460=VECTOR('',#1620,10.);
#461=VECTOR('',#1623,10.);
#462=VECTOR('',#1626,10.);
#463=VECTOR('',#1637,10.);
#464=VECTOR('',#1638,10.);
#465=VECTOR('',#1639,10.);
#466=VECTOR('',#1642,10.);
#467=VECTOR('',#1647,10.);
#468=VECTOR('',#1648,10.);
#469=VECTOR('',#1649,10.);
#470=VECTOR('',#1652,10.);
#471=VECTOR('',#1655,10.);
#472=VECTOR('',#1658,10.);
#473=VECTOR('',#1663,10.);
#474=VECTOR('',#1670,10.);
#475=VECTOR('',#1673,10.);
#476=VECTOR('',#1676,10.);
#477=VECTOR('',#1677,10.);
#478=VECTOR('',#1682,10.);
#479=VECTOR('',#1683,10.);
#480=VECTOR('',#1686,10.);
#481=VECTOR('',#1689,10.);
#482=VECTOR('',#1692,10.);
#483=VECTOR('',#1699,10.);
#484=VECTOR('',#1700,10.);
#485=VECTOR('',#1703,10.);
#486=VECTOR('',#1706,10.);
#487=VECTOR('',#1709,10.);
#488=VECTOR('',#1712,10.);
#489=VECTOR('',#1715,10.);
#490=VECTOR('',#1718,10.);
#491=VECTOR('',#1723,10.);
#492=VECTOR('',#1724,10.);
#493=VECTOR('',#1727,10.);
#494=VECTOR('',#1730,10.);
#495=VECTOR('',#1733,10.);
#496=VECTOR('',#1736,10.);
#497=VECTOR('',#1739,10.);
#498=VECTOR('',#1742,10.);
#499=VERTEX_POINT('',#1751);
#500=VERTEX_POINT('',#1752);
#501=VERTEX_POINT('',#1754);
#502=VERTEX_POINT('',#1756);
#503=VERTEX_POINT('',#1758);
#504=VERTEX_POINT('',#1760);
#505=VERTEX_POINT('',#1763);
#506=VERTEX_POINT('',#1766);
#507=VERTEX_POINT('',#1768);
#508=VERTEX_POINT('',#1770);
#509=VERTEX_POINT('',#1772);
#510=VERTEX_POINT('',#1774);
#511=VERTEX_POINT('',#1776);
#512=VERTEX_POINT('',#1778);
#513=VERTEX_POINT('',#1780);
#514=VERTEX_POINT('',#1782);
#515=VERTEX_POINT('',#1784);
#516=VERTEX_POINT('',#1787);
#517=VERTEX_POINT('',#1788);
#518=VERTEX_POINT('',#1790);
#519=VERTEX_POINT('',#1792);
#520=VERTEX_POINT('',#1794);
#521=VERTEX_POINT('',#1796);
#522=VERTEX_POINT('',#1798);
#523=VERTEX_POINT('',#1800);
#524=VERTEX_POINT('',#1804);
#525=VERTEX_POINT('',#1808);
#526=VERTEX_POINT('',#1809);
#527=VERTEX_POINT('',#1811);
#528=VERTEX_POINT('',#1813);
#529=VERTEX_POINT('',#1815);
#530=VERTEX_POINT('',#1817);
#531=VERTEX_POINT('',#1820);
#532=VERTEX_POINT('',#1823);
#533=VERTEX_POINT('',#1825);
#534=VERTEX_POINT('',#1827);
#535=VERTEX_POINT('',#1829);
#536=VERTEX_POINT('',#1831);
#537=VERTEX_POINT('',#1833);
#538=VERTEX_POINT('',#1836);
#539=VERTEX_POINT('',#1840);
#540=VERTEX_POINT('',#1844);
#541=VERTEX_POINT('',#1845);
#542=VERTEX_POINT('',#1847);
#543=VERTEX_POINT('',#1850);
#544=VERTEX_POINT('',#1853);
#545=VERTEX_POINT('',#1856);
#546=VERTEX_POINT('',#1857);
#547=VERTEX_POINT('',#1859);
#548=VERTEX_POINT('',#1861);
#549=VERTEX_POINT('',#1863);
#550=VERTEX_POINT('',#1865);
#551=VERTEX_POINT('',#1868);
#552=VERTEX_POINT('',#1871);
#553=VERTEX_POINT('',#1873);
#554=VERTEX_POINT('',#1877);
#555=VERTEX_POINT('',#1880);
#556=VERTEX_POINT('',#1882);
#557=VERTEX_POINT('',#1884);
#558=VERTEX_POINT('',#1886);
#559=VERTEX_POINT('',#1888);
#560=VERTEX_POINT('',#1890);
#561=VERTEX_POINT('',#1894);
#562=VERTEX_POINT('',#1898);
#563=VERTEX_POINT('',#1899);
#564=VERTEX_POINT('',#1904);
#565=VERTEX_POINT('',#1910);
#566=VERTEX_POINT('',#1914);
#567=VERTEX_POINT('',#1916);
#568=VERTEX_POINT('',#1918);
#569=VERTEX_POINT('',#1920);
#570=VERTEX_POINT('',#1924);
#571=VERTEX_POINT('',#1925);
#572=VERTEX_POINT('',#1927);
#573=VERTEX_POINT('',#1929);
#574=VERTEX_POINT('',#1931);
#575=VERTEX_POINT('',#1933);
#576=VERTEX_POINT('',#1935);
#577=VERTEX_POINT('',#1937);
#578=VERTEX_POINT('',#1941);
#579=VERTEX_POINT('',#1945);
#580=VERTEX_POINT('',#1949);
#581=VERTEX_POINT('',#1959);
#582=VERTEX_POINT('',#1963);
#583=VERTEX_POINT('',#1967);
#584=VERTEX_POINT('',#1977);
#585=VERTEX_POINT('',#1981);
#586=VERTEX_POINT('',#1985);
#587=VERTEX_POINT('',#1993);
#588=VERTEX_POINT('',#1994);
#589=VERTEX_POINT('',#1996);
#590=VERTEX_POINT('',#1998);
#591=VERTEX_POINT('',#2000);
#592=VERTEX_POINT('',#2002);
#593=VERTEX_POINT('',#2004);
#594=VERTEX_POINT('',#2006);
#595=VERTEX_POINT('',#2014);
#596=VERTEX_POINT('',#2016);
#597=VERTEX_POINT('',#2020);
#598=VERTEX_POINT('',#2024);
#599=VERTEX_POINT('',#2027);
#600=VERTEX_POINT('',#2028);
#601=VERTEX_POINT('',#2030);
#602=VERTEX_POINT('',#2032);
#603=VERTEX_POINT('',#2034);
#604=VERTEX_POINT('',#2036);
#605=VERTEX_POINT('',#2038);
#606=VERTEX_POINT('',#2040);
#607=VERTEX_POINT('',#2044);
#608=VERTEX_POINT('',#2048);
#609=VERTEX_POINT('',#2049);
#610=VERTEX_POINT('',#2051);
#611=VERTEX_POINT('',#2061);
#612=VERTEX_POINT('',#2062);
#613=VERTEX_POINT('',#2064);
#614=VERTEX_POINT('',#2066);
#615=VERTEX_POINT('',#2068);
#616=VERTEX_POINT('',#2070);
#617=VERTEX_POINT('',#2072);
#618=VERTEX_POINT('',#2074);
#619=EDGE_CURVE('',#499,#500,#251,.T.);
#620=EDGE_CURVE('',#500,#501,#195,.T.);
#621=EDGE_CURVE('',#501,#502,#252,.T.);
#622=EDGE_CURVE('',#503,#502,#253,.F.);
#623=EDGE_CURVE('',#504,#503,#196,.F.);
#624=EDGE_CURVE('',#499,#504,#254,.F.);
#625=EDGE_CURVE('',#505,#505,#197,.F.);
#626=EDGE_CURVE('',#506,#499,#255,.T.);
#627=EDGE_CURVE('',#507,#504,#256,.T.);
#628=EDGE_CURVE('',#508,#507,#257,.T.);
#629=EDGE_CURVE('',#508,#509,#258,.T.);
#630=EDGE_CURVE('',#509,#510,#259,.T.);
#631=EDGE_CURVE('',#510,#511,#260,.T.);
#632=EDGE_CURVE('',#511,#512,#261,.F.);
#633=EDGE_CURVE('',#512,#513,#262,.T.);
#634=EDGE_CURVE('',#513,#514,#263,.T.);
#635=EDGE_CURVE('',#515,#514,#264,.T.);
#636=EDGE_CURVE('',#515,#506,#265,.F.);
#637=EDGE_CURVE('',#516,#517,#266,.T.);
#638=EDGE_CURVE('',#517,#518,#198,.T.);
#639=EDGE_CURVE('',#518,#519,#267,.T.);
#640=EDGE_CURVE('',#519,#520,#199,.T.);
#641=EDGE_CURVE('',#520,#521,#268,.T.);
#642=EDGE_CURVE('',#521,#522,#200,.T.);
#643=EDGE_CURVE('',#522,#523,#269,.T.);
#644=EDGE_CURVE('',#523,#516,#201,.T.);
#645=EDGE_CURVE('',#524,#503,#270,.T.);
#646=EDGE_CURVE('',#507,#524,#202,.T.);
#647=EDGE_CURVE('',#525,#526,#271,.T.);
#648=EDGE_CURVE('',#525,#527,#272,.T.);
#649=EDGE_CURVE('',#527,#528,#203,.T.);
#650=EDGE_CURVE('',#528,#529,#273,.T.);
#651=EDGE_CURVE('',#530,#529,#274,.T.);
#652=EDGE_CURVE('',#526,#530,#204,.T.);
#653=EDGE_CURVE('',#531,#531,#205,.T.);
#654=EDGE_CURVE('',#502,#532,#275,.T.);
#655=EDGE_CURVE('',#532,#533,#276,.F.);
#656=EDGE_CURVE('',#533,#534,#277,.T.);
#657=EDGE_CURVE('',#534,#535,#278,.T.);
#658=EDGE_CURVE('',#536,#535,#279,.T.);
#659=EDGE_CURVE('',#536,#537,#280,.F.);
#660=EDGE_CURVE('',#537,#525,#281,.T.);
#661=EDGE_CURVE('',#538,#526,#282,.T.);
#662=EDGE_CURVE('',#524,#538,#283,.T.);
#663=EDGE_CURVE('',#539,#530,#284,.T.);
#664=EDGE_CURVE('',#538,#539,#206,.T.);
#665=EDGE_CURVE('',#540,#541,#285,.T.);
#666=EDGE_CURVE('',#541,#542,#207,.T.);
#667=EDGE_CURVE('',#542,#510,#286,.T.);
#668=EDGE_CURVE('',#543,#509,#208,.T.);
#669=EDGE_CURVE('',#540,#543,#287,.T.);
#670=EDGE_CURVE('',#544,#544,#209,.T.);
#671=EDGE_CURVE('',#545,#546,#288,.T.);
#672=EDGE_CURVE('',#546,#547,#210,.T.);
#673=EDGE_CURVE('',#547,#548,#289,.T.);
#674=EDGE_CURVE('',#549,#548,#290,.T.);
#675=EDGE_CURVE('',#550,#549,#211,.T.);
#676=EDGE_CURVE('',#545,#550,#291,.T.);
#677=EDGE_CURVE('',#551,#551,#212,.T.);
#678=EDGE_CURVE('',#549,#552,#292,.T.);
#679=EDGE_CURVE('',#553,#552,#213,.T.);
#680=EDGE_CURVE('',#550,#553,#293,.T.);
#681=EDGE_CURVE('',#543,#554,#294,.T.);
#682=EDGE_CURVE('',#552,#554,#295,.T.);
#683=EDGE_CURVE('',#548,#555,#296,.T.);
#684=EDGE_CURVE('',#555,#556,#297,.F.);
#685=EDGE_CURVE('',#557,#556,#298,.T.);
#686=EDGE_CURVE('',#557,#558,#299,.T.);
#687=EDGE_CURVE('',#558,#559,#300,.T.);
#688=EDGE_CURVE('',#559,#560,#301,.F.);
#689=EDGE_CURVE('',#560,#540,#302,.T.);
#690=EDGE_CURVE('',#551,#561,#303,.T.);
#691=EDGE_CURVE('',#561,#561,#214,.T.);
#692=EDGE_CURVE('',#562,#563,#304,.T.);
#693=EDGE_CURVE('',#562,#546,#305,.T.);
#694=EDGE_CURVE('',#563,#545,#306,.T.);
#695=EDGE_CURVE('',#564,#555,#307,.F.);
#696=EDGE_CURVE('',#564,#547,#308,.T.);
#697=EDGE_CURVE('',#562,#564,#215,.F.);
#698=EDGE_CURVE('',#565,#563,#309,.F.);
#699=EDGE_CURVE('',#556,#565,#216,.F.);
#700=EDGE_CURVE('',#529,#566,#310,.T.);
#701=EDGE_CURVE('',#566,#567,#311,.F.);
#702=EDGE_CURVE('',#567,#568,#312,.T.);
#703=EDGE_CURVE('',#568,#569,#313,.T.);
#704=EDGE_CURVE('',#569,#565,#314,.T.);
#705=EDGE_CURVE('',#539,#553,#315,.T.);
#706=EDGE_CURVE('',#570,#571,#316,.T.);
#707=EDGE_CURVE('',#571,#572,#217,.T.);
#708=EDGE_CURVE('',#572,#573,#317,.T.);
#709=EDGE_CURVE('',#573,#574,#218,.T.);
#710=EDGE_CURVE('',#574,#575,#318,.T.);
#711=EDGE_CURVE('',#575,#576,#219,.T.);
#712=EDGE_CURVE('',#576,#577,#319,.T.);
#713=EDGE_CURVE('',#577,#570,#220,.T.);
#714=EDGE_CURVE('',#531,#578,#320,.T.);
#715=EDGE_CURVE('',#578,#578,#221,.T.);
#716=EDGE_CURVE('',#579,#566,#321,.F.);
#717=EDGE_CURVE('',#579,#528,#322,.T.);
#718=EDGE_CURVE('',#580,#579,#222,.F.);
#719=EDGE_CURVE('',#580,#527,#323,.T.);
#720=EDGE_CURVE('',#537,#580,#324,.F.);
#721=EDGE_CURVE('',#567,#536,#223,.F.);
#722=EDGE_CURVE('',#535,#568,#224,.T.);
#723=EDGE_CURVE('',#544,#581,#325,.T.);
#724=EDGE_CURVE('',#581,#581,#225,.T.);
#725=EDGE_CURVE('',#582,#560,#326,.T.);
#726=EDGE_CURVE('',#582,#541,#327,.T.);
#727=EDGE_CURVE('',#583,#511,#328,.F.);
#728=EDGE_CURVE('',#583,#542,#329,.T.);
#729=EDGE_CURVE('',#582,#583,#226,.F.);
#730=EDGE_CURVE('',#512,#559,#227,.F.);
#731=EDGE_CURVE('',#554,#508,#228,.T.);
#732=EDGE_CURVE('',#505,#584,#330,.T.);
#733=EDGE_CURVE('',#584,#584,#229,.T.);
#734=EDGE_CURVE('',#585,#506,#331,.T.);
#735=EDGE_CURVE('',#585,#500,#332,.T.);
#736=EDGE_CURVE('',#586,#532,#333,.F.);
#737=EDGE_CURVE('',#586,#501,#334,.T.);
#738=EDGE_CURVE('',#585,#586,#230,.F.);
#739=EDGE_CURVE('',#533,#515,#231,.F.);
#740=EDGE_CURVE('',#587,#588,#232,.T.);
#741=EDGE_CURVE('',#589,#587,#335,.T.);
#742=EDGE_CURVE('',#590,#589,#233,.T.);
#743=EDGE_CURVE('',#591,#590,#336,.T.);
#744=EDGE_CURVE('',#592,#591,#234,.T.);
#745=EDGE_CURVE('',#593,#592,#337,.T.);
#746=EDGE_CURVE('',#594,#593,#235,.T.);
#747=EDGE_CURVE('',#588,#594,#338,.T.);
#748=EDGE_CURVE('',#558,#513,#236,.T.);
#749=EDGE_CURVE('',#569,#557,#237,.T.);
#750=EDGE_CURVE('',#514,#534,#238,.T.);
#751=EDGE_CURVE('',#595,#592,#339,.T.);
#752=EDGE_CURVE('',#596,#595,#340,.T.);
#753=EDGE_CURVE('',#596,#593,#341,.T.);
#754=EDGE_CURVE('',#597,#591,#342,.T.);
#755=EDGE_CURVE('',#595,#597,#239,.T.);
#756=EDGE_CURVE('',#590,#598,#343,.T.);
#757=EDGE_CURVE('',#597,#598,#344,.T.);
#758=EDGE_CURVE('',#599,#600,#345,.T.);
#759=EDGE_CURVE('',#600,#601,#240,.T.);
#760=EDGE_CURVE('',#601,#602,#346,.T.);
#761=EDGE_CURVE('',#602,#603,#241,.T.);
#762=EDGE_CURVE('',#603,#604,#347,.T.);
#763=EDGE_CURVE('',#604,#605,#242,.T.);
#764=EDGE_CURVE('',#605,#606,#348,.T.);
#765=EDGE_CURVE('',#606,#599,#243,.T.);
#766=EDGE_CURVE('',#589,#607,#349,.T.);
#767=EDGE_CURVE('',#598,#607,#244,.T.);
#768=EDGE_CURVE('',#608,#609,#245,.T.);
#769=EDGE_CURVE('',#609,#610,#350,.T.);
#770=EDGE_CURVE('',#610,#596,#246,.T.);
#771=EDGE_CURVE('',#607,#608,#351,.T.);
#772=EDGE_CURVE('',#588,#609,#352,.T.);
#773=EDGE_CURVE('',#587,#608,#353,.T.);
#774=EDGE_CURVE('',#610,#594,#354,.T.);
#775=EDGE_CURVE('',#611,#612,#355,.T.);
#776=EDGE_CURVE('',#612,#613,#247,.T.);
#777=EDGE_CURVE('',#613,#614,#356,.T.);
#778=EDGE_CURVE('',#614,#615,#248,.T.);
#779=EDGE_CURVE('',#615,#616,#357,.T.);
#780=EDGE_CURVE('',#616,#617,#249,.T.);
#781=EDGE_CURVE('',#617,#618,#358,.T.);
#782=EDGE_CURVE('',#618,#611,#250,.T.);
#783=EDGE_CURVE('',#601,#577,#359,.T.);
#784=EDGE_CURVE('',#600,#570,#360,.T.);
#785=EDGE_CURVE('',#602,#576,#361,.T.);
#786=EDGE_CURVE('',#603,#575,#362,.T.);
#787=EDGE_CURVE('',#604,#574,#363,.T.);
#788=EDGE_CURVE('',#605,#573,#364,.T.);
#789=EDGE_CURVE('',#606,#572,#365,.T.);
#790=EDGE_CURVE('',#599,#571,#366,.T.);
#791=EDGE_CURVE('',#613,#523,#367,.T.);
#792=EDGE_CURVE('',#612,#516,#368,.T.);
#793=EDGE_CURVE('',#614,#522,#369,.T.);
#794=EDGE_CURVE('',#615,#521,#370,.T.);
#795=EDGE_CURVE('',#616,#520,#371,.T.);
#796=EDGE_CURVE('',#617,#519,#372,.T.);
#797=EDGE_CURVE('',#618,#518,#373,.T.);
#798=EDGE_CURVE('',#611,#517,#374,.T.);
#799=ORIENTED_EDGE('',*,*,#619,.T.);
#800=ORIENTED_EDGE('',*,*,#620,.T.);
#801=ORIENTED_EDGE('',*,*,#621,.T.);
#802=ORIENTED_EDGE('',*,*,#622,.F.);
#803=ORIENTED_EDGE('',*,*,#623,.F.);
#804=ORIENTED_EDGE('',*,*,#624,.F.);
#805=ORIENTED_EDGE('',*,*,#625,.T.);
#806=ORIENTED_EDGE('',*,*,#626,.T.);
#807=ORIENTED_EDGE('',*,*,#624,.T.);
#808=ORIENTED_EDGE('',*,*,#627,.F.);
#809=ORIENTED_EDGE('',*,*,#628,.F.);
#810=ORIENTED_EDGE('',*,*,#629,.T.);
#811=ORIENTED_EDGE('',*,*,#630,.T.);
#812=ORIENTED_EDGE('',*,*,#631,.T.);
#813=ORIENTED_EDGE('',*,*,#632,.T.);
#814=ORIENTED_EDGE('',*,*,#633,.T.);
#815=ORIENTED_EDGE('',*,*,#634,.T.);
#816=ORIENTED_EDGE('',*,*,#635,.F.);
#817=ORIENTED_EDGE('',*,*,#636,.T.);
#818=ORIENTED_EDGE('',*,*,#637,.T.);
#819=ORIENTED_EDGE('',*,*,#638,.T.);
#820=ORIENTED_EDGE('',*,*,#639,.T.);
#821=ORIENTED_EDGE('',*,*,#640,.T.);
#822=ORIENTED_EDGE('',*,*,#641,.T.);
#823=ORIENTED_EDGE('',*,*,#642,.T.);
#824=ORIENTED_EDGE('',*,*,#643,.T.);
#825=ORIENTED_EDGE('',*,*,#644,.T.);
#826=ORIENTED_EDGE('',*,*,#623,.T.);
#827=ORIENTED_EDGE('',*,*,#645,.F.);
#828=ORIENTED_EDGE('',*,*,#646,.F.);
#829=ORIENTED_EDGE('',*,*,#627,.T.);
#830=ORIENTED_EDGE('',*,*,#647,.F.);
#831=ORIENTED_EDGE('',*,*,#648,.T.);
#832=ORIENTED_EDGE('',*,*,#649,.T.);
#833=ORIENTED_EDGE('',*,*,#650,.T.);
#834=ORIENTED_EDGE('',*,*,#651,.F.);
#835=ORIENTED_EDGE('',*,*,#652,.F.);
#836=ORIENTED_EDGE('',*,*,#653,.T.);
#837=ORIENTED_EDGE('',*,*,#654,.T.);
#838=ORIENTED_EDGE('',*,*,#655,.T.);
#839=ORIENTED_EDGE('',*,*,#656,.T.);
#840=ORIENTED_EDGE('',*,*,#657,.T.);
#841=ORIENTED_EDGE('',*,*,#658,.F.);
#842=ORIENTED_EDGE('',*,*,#659,.T.);
#843=ORIENTED_EDGE('',*,*,#660,.T.);
#844=ORIENTED_EDGE('',*,*,#647,.T.);
#845=ORIENTED_EDGE('',*,*,#661,.F.);
#846=ORIENTED_EDGE('',*,*,#662,.F.);
#847=ORIENTED_EDGE('',*,*,#645,.T.);
#848=ORIENTED_EDGE('',*,*,#622,.T.);
#849=ORIENTED_EDGE('',*,*,#652,.T.);
#850=ORIENTED_EDGE('',*,*,#663,.F.);
#851=ORIENTED_EDGE('',*,*,#664,.F.);
#852=ORIENTED_EDGE('',*,*,#661,.T.);
#853=ORIENTED_EDGE('',*,*,#665,.T.);
#854=ORIENTED_EDGE('',*,*,#666,.T.);
#855=ORIENTED_EDGE('',*,*,#667,.T.);
#856=ORIENTED_EDGE('',*,*,#630,.F.);
#857=ORIENTED_EDGE('',*,*,#668,.F.);
#858=ORIENTED_EDGE('',*,*,#669,.F.);
#859=ORIENTED_EDGE('',*,*,#670,.T.);
#860=ORIENTED_EDGE('',*,*,#671,.T.);
#861=ORIENTED_EDGE('',*,*,#672,.T.);
#862=ORIENTED_EDGE('',*,*,#673,.T.);
#863=ORIENTED_EDGE('',*,*,#674,.F.);
#864=ORIENTED_EDGE('',*,*,#675,.F.);
#865=ORIENTED_EDGE('',*,*,#676,.F.);
#866=ORIENTED_EDGE('',*,*,#677,.T.);
#867=ORIENTED_EDGE('',*,*,#675,.T.);
#868=ORIENTED_EDGE('',*,*,#678,.T.);
#869=ORIENTED_EDGE('',*,*,#679,.F.);
#870=ORIENTED_EDGE('',*,*,#680,.F.);
#871=ORIENTED_EDGE('',*,*,#669,.T.);
#872=ORIENTED_EDGE('',*,*,#681,.T.);
#873=ORIENTED_EDGE('',*,*,#682,.F.);
#874=ORIENTED_EDGE('',*,*,#678,.F.);
#875=ORIENTED_EDGE('',*,*,#674,.T.);
#876=ORIENTED_EDGE('',*,*,#683,.T.);
#877=ORIENTED_EDGE('',*,*,#684,.T.);
#878=ORIENTED_EDGE('',*,*,#685,.F.);
#879=ORIENTED_EDGE('',*,*,#686,.T.);
#880=ORIENTED_EDGE('',*,*,#687,.T.);
#881=ORIENTED_EDGE('',*,*,#688,.T.);
#882=ORIENTED_EDGE('',*,*,#689,.T.);
#883=ORIENTED_EDGE('',*,*,#677,.F.);
#884=ORIENTED_EDGE('',*,*,#690,.T.);
#885=ORIENTED_EDGE('',*,*,#691,.T.);
#886=ORIENTED_EDGE('',*,*,#690,.F.);
#887=ORIENTED_EDGE('',*,*,#692,.F.);
#888=ORIENTED_EDGE('',*,*,#693,.T.);
#889=ORIENTED_EDGE('',*,*,#671,.F.);
#890=ORIENTED_EDGE('',*,*,#694,.F.);
#891=ORIENTED_EDGE('',*,*,#695,.T.);
#892=ORIENTED_EDGE('',*,*,#683,.F.);
#893=ORIENTED_EDGE('',*,*,#673,.F.);
#894=ORIENTED_EDGE('',*,*,#696,.F.);
#895=ORIENTED_EDGE('',*,*,#697,.T.);
#896=ORIENTED_EDGE('',*,*,#696,.T.);
#897=ORIENTED_EDGE('',*,*,#672,.F.);
#898=ORIENTED_EDGE('',*,*,#693,.F.);
#899=ORIENTED_EDGE('',*,*,#697,.F.);
#900=ORIENTED_EDGE('',*,*,#692,.T.);
#901=ORIENTED_EDGE('',*,*,#698,.F.);
#902=ORIENTED_EDGE('',*,*,#699,.F.);
#903=ORIENTED_EDGE('',*,*,#684,.F.);
#904=ORIENTED_EDGE('',*,*,#695,.F.);
#905=ORIENTED_EDGE('',*,*,#691,.F.);
#906=ORIENTED_EDGE('',*,*,#700,.T.);
#907=ORIENTED_EDGE('',*,*,#701,.T.);
#908=ORIENTED_EDGE('',*,*,#702,.T.);
#909=ORIENTED_EDGE('',*,*,#703,.T.);
#910=ORIENTED_EDGE('',*,*,#704,.T.);
#911=ORIENTED_EDGE('',*,*,#698,.T.);
#912=ORIENTED_EDGE('',*,*,#694,.T.);
#913=ORIENTED_EDGE('',*,*,#676,.T.);
#914=ORIENTED_EDGE('',*,*,#680,.T.);
#915=ORIENTED_EDGE('',*,*,#705,.F.);
#916=ORIENTED_EDGE('',*,*,#663,.T.);
#917=ORIENTED_EDGE('',*,*,#651,.T.);
#918=ORIENTED_EDGE('',*,*,#706,.T.);
#919=ORIENTED_EDGE('',*,*,#707,.T.);
#920=ORIENTED_EDGE('',*,*,#708,.T.);
#921=ORIENTED_EDGE('',*,*,#709,.T.);
#922=ORIENTED_EDGE('',*,*,#710,.T.);
#923=ORIENTED_EDGE('',*,*,#711,.T.);
#924=ORIENTED_EDGE('',*,*,#712,.T.);
#925=ORIENTED_EDGE('',*,*,#713,.T.);
#926=ORIENTED_EDGE('',*,*,#653,.F.);
#927=ORIENTED_EDGE('',*,*,#714,.T.);
#928=ORIENTED_EDGE('',*,*,#715,.T.);
#929=ORIENTED_EDGE('',*,*,#714,.F.);
#930=ORIENTED_EDGE('',*,*,#716,.T.);
#931=ORIENTED_EDGE('',*,*,#700,.F.);
#932=ORIENTED_EDGE('',*,*,#650,.F.);
#933=ORIENTED_EDGE('',*,*,#717,.F.);
#934=ORIENTED_EDGE('',*,*,#718,.T.);
#935=ORIENTED_EDGE('',*,*,#717,.T.);
#936=ORIENTED_EDGE('',*,*,#649,.F.);
#937=ORIENTED_EDGE('',*,*,#719,.F.);
#938=ORIENTED_EDGE('',*,*,#720,.T.);
#939=ORIENTED_EDGE('',*,*,#719,.T.);
#940=ORIENTED_EDGE('',*,*,#648,.F.);
#941=ORIENTED_EDGE('',*,*,#660,.F.);
#942=ORIENTED_EDGE('',*,*,#720,.F.);
#943=ORIENTED_EDGE('',*,*,#659,.F.);
#944=ORIENTED_EDGE('',*,*,#721,.F.);
#945=ORIENTED_EDGE('',*,*,#701,.F.);
#946=ORIENTED_EDGE('',*,*,#716,.F.);
#947=ORIENTED_EDGE('',*,*,#718,.F.);
#948=ORIENTED_EDGE('',*,*,#715,.F.);
#949=ORIENTED_EDGE('',*,*,#721,.T.);
#950=ORIENTED_EDGE('',*,*,#658,.T.);
#951=ORIENTED_EDGE('',*,*,#722,.T.);
#952=ORIENTED_EDGE('',*,*,#702,.F.);
#953=ORIENTED_EDGE('',*,*,#670,.F.);
#954=ORIENTED_EDGE('',*,*,#723,.T.);
#955=ORIENTED_EDGE('',*,*,#724,.T.);
#956=ORIENTED_EDGE('',*,*,#723,.F.);
#957=ORIENTED_EDGE('',*,*,#725,.F.);
#958=ORIENTED_EDGE('',*,*,#726,.T.);
#959=ORIENTED_EDGE('',*,*,#665,.F.);
#960=ORIENTED_EDGE('',*,*,#689,.F.);
#961=ORIENTED_EDGE('',*,*,#727,.T.);
#962=ORIENTED_EDGE('',*,*,#631,.F.);
#963=ORIENTED_EDGE('',*,*,#667,.F.);
#964=ORIENTED_EDGE('',*,*,#728,.F.);
#965=ORIENTED_EDGE('',*,*,#729,.T.);
#966=ORIENTED_EDGE('',*,*,#728,.T.);
#967=ORIENTED_EDGE('',*,*,#666,.F.);
#968=ORIENTED_EDGE('',*,*,#726,.F.);
#969=ORIENTED_EDGE('',*,*,#729,.F.);
#970=ORIENTED_EDGE('',*,*,#725,.T.);
#971=ORIENTED_EDGE('',*,*,#688,.F.);
#972=ORIENTED_EDGE('',*,*,#730,.F.);
#973=ORIENTED_EDGE('',*,*,#632,.F.);
#974=ORIENTED_EDGE('',*,*,#727,.F.);
#975=ORIENTED_EDGE('',*,*,#724,.F.);
#976=ORIENTED_EDGE('',*,*,#668,.T.);
#977=ORIENTED_EDGE('',*,*,#629,.F.);
#978=ORIENTED_EDGE('',*,*,#731,.F.);
#979=ORIENTED_EDGE('',*,*,#681,.F.);
#980=ORIENTED_EDGE('',*,*,#625,.F.);
#981=ORIENTED_EDGE('',*,*,#732,.T.);
#982=ORIENTED_EDGE('',*,*,#733,.T.);
#983=ORIENTED_EDGE('',*,*,#732,.F.);
#984=ORIENTED_EDGE('',*,*,#734,.F.);
#985=ORIENTED_EDGE('',*,*,#735,.T.);
#986=ORIENTED_EDGE('',*,*,#619,.F.);
#987=ORIENTED_EDGE('',*,*,#626,.F.);
#988=ORIENTED_EDGE('',*,*,#736,.T.);
#989=ORIENTED_EDGE('',*,*,#654,.F.);
#990=ORIENTED_EDGE('',*,*,#621,.F.);
#991=ORIENTED_EDGE('',*,*,#737,.F.);
#992=ORIENTED_EDGE('',*,*,#738,.T.);
#993=ORIENTED_EDGE('',*,*,#737,.T.);
#994=ORIENTED_EDGE('',*,*,#620,.F.);
#995=ORIENTED_EDGE('',*,*,#735,.F.);
#996=ORIENTED_EDGE('',*,*,#738,.F.);
#997=ORIENTED_EDGE('',*,*,#734,.T.);
#998=ORIENTED_EDGE('',*,*,#636,.F.);
#999=ORIENTED_EDGE('',*,*,#739,.F.);
#1000=ORIENTED_EDGE('',*,*,#655,.F.);
#1001=ORIENTED_EDGE('',*,*,#736,.F.);
#1002=ORIENTED_EDGE('',*,*,#733,.F.);
#1003=ORIENTED_EDGE('',*,*,#740,.F.);
#1004=ORIENTED_EDGE('',*,*,#741,.F.);
#1005=ORIENTED_EDGE('',*,*,#742,.F.);
#1006=ORIENTED_EDGE('',*,*,#743,.F.);
#1007=ORIENTED_EDGE('',*,*,#744,.F.);
#1008=ORIENTED_EDGE('',*,*,#745,.F.);
#1009=ORIENTED_EDGE('',*,*,#746,.F.);
#1010=ORIENTED_EDGE('',*,*,#747,.F.);
#1011=ORIENTED_EDGE('',*,*,#748,.F.);
#1012=ORIENTED_EDGE('',*,*,#686,.F.);
#1013=ORIENTED_EDGE('',*,*,#749,.F.);
#1014=ORIENTED_EDGE('',*,*,#703,.F.);
#1015=ORIENTED_EDGE('',*,*,#722,.F.);
#1016=ORIENTED_EDGE('',*,*,#657,.F.);
#1017=ORIENTED_EDGE('',*,*,#750,.F.);
#1018=ORIENTED_EDGE('',*,*,#634,.F.);
#1019=ORIENTED_EDGE('',*,*,#699,.T.);
#1020=ORIENTED_EDGE('',*,*,#704,.F.);
#1021=ORIENTED_EDGE('',*,*,#749,.T.);
#1022=ORIENTED_EDGE('',*,*,#685,.T.);
#1023=ORIENTED_EDGE('',*,*,#745,.T.);
#1024=ORIENTED_EDGE('',*,*,#751,.F.);
#1025=ORIENTED_EDGE('',*,*,#752,.F.);
#1026=ORIENTED_EDGE('',*,*,#753,.T.);
#1027=ORIENTED_EDGE('',*,*,#744,.T.);
#1028=ORIENTED_EDGE('',*,*,#754,.F.);
#1029=ORIENTED_EDGE('',*,*,#755,.F.);
#1030=ORIENTED_EDGE('',*,*,#751,.T.);
#1031=ORIENTED_EDGE('',*,*,#743,.T.);
#1032=ORIENTED_EDGE('',*,*,#756,.T.);
#1033=ORIENTED_EDGE('',*,*,#757,.F.);
#1034=ORIENTED_EDGE('',*,*,#754,.T.);
#1035=ORIENTED_EDGE('',*,*,#758,.T.);
#1036=ORIENTED_EDGE('',*,*,#759,.T.);
#1037=ORIENTED_EDGE('',*,*,#760,.T.);
#1038=ORIENTED_EDGE('',*,*,#761,.T.);
#1039=ORIENTED_EDGE('',*,*,#762,.T.);
#1040=ORIENTED_EDGE('',*,*,#763,.T.);
#1041=ORIENTED_EDGE('',*,*,#764,.T.);
#1042=ORIENTED_EDGE('',*,*,#765,.T.);
#1043=ORIENTED_EDGE('',*,*,#742,.T.);
#1044=ORIENTED_EDGE('',*,*,#766,.T.);
#1045=ORIENTED_EDGE('',*,*,#767,.F.);
#1046=ORIENTED_EDGE('',*,*,#756,.F.);
#1047=ORIENTED_EDGE('',*,*,#768,.T.);
#1048=ORIENTED_EDGE('',*,*,#769,.T.);
#1049=ORIENTED_EDGE('',*,*,#770,.T.);
#1050=ORIENTED_EDGE('',*,*,#752,.T.);
#1051=ORIENTED_EDGE('',*,*,#755,.T.);
#1052=ORIENTED_EDGE('',*,*,#757,.T.);
#1053=ORIENTED_EDGE('',*,*,#767,.T.);
#1054=ORIENTED_EDGE('',*,*,#771,.T.);
#1055=ORIENTED_EDGE('',*,*,#664,.T.);
#1056=ORIENTED_EDGE('',*,*,#705,.T.);
#1057=ORIENTED_EDGE('',*,*,#679,.T.);
#1058=ORIENTED_EDGE('',*,*,#682,.T.);
#1059=ORIENTED_EDGE('',*,*,#731,.T.);
#1060=ORIENTED_EDGE('',*,*,#628,.T.);
#1061=ORIENTED_EDGE('',*,*,#646,.T.);
#1062=ORIENTED_EDGE('',*,*,#662,.T.);
#1063=ORIENTED_EDGE('',*,*,#740,.T.);
#1064=ORIENTED_EDGE('',*,*,#772,.T.);
#1065=ORIENTED_EDGE('',*,*,#768,.F.);
#1066=ORIENTED_EDGE('',*,*,#773,.F.);
#1067=ORIENTED_EDGE('',*,*,#741,.T.);
#1068=ORIENTED_EDGE('',*,*,#773,.T.);
#1069=ORIENTED_EDGE('',*,*,#771,.F.);
#1070=ORIENTED_EDGE('',*,*,#766,.F.);
#1071=ORIENTED_EDGE('',*,*,#747,.T.);
#1072=ORIENTED_EDGE('',*,*,#774,.F.);
#1073=ORIENTED_EDGE('',*,*,#769,.F.);
#1074=ORIENTED_EDGE('',*,*,#772,.F.);
#1075=ORIENTED_EDGE('',*,*,#775,.T.);
#1076=ORIENTED_EDGE('',*,*,#776,.T.);
#1077=ORIENTED_EDGE('',*,*,#777,.T.);
#1078=ORIENTED_EDGE('',*,*,#778,.T.);
#1079=ORIENTED_EDGE('',*,*,#779,.T.);
#1080=ORIENTED_EDGE('',*,*,#780,.T.);
#1081=ORIENTED_EDGE('',*,*,#781,.T.);
#1082=ORIENTED_EDGE('',*,*,#782,.T.);
#1083=ORIENTED_EDGE('',*,*,#730,.T.);
#1084=ORIENTED_EDGE('',*,*,#687,.F.);
#1085=ORIENTED_EDGE('',*,*,#748,.T.);
#1086=ORIENTED_EDGE('',*,*,#633,.F.);
#1087=ORIENTED_EDGE('',*,*,#713,.F.);
#1088=ORIENTED_EDGE('',*,*,#783,.F.);
#1089=ORIENTED_EDGE('',*,*,#759,.F.);
#1090=ORIENTED_EDGE('',*,*,#784,.T.);
#1091=ORIENTED_EDGE('',*,*,#712,.F.);
#1092=ORIENTED_EDGE('',*,*,#785,.F.);
#1093=ORIENTED_EDGE('',*,*,#760,.F.);
#1094=ORIENTED_EDGE('',*,*,#783,.T.);
#1095=ORIENTED_EDGE('',*,*,#711,.F.);
#1096=ORIENTED_EDGE('',*,*,#786,.F.);
#1097=ORIENTED_EDGE('',*,*,#761,.F.);
#1098=ORIENTED_EDGE('',*,*,#785,.T.);
#1099=ORIENTED_EDGE('',*,*,#710,.F.);
#1100=ORIENTED_EDGE('',*,*,#787,.F.);
#1101=ORIENTED_EDGE('',*,*,#762,.F.);
#1102=ORIENTED_EDGE('',*,*,#786,.T.);
#1103=ORIENTED_EDGE('',*,*,#709,.F.);
#1104=ORIENTED_EDGE('',*,*,#788,.F.);
#1105=ORIENTED_EDGE('',*,*,#763,.F.);
#1106=ORIENTED_EDGE('',*,*,#787,.T.);
#1107=ORIENTED_EDGE('',*,*,#708,.F.);
#1108=ORIENTED_EDGE('',*,*,#789,.F.);
#1109=ORIENTED_EDGE('',*,*,#764,.F.);
#1110=ORIENTED_EDGE('',*,*,#788,.T.);
#1111=ORIENTED_EDGE('',*,*,#707,.F.);
#1112=ORIENTED_EDGE('',*,*,#790,.F.);
#1113=ORIENTED_EDGE('',*,*,#765,.F.);
#1114=ORIENTED_EDGE('',*,*,#789,.T.);
#1115=ORIENTED_EDGE('',*,*,#706,.F.);
#1116=ORIENTED_EDGE('',*,*,#784,.F.);
#1117=ORIENTED_EDGE('',*,*,#758,.F.);
#1118=ORIENTED_EDGE('',*,*,#790,.T.);
#1119=ORIENTED_EDGE('',*,*,#644,.F.);
#1120=ORIENTED_EDGE('',*,*,#791,.F.);
#1121=ORIENTED_EDGE('',*,*,#776,.F.);
#1122=ORIENTED_EDGE('',*,*,#792,.T.);
#1123=ORIENTED_EDGE('',*,*,#643,.F.);
#1124=ORIENTED_EDGE('',*,*,#793,.F.);
#1125=ORIENTED_EDGE('',*,*,#777,.F.);
#1126=ORIENTED_EDGE('',*,*,#791,.T.);
#1127=ORIENTED_EDGE('',*,*,#642,.F.);
#1128=ORIENTED_EDGE('',*,*,#794,.F.);
#1129=ORIENTED_EDGE('',*,*,#778,.F.);
#1130=ORIENTED_EDGE('',*,*,#793,.T.);
#1131=ORIENTED_EDGE('',*,*,#641,.F.);
#1132=ORIENTED_EDGE('',*,*,#795,.F.);
#1133=ORIENTED_EDGE('',*,*,#779,.F.);
#1134=ORIENTED_EDGE('',*,*,#794,.T.);
#1135=ORIENTED_EDGE('',*,*,#640,.F.);
#1136=ORIENTED_EDGE('',*,*,#796,.F.);
#1137=ORIENTED_EDGE('',*,*,#780,.F.);
#1138=ORIENTED_EDGE('',*,*,#795,.T.);
#1139=ORIENTED_EDGE('',*,*,#639,.F.);
#1140=ORIENTED_EDGE('',*,*,#797,.F.);
#1141=ORIENTED_EDGE('',*,*,#781,.F.);
#1142=ORIENTED_EDGE('',*,*,#796,.T.);
#1143=ORIENTED_EDGE('',*,*,#638,.F.);
#1144=ORIENTED_EDGE('',*,*,#798,.F.);
#1145=ORIENTED_EDGE('',*,*,#782,.F.);
#1146=ORIENTED_EDGE('',*,*,#797,.T.);
#1147=ORIENTED_EDGE('',*,*,#637,.F.);
#1148=ORIENTED_EDGE('',*,*,#792,.F.);
#1149=ORIENTED_EDGE('',*,*,#775,.F.);
#1150=ORIENTED_EDGE('',*,*,#798,.T.);
#1151=ORIENTED_EDGE('',*,*,#739,.T.);
#1152=ORIENTED_EDGE('',*,*,#635,.T.);
#1153=ORIENTED_EDGE('',*,*,#750,.T.);
#1154=ORIENTED_EDGE('',*,*,#656,.F.);
#1155=ORIENTED_EDGE('',*,*,#746,.T.);
#1156=ORIENTED_EDGE('',*,*,#753,.F.);
#1157=ORIENTED_EDGE('',*,*,#770,.F.);
#1158=ORIENTED_EDGE('',*,*,#774,.T.);
#1159=PLANE('',#1269);
#1160=PLANE('',#1273);
#1161=PLANE('',#1280);
#1162=PLANE('',#1284);
#1163=PLANE('',#1287);
#1164=PLANE('',#1291);
#1165=PLANE('',#1297);
#1166=PLANE('',#1300);
#1167=PLANE('',#1301);
#1168=PLANE('',#1304);
#1169=PLANE('',#1306);
#1170=PLANE('',#1313);
#1171=PLANE('',#1316);
#1172=PLANE('',#1317);
#1173=PLANE('',#1323);
#1174=PLANE('',#1324);
#1175=PLANE('',#1327);
#1176=PLANE('',#1333);
#1177=PLANE('',#1334);
#1178=PLANE('',#1337);
#1179=PLANE('',#1339);
#1180=PLANE('',#1348);
#1181=PLANE('',#1351);
#1182=PLANE('',#1358);
#1183=PLANE('',#1362);
#1184=PLANE('',#1363);
#1185=PLANE('',#1370);
#1186=PLANE('',#1372);
#1187=PLANE('',#1374);
#1188=PLANE('',#1376);
#1189=PLANE('',#1378);
#1190=PLANE('',#1380);
#1191=PLANE('',#1382);
#1192=PLANE('',#1384);
#1193=ADVANCED_FACE('',(#57,#43),#1159,.F.);
#1194=ADVANCED_FACE('',(#58,#44),#1160,.T.);
#1195=ADVANCED_FACE('',(#59),#15,.F.);
#1196=ADVANCED_FACE('',(#60,#45),#1161,.F.);
#1197=ADVANCED_FACE('',(#61),#1162,.T.);
#1198=ADVANCED_FACE('',(#62),#16,.F.);
#1199=ADVANCED_FACE('',(#63,#46),#1163,.F.);
#1200=ADVANCED_FACE('',(#64,#47),#1164,.F.);
#1201=ADVANCED_FACE('',(#65),#17,.F.);
#1202=ADVANCED_FACE('',(#66),#1165,.T.);
#1203=ADVANCED_FACE('',(#67),#18,.F.);
#1204=ADVANCED_FACE('',(#68),#1166,.T.);
#1205=ADVANCED_FACE('',(#69),#1167,.T.);
#1206=ADVANCED_FACE('',(#70),#19,.T.);
#1207=ADVANCED_FACE('',(#71,#48),#1168,.F.);
#1208=ADVANCED_FACE('',(#72,#49),#1169,.T.);
#1209=ADVANCED_FACE('',(#73),#20,.F.);
#1210=ADVANCED_FACE('',(#74),#1170,.T.);
#1211=ADVANCED_FACE('',(#75),#21,.T.);
#1212=ADVANCED_FACE('',(#76),#1171,.T.);
#1213=ADVANCED_FACE('',(#77,#50),#1172,.F.);
#1214=ADVANCED_FACE('',(#78),#22,.F.);
#1215=ADVANCED_FACE('',(#79),#23,.F.);
#1216=ADVANCED_FACE('',(#80),#1173,.T.);
#1217=ADVANCED_FACE('',(#81),#1174,.T.);
#1218=ADVANCED_FACE('',(#82),#24,.T.);
#1219=ADVANCED_FACE('',(#83,#51),#1175,.F.);
#1220=ADVANCED_FACE('',(#84),#25,.F.);
#1221=ADVANCED_FACE('',(#85),#26,.F.);
#1222=ADVANCED_FACE('',(#86),#1176,.T.);
#1223=ADVANCED_FACE('',(#87),#1177,.T.);
#1224=ADVANCED_FACE('',(#88),#27,.T.);
#1225=ADVANCED_FACE('',(#89,#52),#1178,.F.);
#1226=ADVANCED_FACE('',(#90,#53),#1179,.T.);
#1227=ADVANCED_FACE('',(#91),#28,.F.);
#1228=ADVANCED_FACE('',(#92),#1180,.T.);
#1229=ADVANCED_FACE('',(#93),#29,.T.);
#1230=ADVANCED_FACE('',(#94,#54),#1181,.T.);
#1231=ADVANCED_FACE('',(#95),#30,.T.);
#1232=ADVANCED_FACE('',(#96,#55),#1182,.F.);
#1233=ADVANCED_FACE('',(#97),#31,.T.);
#1234=ADVANCED_FACE('',(#98),#1183,.T.);
#1235=ADVANCED_FACE('',(#99,#56),#1184,.T.);
#1236=ADVANCED_FACE('',(#100),#32,.F.);
#1237=ADVANCED_FACE('',(#101),#33,.F.);
#1238=ADVANCED_FACE('',(#102),#1185,.F.);
#1239=ADVANCED_FACE('',(#103),#34,.F.);
#1240=ADVANCED_FACE('',(#104),#1186,.F.);
#1241=ADVANCED_FACE('',(#105),#35,.F.);
#1242=ADVANCED_FACE('',(#106),#1187,.F.);
#1243=ADVANCED_FACE('',(#107),#36,.F.);
#1244=ADVANCED_FACE('',(#108),#1188,.F.);
#1245=ADVANCED_FACE('',(#109),#37,.F.);
#1246=ADVANCED_FACE('',(#110),#1189,.F.);
#1247=ADVANCED_FACE('',(#111),#38,.F.);
#1248=ADVANCED_FACE('',(#112),#1190,.F.);
#1249=ADVANCED_FACE('',(#113),#39,.F.);
#1250=ADVANCED_FACE('',(#114),#1191,.F.);
#1251=ADVANCED_FACE('',(#115),#40,.F.);
#1252=ADVANCED_FACE('',(#116),#1192,.F.);
#1253=ADVANCED_FACE('',(#117),#41,.F.);
#1254=ADVANCED_FACE('',(#118),#42,.T.);
#1255=CLOSED_SHELL('',(#1193,#1194,#1195,#1196,#1197,#1198,#1199,#1200,
#1201,#1202,#1203,#1204,#1205,#1206,#1207,#1208,#1209,#1210,#1211,#1212,
#1213,#1214,#1215,#1216,#1217,#1218,#1219,#1220,#1221,#1222,#1223,#1224,
#1225,#1226,#1227,#1228,#1229,#1230,#1231,#1232,#1233,#1234,#1235,#1236,
#1237,#1238,#1239,#1240,#1241,#1242,#1243,#1244,#1245,#1246,#1247,#1248,
#1249,#1250,#1251,#1252,#1253,#1254));
#1256=DERIVED_UNIT_ELEMENT(#1258,1.);
#1257=DERIVED_UNIT_ELEMENT(#2117,-3.);
#1258=(
MASS_UNIT()
NAMED_UNIT(*)
SI_UNIT(.KILO.,.GRAM.)
);
#1259=DERIVED_UNIT((#1256,#1257));
#1260=MEASURE_REPRESENTATION_ITEM('density measure',
POSITIVE_RATIO_MEASURE(1060.),#1259);
#1261=PROPERTY_DEFINITION_REPRESENTATION(#1266,#1263);
#1262=PROPERTY_DEFINITION_REPRESENTATION(#1267,#1264);
#1263=REPRESENTATION('material name',(#1265),#2114);
#1264=REPRESENTATION('density',(#1260),#2114);
#1265=DESCRIPTIVE_REPRESENTATION_ITEM('ABS Plastic','ABS Plastic');
#1266=PROPERTY_DEFINITION('material property','material name',#2124);
#1267=PROPERTY_DEFINITION('material property','density of part',#2124);
#1268=AXIS2_PLACEMENT_3D('',#1749,#1387,#1388);
#1269=AXIS2_PLACEMENT_3D('',#1750,#1389,#1390);
#1270=AXIS2_PLACEMENT_3D('',#1755,#1392,#1393);
#1271=AXIS2_PLACEMENT_3D('',#1761,#1396,#1397);
#1272=AXIS2_PLACEMENT_3D('',#1764,#1399,#1400);
#1273=AXIS2_PLACEMENT_3D('',#1765,#1401,#1402);
#1274=AXIS2_PLACEMENT_3D('',#1791,#1415,#1416);
#1275=AXIS2_PLACEMENT_3D('',#1795,#1418,#1419);
#1276=AXIS2_PLACEMENT_3D('',#1799,#1421,#1422);
#1277=AXIS2_PLACEMENT_3D('',#1802,#1424,#1425);
#1278=AXIS2_PLACEMENT_3D('',#1803,#1426,#1427);
#1279=AXIS2_PLACEMENT_3D('',#1806,#1429,#1430);
#1280=AXIS2_PLACEMENT_3D('',#1807,#1431,#1432);
#1281=AXIS2_PLACEMENT_3D('',#1814,#1435,#1436);
#1282=AXIS2_PLACEMENT_3D('',#1819,#1439,#1440);
#1283=AXIS2_PLACEMENT_3D('',#1821,#1441,#1442);
#1284=AXIS2_PLACEMENT_3D('',#1822,#1443,#1444);
#1285=AXIS2_PLACEMENT_3D('',#1839,#1454,#1455);
#1286=AXIS2_PLACEMENT_3D('',#1842,#1457,#1458);
#1287=AXIS2_PLACEMENT_3D('',#1843,#1459,#1460);
#1288=AXIS2_PLACEMENT_3D('',#1848,#1462,#1463);
#1289=AXIS2_PLACEMENT_3D('',#1851,#1465,#1466);
#1290=AXIS2_PLACEMENT_3D('',#1854,#1468,#1469);
#1291=AXIS2_PLACEMENT_3D('',#1855,#1470,#1471);
#1292=AXIS2_PLACEMENT_3D('',#1860,#1473,#1474);
#1293=AXIS2_PLACEMENT_3D('',#1866,#1477,#1478);
#1294=AXIS2_PLACEMENT_3D('',#1869,#1480,#1481);
#1295=AXIS2_PLACEMENT_3D('',#1870,#1482,#1483);
#1296=AXIS2_PLACEMENT_3D('',#1874,#1485,#1486);
#1297=AXIS2_PLACEMENT_3D('',#1876,#1488,#1489);
#1298=AXIS2_PLACEMENT_3D('',#1893,#1499,#1500);
#1299=AXIS2_PLACEMENT_3D('',#1896,#1502,#1503);
#1300=AXIS2_PLACEMENT_3D('',#1897,#1504,#1505);
#1301=AXIS2_PLACEMENT_3D('',#1903,#1509,#1510);
#1302=AXIS2_PLACEMENT_3D('',#1907,#1513,#1514);
#1303=AXIS2_PLACEMENT_3D('',#1908,#1515,#1516);
#1304=AXIS2_PLACEMENT_3D('',#1909,#1517,#1518);
#1305=AXIS2_PLACEMENT_3D('',#1912,#1520,#1521);
#1306=AXIS2_PLACEMENT_3D('',#1913,#1522,#1523);
#1307=AXIS2_PLACEMENT_3D('',#1928,#1531,#1532);
#1308=AXIS2_PLACEMENT_3D('',#1932,#1534,#1535);
#1309=AXIS2_PLACEMENT_3D('',#1936,#1537,#1538);
#1310=AXIS2_PLACEMENT_3D('',#1939,#1540,#1541);
#1311=AXIS2_PLACEMENT_3D('',#1940,#1542,#1543);
#1312=AXIS2_PLACEMENT_3D('',#1943,#1545,#1546);
#1313=AXIS2_PLACEMENT_3D('',#1944,#1547,#1548);
#1314=AXIS2_PLACEMENT_3D('',#1948,#1551,#1552);
#1315=AXIS2_PLACEMENT_3D('',#1950,#1553,#1554);
#1316=AXIS2_PLACEMENT_3D('',#1952,#1556,#1557);
#1317=AXIS2_PLACEMENT_3D('',#1954,#1559,#1560);
#1318=AXIS2_PLACEMENT_3D('',#1955,#1561,#1562);
#1319=AXIS2_PLACEMENT_3D('',#1956,#1563,#1564);
#1320=AXIS2_PLACEMENT_3D('',#1957,#1565,#1566);
#1321=AXIS2_PLACEMENT_3D('',#1958,#1567,#1568);
#1322=AXIS2_PLACEMENT_3D('',#1961,#1570,#1571);
#1323=AXIS2_PLACEMENT_3D('',#1962,#1572,#1573);
#1324=AXIS2_PLACEMENT_3D('',#1966,#1576,#1577);
#1325=AXIS2_PLACEMENT_3D('',#1970,#1580,#1581);
#1326=AXIS2_PLACEMENT_3D('',#1971,#1582,#1583);
#1327=AXIS2_PLACEMENT_3D('',#1972,#1584,#1585);
#1328=AXIS2_PLACEMENT_3D('',#1973,#1586,#1587);
#1329=AXIS2_PLACEMENT_3D('',#1974,#1588,#1589);
#1330=AXIS2_PLACEMENT_3D('',#1975,#1590,#1591);
#1331=AXIS2_PLACEMENT_3D('',#1976,#1592,#1593);
#1332=AXIS2_PLACEMENT_3D('',#1979,#1595,#1596);
#1333=AXIS2_PLACEMENT_3D('',#1980,#1597,#1598);
#1334=AXIS2_PLACEMENT_3D('',#1984,#1601,#1602);
#1335=AXIS2_PLACEMENT_3D('',#1988,#1605,#1606);
#1336=AXIS2_PLACEMENT_3D('',#1989,#1607,#1608);
#1337=AXIS2_PLACEMENT_3D('',#1990,#1609,#1610);
#1338=AXIS2_PLACEMENT_3D('',#1991,#1611,#1612);
#1339=AXIS2_PLACEMENT_3D('',#1992,#1613,#1614);
#1340=AXIS2_PLACEMENT_3D('',#1995,#1615,#1616);
#1341=AXIS2_PLACEMENT_3D('',#1999,#1618,#1619);
#1342=AXIS2_PLACEMENT_3D('',#2003,#1621,#1622);
#1343=AXIS2_PLACEMENT_3D('',#2007,#1624,#1625);
#1344=AXIS2_PLACEMENT_3D('',#2009,#1627,#1628);
#1345=AXIS2_PLACEMENT_3D('',#2010,#1629,#1630);
#1346=AXIS2_PLACEMENT_3D('',#2011,#1631,#1632);
#1347=AXIS2_PLACEMENT_3D('',#2012,#1633,#1634);
#1348=AXIS2_PLACEMENT_3D('',#2013,#1635,#1636);
#1349=AXIS2_PLACEMENT_3D('',#2019,#1640,#1641);
#1350=AXIS2_PLACEMENT_3D('',#2022,#1643,#1644);
#1351=AXIS2_PLACEMENT_3D('',#2023,#1645,#1646);
#1352=AXIS2_PLACEMENT_3D('',#2031,#1650,#1651);
#1353=AXIS2_PLACEMENT_3D('',#2035,#1653,#1654);
#1354=AXIS2_PLACEMENT_3D('',#2039,#1656,#1657);
#1355=AXIS2_PLACEMENT_3D('',#2042,#1659,#1660);
#1356=AXIS2_PLACEMENT_3D('',#2043,#1661,#1662);
#1357=AXIS2_PLACEMENT_3D('',#2046,#1664,#1665);
#1358=AXIS2_PLACEMENT_3D('',#2047,#1666,#1667);
#1359=AXIS2_PLACEMENT_3D('',#2050,#1668,#1669);
#1360=AXIS2_PLACEMENT_3D('',#2053,#1671,#1672);
#1361=AXIS2_PLACEMENT_3D('',#2055,#1674,#1675);
#1362=AXIS2_PLACEMENT_3D('',#2058,#1678,#1679);
#1363=AXIS2_PLACEMENT_3D('',#2059,#1680,#1681);
#1364=AXIS2_PLACEMENT_3D('',#2065,#1684,#1685);
#1365=AXIS2_PLACEMENT_3D('',#2069,#1687,#1688);
#1366=AXIS2_PLACEMENT_3D('',#2073,#1690,#1691);
#1367=AXIS2_PLACEMENT_3D('',#2076,#1693,#1694);
#1368=AXIS2_PLACEMENT_3D('',#2077,#1695,#1696);
#1369=AXIS2_PLACEMENT_3D('',#2078,#1697,#1698);
#1370=AXIS2_PLACEMENT_3D('',#2081,#1701,#1702);
#1371=AXIS2_PLACEMENT_3D('',#2083,#1704,#1705);
#1372=AXIS2_PLACEMENT_3D('',#2085,#1707,#1708);
#1373=AXIS2_PLACEMENT_3D('',#2087,#1710,#1711);
#1374=AXIS2_PLACEMENT_3D('',#2089,#1713,#1714);
#1375=AXIS2_PLACEMENT_3D('',#2091,#1716,#1717);
#1376=AXIS2_PLACEMENT_3D('',#2093,#1719,#1720);
#1377=AXIS2_PLACEMENT_3D('',#2094,#1721,#1722);
#1378=AXIS2_PLACEMENT_3D('',#2097,#1725,#1726);
#1379=AXIS2_PLACEMENT_3D('',#2099,#1728,#1729);
#1380=AXIS2_PLACEMENT_3D('',#2101,#1731,#1732);
#1381=AXIS2_PLACEMENT_3D('',#2103,#1734,#1735);
#1382=AXIS2_PLACEMENT_3D('',#2105,#1737,#1738);
#1383=AXIS2_PLACEMENT_3D('',#2107,#1740,#1741);
#1384=AXIS2_PLACEMENT_3D('',#2109,#1743,#1744);
#1385=AXIS2_PLACEMENT_3D('',#2110,#1745,#1746);
#1386=AXIS2_PLACEMENT_3D('',#2111,#1747,#1748);
#1387=DIRECTION('axis',(0.,0.,1.));
#1388=DIRECTION('refdir',(1.,0.,0.));
#1389=DIRECTION('center_axis',(0.,1.,0.));
#1390=DIRECTION('ref_axis',(0.,0.,1.));
#1391=DIRECTION('',(0.,0.,1.));
#1392=DIRECTION('center_axis',(0.,-1.,0.));
#1393=DIRECTION('ref_axis',(1.,0.,0.));
#1394=DIRECTION('',(-1.,0.,0.));
#1395=DIRECTION('',(1.61016116977858E-9,0.,-1.));
#1396=DIRECTION('center_axis',(0.,-1.,0.));
#1397=DIRECTION('ref_axis',(2.4065934430458E-11,0.,-1.));
#1398=DIRECTION('',(1.,0.,-3.40268354033943E-13));
#1399=DIRECTION('center_axis',(0.,-1.,0.));
#1400=DIRECTION('ref_axis',(1.,0.,0.));
#1401=DIRECTION('center_axis',(3.40268354033943E-13,0.,1.));
#1402=DIRECTION('ref_axis',(1.,0.,-3.40268354033943E-13));
#1403=DIRECTION('',(0.,-1.,0.));
#1404=DIRECTION('',(0.,1.,0.));
#1405=DIRECTION('',(-1.,0.,3.40268354033943E-13));
#1406=DIRECTION('',(0.,1.,0.));
#1407=DIRECTION('',(-1.,0.,3.40268354033943E-13));
#1408=DIRECTION('',(0.,1.,0.));
#1409=DIRECTION('',(-1.,0.,3.40268354033943E-13));
#1410=DIRECTION('',(0.,1.,0.));
#1411=DIRECTION('',(-1.,0.,3.40268354033943E-13));
#1412=DIRECTION('',(0.,1.,0.));
#1413=DIRECTION('',(-1.,0.,3.40268354033943E-13));
#1414=DIRECTION('',(0.,1.,0.));
#1415=DIRECTION('center_axis',(-3.40268354033943E-13,0.,-1.));
#1416=DIRECTION('ref_axis',(-1.,0.,0.));
#1417=DIRECTION('',(1.,0.,-3.40268354033943E-13));
#1418=DIRECTION('center_axis',(-3.40268354033943E-13,0.,-1.));
#1419=DIRECTION('ref_axis',(-3.70074341541719E-16,1.,0.));
#1420=DIRECTION('',(1.58603289232165E-16,-1.,-5.39676801713982E-29));
#1421=DIRECTION('center_axis',(-3.40268354033943E-13,0.,-1.));
#1422=DIRECTION('ref_axis',(1.,-3.70074341541719E-16,0.));
#1423=DIRECTION('',(-1.,0.,3.40268354033943E-13));
#1424=DIRECTION('center_axis',(-3.40268354033943E-13,0.,-1.));
#1425=DIRECTION('ref_axis',(0.,-1.,0.));
#1426=DIRECTION('center_axis',(0.,1.,0.));
#1427=DIRECTION('ref_axis',(2.4065934430458E-11,0.,-1.));
#1428=DIRECTION('',(0.,1.,0.));
#1429=DIRECTION('center_axis',(0.,1.,0.));
#1430=DIRECTION('ref_axis',(2.4065934430458E-11,0.,-1.));
#1431=DIRECTION('center_axis',(0.,1.,0.));
#1432=DIRECTION('ref_axis',(0.,0.,1.));
#1433=DIRECTION('',(-1.61016116977858E-9,0.,1.));
#1434=DIRECTION('',(1.,0.,0.));
#1435=DIRECTION('center_axis',(0.,-1.,0.));
#1436=DIRECTION('ref_axis',(1.,0.,0.));
#1437=DIRECTION('',(0.,0.,1.));
#1438=DIRECTION('',(1.,0.,0.));
#1439=DIRECTION('center_axis',(0.,1.,0.));
#1440=DIRECTION('ref_axis',(-1.,0.,-7.1957886444165E-9));
#1441=DIRECTION('center_axis',(0.,1.,0.));
#1442=DIRECTION('ref_axis',(1.,0.,0.));
#1443=DIRECTION('center_axis',(1.,0.,1.61016116977858E-9));
#1444=DIRECTION('ref_axis',(1.61016116977858E-9,0.,-1.));
#1445=DIRECTION('',(0.,1.,0.));
#1446=DIRECTION('',(-1.61016116977858E-9,0.,1.));
#1447=DIRECTION('',(0.,1.,0.));
#1448=DIRECTION('',(-1.61016116977858E-9,0.,1.));
#1449=DIRECTION('',(0.,1.,0.));
#1450=DIRECTION('',(-1.61016116977858E-9,0.,1.));
#1451=DIRECTION('',(0.,-1.,0.));
#1452=DIRECTION('',(0.,1.,0.));
#1453=DIRECTION('',(-1.61016116977858E-9,0.,1.));
#1454=DIRECTION('center_axis',(0.,1.,0.));
#1455=DIRECTION('ref_axis',(-1.,0.,-7.1957886444165E-9));
#1456=DIRECTION('',(0.,1.,0.));
#1457=DIRECTION('center_axis',(0.,1.,0.));
#1458=DIRECTION('ref_axis',(-1.,0.,-7.1957886444165E-9));
#1459=DIRECTION('center_axis',(0.,1.,0.));
#1460=DIRECTION('ref_axis',(0.,0.,1.));
#1461=DIRECTION('',(-1.,0.,0.));
#1462=DIRECTION('center_axis',(0.,-1.,0.));
#1463=DIRECTION('ref_axis',(1.,0.,0.));
#1464=DIRECTION('',(0.,0.,-1.));
#1465=DIRECTION('center_axis',(0.,1.,0.));
#1466=DIRECTION('ref_axis',(1.,0.,4.85389506370784E-12));
#1467=DIRECTION('',(5.43436263730895E-13,0.,-1.));
#1468=DIRECTION('center_axis',(0.,1.,0.));
#1469=DIRECTION('ref_axis',(1.,0.,0.));
#1470=DIRECTION('center_axis',(0.,1.,0.));
#1471=DIRECTION('ref_axis',(0.,0.,1.));
#1472=DIRECTION('',(0.,0.,-1.));
#1473=DIRECTION('center_axis',(0.,-1.,0.));
#1474=DIRECTION('ref_axis',(1.,0.,0.));
#1475=DIRECTION('',(1.,0.,0.));
#1476=DIRECTION('',(5.43436263730895E-13,0.,-1.));
#1477=DIRECTION('center_axis',(0.,1.,0.));
#1478=DIRECTION('ref_axis',(2.8660037306357E-11,0.,1.));
#1479=DIRECTION('',(1.,0.,0.));
#1480=DIRECTION('center_axis',(0.,1.,0.));
#1481=DIRECTION('ref_axis',(1.,0.,0.));
#1482=DIRECTION('center_axis',(0.,1.,0.));
#1483=DIRECTION('ref_axis',(2.8660037306357E-11,0.,1.));
#1484=DIRECTION('',(0.,-1.,0.));
#1485=DIRECTION('center_axis',(0.,1.,0.));
#1486=DIRECTION('ref_axis',(2.8660037306357E-11,0.,1.));
#1487=DIRECTION('',(0.,-1.,0.));
#1488=DIRECTION('center_axis',(-1.,0.,-5.43436263730895E-13));
#1489=DIRECTION('ref_axis',(-5.43436263730895E-13,0.,1.));
#1490=DIRECTION('',(0.,-1.,0.));
#1491=DIRECTION('',(5.43436263730895E-13,0.,-1.));
#1492=DIRECTION('',(0.,1.,0.));
#1493=DIRECTION('',(5.43436263730895E-13,0.,-1.));
#1494=DIRECTION('',(0.,-1.,0.));
#1495=DIRECTION('',(5.43436263730895E-13,0.,-1.));
#1496=DIRECTION('',(0.,-1.,0.));
#1497=DIRECTION('',(5.43436263730895E-13,0.,-1.));
#1498=DIRECTION('',(0.,-1.,0.));
#1499=DIRECTION('center_axis',(0.,-1.,0.));
#1500=DIRECTION('ref_axis',(1.,0.,0.));
#1501=DIRECTION('',(0.,1.,0.));
#1502=DIRECTION('center_axis',(0.,1.,0.));
#1503=DIRECTION('ref_axis',(1.,0.,0.));
#1504=DIRECTION('center_axis',(-1.,0.,0.));
#1505=DIRECTION('ref_axis',(0.,0.,-1.));
#1506=DIRECTION('',(0.,0.,1.));
#1507=DIRECTION('',(0.,-1.,0.));
#1508=DIRECTION('',(0.,-1.,0.));
#1509=DIRECTION('center_axis',(0.,0.,-1.));
#1510=DIRECTION('ref_axis',(1.,0.,0.));
#1511=DIRECTION('',(-1.,0.,0.));
#1512=DIRECTION('',(0.,-1.,0.));
#1513=DIRECTION('center_axis',(0.,-1.,0.));
#1514=DIRECTION('ref_axis',(1.,0.,0.));
#1515=DIRECTION('center_axis',(0.,1.,0.));
#1516=DIRECTION('ref_axis',(1.,0.,0.));
#1517=DIRECTION('center_axis',(0.,-1.,0.));
#1518=DIRECTION('ref_axis',(1.,0.,0.));
#1519=DIRECTION('',(1.,0.,0.));
#1520=DIRECTION('center_axis',(0.,1.,0.));
#1521=DIRECTION('ref_axis',(2.8660037306357E-11,0.,1.));
#1522=DIRECTION('center_axis',(0.,0.,-1.));
#1523=DIRECTION('ref_axis',(-1.,0.,0.));
#1524=DIRECTION('',(0.,1.,0.));
#1525=DIRECTION('',(1.,0.,0.));
#1526=DIRECTION('',(0.,1.,0.));
#1527=DIRECTION('',(1.,0.,0.));
#1528=DIRECTION('',(0.,-1.,0.));
#1529=DIRECTION('',(1.,0.,0.));
#1530=DIRECTION('',(0.,1.,0.));
#1531=DIRECTION('center_axis',(0.,0.,1.));
#1532=DIRECTION('ref_axis',(1.,0.,0.));
#1533=DIRECTION('',(-1.,0.,0.));
#1534=DIRECTION('center_axis',(0.,0.,1.));
#1535=DIRECTION('ref_axis',(1.77635683940025E-15,1.,0.));
#1536=DIRECTION('',(0.,-1.,0.));
#1537=DIRECTION('center_axis',(0.,0.,1.));
#1538=DIRECTION('ref_axis',(-1.,0.,0.));
#1539=DIRECTION('',(1.,0.,0.));
#1540=DIRECTION('center_axis',(0.,0.,1.));
#1541=DIRECTION('ref_axis',(0.,-1.,0.));
#1542=DIRECTION('center_axis',(0.,-1.,0.));
#1543=DIRECTION('ref_axis',(1.,0.,0.));
#1544=DIRECTION('',(0.,1.,0.));
#1545=DIRECTION('center_axis',(0.,1.,0.));
#1546=DIRECTION('ref_axis',(1.,0.,0.));
#1547=DIRECTION('center_axis',(1.,0.,0.));
#1548=DIRECTION('ref_axis',(0.,0.,1.));
#1549=DIRECTION('',(0.,0.,-1.));
#1550=DIRECTION('',(0.,-1.,0.));
#1551=DIRECTION('center_axis',(0.,-1.,0.));
#1552=DIRECTION('ref_axis',(1.,0.,0.));
#1553=DIRECTION('center_axis',(0.,1.,0.));
#1554=DIRECTION('ref_axis',(1.,0.,0.));
#1555=DIRECTION('',(0.,-1.,0.));
#1556=DIRECTION('center_axis',(0.,0.,-1.));
#1557=DIRECTION('ref_axis',(1.,0.,0.));
#1558=DIRECTION('',(-1.,0.,0.));
#1559=DIRECTION('center_axis',(0.,-1.,0.));
#1560=DIRECTION('ref_axis',(1.,0.,0.));
#1561=DIRECTION('center_axis',(0.,1.,0.));
#1562=DIRECTION('ref_axis',(-1.,0.,-7.1957886444165E-9));
#1563=DIRECTION('center_axis',(0.,1.,0.));
#1564=DIRECTION('ref_axis',(-1.,0.,-7.1957886444165E-9));
#1565=DIRECTION('center_axis',(0.,1.,0.));
#1566=DIRECTION('ref_axis',(-1.,0.,-7.1957886444165E-9));
#1567=DIRECTION('center_axis',(0.,-1.,0.));
#1568=DIRECTION('ref_axis',(1.,0.,0.));
#1569=DIRECTION('',(0.,1.,0.));
#1570=DIRECTION('center_axis',(0.,1.,0.));
#1571=DIRECTION('ref_axis',(1.,0.,0.));
#1572=DIRECTION('center_axis',(0.,0.,1.));
#1573=DIRECTION('ref_axis',(-1.,0.,0.));
#1574=DIRECTION('',(1.,0.,0.));
#1575=DIRECTION('',(0.,-1.,0.));
#1576=DIRECTION('center_axis',(-1.,0.,0.));
#1577=DIRECTION('ref_axis',(0.,0.,-1.));
#1578=DIRECTION('',(0.,0.,1.));
#1579=DIRECTION('',(0.,-1.,0.));
#1580=DIRECTION('center_axis',(0.,-1.,0.));
#1581=DIRECTION('ref_axis',(1.,0.,0.));
#1582=DIRECTION('center_axis',(0.,1.,0.));
#1583=DIRECTION('ref_axis',(1.,0.,0.));
#1584=DIRECTION('center_axis',(0.,-1.,0.));
#1585=DIRECTION('ref_axis',(1.,0.,0.));
#1586=DIRECTION('center_axis',(0.,1.,0.));
#1587=DIRECTION('ref_axis',(1.,0.,4.85389506370784E-12));
#1588=DIRECTION('center_axis',(0.,1.,0.));
#1589=DIRECTION('ref_axis',(1.,0.,4.85389506370784E-12));
#1590=DIRECTION('center_axis',(0.,1.,0.));
#1591=DIRECTION('ref_axis',(1.,0.,4.85389506370784E-12));
#1592=DIRECTION('center_axis',(0.,-1.,0.));
#1593=DIRECTION('ref_axis',(1.,0.,0.));
#1594=DIRECTION('',(0.,1.,0.));
#1595=DIRECTION('center_axis',(0.,1.,0.));
#1596=DIRECTION('ref_axis',(1.,0.,0.));
#1597=DIRECTION('center_axis',(1.,0.,0.));
#1598=DIRECTION('ref_axis',(0.,0.,1.));
#1599=DIRECTION('',(0.,0.,-1.));
#1600=DIRECTION('',(0.,-1.,0.));
#1601=DIRECTION('center_axis',(0.,0.,1.));
#1602=DIRECTION('ref_axis',(-1.,0.,0.));
#1603=DIRECTION('',(1.,0.,0.));
#1604=DIRECTION('',(0.,-1.,0.));
#1605=DIRECTION('center_axis',(0.,-1.,0.));
#1606=DIRECTION('ref_axis',(1.,0.,0.));
#1607=DIRECTION('center_axis',(0.,1.,0.));
#1608=DIRECTION('ref_axis',(1.,0.,0.));
#1609=DIRECTION('center_axis',(0.,-1.,0.));
#1610=DIRECTION('ref_axis',(1.,0.,0.));
#1611=DIRECTION('center_axis',(0.,1.,0.));
#1612=DIRECTION('ref_axis',(2.4065934430458E-11,0.,-1.));
#1613=DIRECTION('center_axis',(0.,1.,0.));
#1614=DIRECTION('ref_axis',(1.,0.,0.));
#1615=DIRECTION('center_axis',(0.,-1.,0.));
#1616=DIRECTION('ref_axis',(0.,0.,-1.));
#1617=DIRECTION('',(0.,0.,-1.));
#1618=DIRECTION('center_axis',(0.,-1.,0.));
#1619=DIRECTION('ref_axis',(-1.,0.,0.));
#1620=DIRECTION('',(-1.,0.,0.));
#1621=DIRECTION('center_axis',(0.,-1.,0.));
#1622=DIRECTION('ref_axis',(-2.01261229904049E-12,0.,1.));
#1623=DIRECTION('',(4.2625401416395E-13,0.,1.));
#1624=DIRECTION('center_axis',(0.,-1.,0.));
#1625=DIRECTION('ref_axis',(1.,0.,0.));
#1626=DIRECTION('',(1.,0.,0.));
#1627=DIRECTION('center_axis',(0.,1.,0.));
#1628=DIRECTION('ref_axis',(1.,0.,4.85389506370784E-12));
#1629=DIRECTION('center_axis',(0.,1.,0.));
#1630=DIRECTION('ref_axis',(2.8660037306357E-11,0.,1.));
#1631=DIRECTION('center_axis',(0.,1.,0.));
#1632=DIRECTION('ref_axis',(2.4065934430458E-11,0.,-1.));
#1633=DIRECTION('center_axis',(0.,1.,0.));
#1634=DIRECTION('ref_axis',(2.8660037306357E-11,0.,1.));
#1635=DIRECTION('center_axis',(1.,0.,-4.2625401416395E-13));
#1636=DIRECTION('ref_axis',(-4.2625401416395E-13,0.,-1.));
#1637=DIRECTION('',(0.,1.,0.));
#1638=DIRECTION('',(4.2625401416395E-13,0.,1.));
#1639=DIRECTION('',(0.,1.,0.));
#1640=DIRECTION('center_axis',(0.,1.,0.));
#1641=DIRECTION('ref_axis',(-2.01261229904049E-12,0.,1.));
#1642=DIRECTION('',(0.,1.,0.));
#1643=DIRECTION('center_axis',(0.,-1.,0.));
#1644=DIRECTION('ref_axis',(-2.01261229904049E-12,0.,1.));
#1645=DIRECTION('center_axis',(0.,0.,1.));
#1646=DIRECTION('ref_axis',(1.,0.,0.));
#1647=DIRECTION('',(0.,-1.,0.));
#1648=DIRECTION('',(-1.,0.,0.));
#1649=DIRECTION('',(0.,-1.,0.));
#1650=DIRECTION('center_axis',(0.,0.,-1.));
#1651=DIRECTION('ref_axis',(0.,-1.,0.));
#1652=DIRECTION('',(-1.,0.,0.));
#1653=DIRECTION('center_axis',(0.,0.,-1.));
#1654=DIRECTION('ref_axis',(-1.,0.,0.));
#1655=DIRECTION('',(0.,1.,0.));
#1656=DIRECTION('center_axis',(0.,0.,-1.));
#1657=DIRECTION('ref_axis',(1.77635683940025E-15,1.,0.));
#1658=DIRECTION('',(1.,0.,0.));
#1659=DIRECTION('center_axis',(0.,0.,-1.));
#1660=DIRECTION('ref_axis',(1.,0.,0.));
#1661=DIRECTION('center_axis',(0.,1.,0.));
#1662=DIRECTION('ref_axis',(-1.,0.,0.));
#1663=DIRECTION('',(0.,-1.,0.));
#1664=DIRECTION('center_axis',(0.,-1.,0.));
#1665=DIRECTION('ref_axis',(-1.,0.,0.));
#1666=DIRECTION('center_axis',(0.,1.,0.));
#1667=DIRECTION('ref_axis',(0.,0.,1.));
#1668=DIRECTION('center_axis',(0.,-1.,0.));
#1669=DIRECTION('ref_axis',(0.,0.,-1.));
#1670=DIRECTION('',(1.,0.,0.));
#1671=DIRECTION('center_axis',(0.,-1.,0.));
#1672=DIRECTION('ref_axis',(1.,0.,0.));
#1673=DIRECTION('',(0.,0.,-1.));
#1674=DIRECTION('center_axis',(0.,1.,0.));
#1675=DIRECTION('ref_axis',(0.,0.,-1.));
#1676=DIRECTION('',(0.,-1.,0.));
#1677=DIRECTION('',(0.,-1.,0.));
#1678=DIRECTION('center_axis',(-1.,0.,0.));
#1679=DIRECTION('ref_axis',(0.,0.,1.));
#1680=DIRECTION('center_axis',(0.,0.,-1.));
#1681=DIRECTION('ref_axis',(-1.,0.,0.));
#1682=DIRECTION('',(0.,1.,0.));
#1683=DIRECTION('',(0.,-1.,0.));
#1684=DIRECTION('center_axis',(0.,0.,1.));
#1685=DIRECTION('ref_axis',(0.,-1.,0.));
#1686=DIRECTION('',(1.,0.,0.));
#1687=DIRECTION('center_axis',(0.,0.,1.));
#1688=DIRECTION('ref_axis',(1.,-3.70074341541719E-16,0.));
#1689=DIRECTION('',(-1.58603289232165E-16,1.,0.));
#1690=DIRECTION('center_axis',(0.,0.,1.));
#1691=DIRECTION('ref_axis',(-3.70074341541719E-16,1.,0.));
#1692=DIRECTION('',(-1.,0.,0.));
#1693=DIRECTION('center_axis',(0.,0.,1.));
#1694=DIRECTION('ref_axis',(-1.,0.,0.));
#1695=DIRECTION('center_axis',(0.,1.,0.));
#1696=DIRECTION('ref_axis',(1.,0.,4.85389506370784E-12));
#1697=DIRECTION('center_axis',(0.,0.,-1.));
#1698=DIRECTION('ref_axis',(0.,-1.,0.));
#1699=DIRECTION('',(0.,0.,-1.));
#1700=DIRECTION('',(0.,0.,-1.));
#1701=DIRECTION('center_axis',(0.,-1.,0.));
#1702=DIRECTION('ref_axis',(-1.,0.,0.));
#1703=DIRECTION('',(0.,0.,-1.));
#1704=DIRECTION('center_axis',(0.,0.,-1.));
#1705=DIRECTION('ref_axis',(-1.,0.,0.));
#1706=DIRECTION('',(0.,0.,-1.));
#1707=DIRECTION('center_axis',(-1.,0.,0.));
#1708=DIRECTION('ref_axis',(0.,1.,0.));
#1709=DIRECTION('',(0.,0.,-1.));
#1710=DIRECTION('center_axis',(0.,0.,-1.));
#1711=DIRECTION('ref_axis',(1.77635683940025E-15,1.,0.));
#1712=DIRECTION('',(0.,0.,-1.));
#1713=DIRECTION('center_axis',(0.,1.,0.));
#1714=DIRECTION('ref_axis',(1.,0.,0.));
#1715=DIRECTION('',(0.,0.,-1.));
#1716=DIRECTION('center_axis',(0.,0.,-1.));
#1717=DIRECTION('ref_axis',(1.,0.,0.));
#1718=DIRECTION('',(0.,0.,-1.));
#1719=DIRECTION('center_axis',(1.,0.,0.));
#1720=DIRECTION('ref_axis',(0.,-1.,0.));
#1721=DIRECTION('center_axis',(0.,0.,1.));
#1722=DIRECTION('ref_axis',(0.,-1.,0.));
#1723=DIRECTION('',(0.,0.,1.));
#1724=DIRECTION('',(0.,0.,1.));
#1725=DIRECTION('center_axis',(0.,-1.,0.));
#1726=DIRECTION('ref_axis',(1.,0.,0.));
#1727=DIRECTION('',(0.,0.,1.));
#1728=DIRECTION('center_axis',(0.,0.,1.));
#1729=DIRECTION('ref_axis',(1.,-3.70074341541719E-16,0.));
#1730=DIRECTION('',(0.,0.,1.));
#1731=DIRECTION('center_axis',(1.,1.58603289232165E-16,0.));
#1732=DIRECTION('ref_axis',(-1.58603289232165E-16,1.,0.));
#1733=DIRECTION('',(0.,0.,1.));
#1734=DIRECTION('center_axis',(0.,0.,1.));
#1735=DIRECTION('ref_axis',(-3.70074341541719E-16,1.,0.));
#1736=DIRECTION('',(0.,0.,1.));
#1737=DIRECTION('center_axis',(0.,1.,0.));
#1738=DIRECTION('ref_axis',(-1.,0.,0.));
#1739=DIRECTION('',(0.,0.,1.));
#1740=DIRECTION('center_axis',(0.,0.,1.));
#1741=DIRECTION('ref_axis',(-1.,0.,0.));
#1742=DIRECTION('',(0.,0.,1.));
#1743=DIRECTION('center_axis',(-1.,0.,0.));
#1744=DIRECTION('ref_axis',(0.,-1.,0.));
#1745=DIRECTION('center_axis',(0.,1.,0.));
#1746=DIRECTION('ref_axis',(2.4065934430458E-11,0.,-1.));
#1747=DIRECTION('center_axis',(0.,1.,0.));
#1748=DIRECTION('ref_axis',(1.,0.,0.));
#1749=CARTESIAN_POINT('',(0.,0.,0.));
#1750=CARTESIAN_POINT('Origin',(-15.4762446935618,10.12,-23.5477053787685));
#1751=CARTESIAN_POINT('',(-11.4762446935618,10.12,-26.5477053787694));
#1752=CARTESIAN_POINT('',(-11.4762446935618,10.12,-23.547705378768));
#1753=CARTESIAN_POINT('',(-11.4762446935618,10.12,-25.0477053787683));
#1754=CARTESIAN_POINT('',(-15.4762446935618,10.12,-19.547705378768));
#1755=CARTESIAN_POINT('Origin',(-15.4762446935618,10.12,-23.547705378768));
#1756=CARTESIAN_POINT('',(-18.4762446001724,10.12,-19.547705378768));
#1757=CARTESIAN_POINT('',(-15.4762446935618,10.12,-19.547705378768));
#1758=CARTESIAN_POINT('',(-18.4762445937318,10.12,-23.5477053880449));
#1759=CARTESIAN_POINT('',(-18.4762446436468,10.12,7.45229481125953));
#1760=CARTESIAN_POINT('',(-15.4762446934896,10.12,-26.547705378768));
#1761=CARTESIAN_POINT('Origin',(-15.4762446935618,10.12,-23.547705378768));
#1762=CARTESIAN_POINT('',(-15.4762446935262,10.12,-26.547705378768));
#1763=CARTESIAN_POINT('',(-17.1262446935618,10.12,-23.547705378768));
#1764=CARTESIAN_POINT('Origin',(-15.4762446935618,10.12,-23.547705378768));
#1765=CARTESIAN_POINT('Origin',(-15.4762446934896,0.,-26.547705378768));
#1766=CARTESIAN_POINT('',(-11.4762446935618,20.8,-26.5477053787694));
#1767=CARTESIAN_POINT('',(-11.4762446935618,10.5,-26.5477053787694));
#1768=CARTESIAN_POINT('',(-15.4762446934896,0.,-26.547705378768));
#1769=CARTESIAN_POINT('',(-15.4762446934896,0.,-26.547705378768));
#1770=CARTESIAN_POINT('',(21.523755306491,0.,-26.5477053787806));
#1771=CARTESIAN_POINT('',(12.2737553064687,0.,-26.5477053787775));
#1772=CARTESIAN_POINT('',(21.5237553064891,1.5,-26.547705378768));
#1773=CARTESIAN_POINT('',(21.523755306491,0.,-26.5477053787806));
#1774=CARTESIAN_POINT('',(17.5237553064959,1.5,-26.5477053787793));
#1775=CARTESIAN_POINT('',(-6.2262446935191,1.5,-26.5477053787712));
#1776=CARTESIAN_POINT('',(17.5237553064959,20.8,-26.5477053787792));
#1777=CARTESIAN_POINT('',(17.5237553064959,10.5,-26.5477053787793));
#1778=CARTESIAN_POINT('',(21.523755306491,20.8,-26.5477053787806));
#1779=CARTESIAN_POINT('',(3.02375530648885,20.8,-26.5477053787743));
#1780=CARTESIAN_POINT('',(21.523755306491,23.5,-26.5477053787806));
#1781=CARTESIAN_POINT('',(21.523755306491,0.,-26.5477053787806));
#1782=CARTESIAN_POINT('',(-15.4762446934896,23.5,-26.547705378768));
#1783=CARTESIAN_POINT('',(-6.2262446935216,23.5,-26.5477053787712));
#1784=CARTESIAN_POINT('',(-15.4762446934896,20.8,-26.547705378768));
#1785=CARTESIAN_POINT('',(-15.4762446934896,0.,-26.547705378768));
#1786=CARTESIAN_POINT('',(-15.4762446935262,20.8,-26.547705378768));
#1787=CARTESIAN_POINT('',(-6.03274886382523,3.86006069905608,-26.5477053787712));
#1788=CARTESIAN_POINT('',(-6.03274886382523,10.8600606990561,-26.5477053787712));
#1789=CARTESIAN_POINT('',(-6.03274886382523,5.43003034952804,-26.5477053787712));
#1790=CARTESIAN_POINT('',(-4.53274886382523,12.3600606990561,-26.5477053787717));
#1791=CARTESIAN_POINT('Origin',(-4.53274886382523,10.8600606990561,-26.547705378768));
#1792=CARTESIAN_POINT('',(4.46725113617477,12.3600606990561,-26.5477053787748));
#1793=CARTESIAN_POINT('',(-5.50449677865705,12.3600606990561,-26.5477053787714));
#1794=CARTESIAN_POINT('',(5.96725113617477,10.8600606990561,-26.5477053787753));
#1795=CARTESIAN_POINT('Origin',(4.46725113617478,10.8600606990561,-26.547705378768));
#1796=CARTESIAN_POINT('',(5.96725113617478,3.86006069905608,-26.5477053787753));
#1797=CARTESIAN_POINT('',(5.96725113617478,1.93003034952804,-26.5477053787753));
#1798=CARTESIAN_POINT('',(4.46725113617477,2.36006069905608,-26.5477053787748));
#1799=CARTESIAN_POINT('Origin',(4.46725113617477,3.86006069905608,-26.547705378768));
#1800=CARTESIAN_POINT('',(-4.53274886382523,2.36006069905608,-26.5477053787717));
#1801=CARTESIAN_POINT('',(-10.0044967786571,2.36006069905608,-26.5477053787699));
#1802=CARTESIAN_POINT('Origin',(-4.53274886382523,3.86006069905608,-26.547705378768));
#1803=CARTESIAN_POINT('Origin',(-15.4762446935618,0.,-23.547705378768));
#1804=CARTESIAN_POINT('',(-18.4762445937318,0.,-23.5477053880449));
#1805=CARTESIAN_POINT('',(-18.4762445937318,0.,-23.5477053880449));
#1806=CARTESIAN_POINT('Origin',(-15.4762446935618,0.,-23.547705378768));
#1807=CARTESIAN_POINT('Origin',(3.02375530646292,1.5,7.45229462122568));
#1808=CARTESIAN_POINT('',(-18.4762446871211,1.5,34.452295434189));
#1809=CARTESIAN_POINT('',(-18.4762446935618,1.5,38.4522950045947));
#1810=CARTESIAN_POINT('',(-18.4762446686043,1.5,22.9522947963626));
#1811=CARTESIAN_POINT('',(-15.4762451000453,1.5,34.452295434189));
#1812=CARTESIAN_POINT('',(-7.72624469354942,1.5,34.452295434189));
#1813=CARTESIAN_POINT('',(-11.4762455065289,1.5,38.4522950277054));
#1814=CARTESIAN_POINT('Origin',(-15.4762451000453,1.5,38.4522950277054));
#1815=CARTESIAN_POINT('',(-11.4762455065289,1.5,41.452294621232));
#1816=CARTESIAN_POINT('',(-11.4762455065289,1.5,22.9522948244656));
#1817=CARTESIAN_POINT('',(-15.4762450999926,1.5,41.4522946212219));
#1818=CARTESIAN_POINT('',(12.2737553065183,1.5,41.452294621232));
#1819=CARTESIAN_POINT('Origin',(-15.4762451000453,1.5,38.4522950277054));
#1820=CARTESIAN_POINT('',(-17.1262451000453,1.5,38.4522950277054));
#1821=CARTESIAN_POINT('Origin',(-15.4762451000453,1.5,38.4522950277054));
#1822=CARTESIAN_POINT('Origin',(-18.4762446935618,0.,38.4522950061181));
#1823=CARTESIAN_POINT('',(-18.4762446001724,20.8,-19.547705378768));
#1824=CARTESIAN_POINT('',(-18.4762446001724,10.5,-19.547705378768));
#1825=CARTESIAN_POINT('',(-18.4762445937318,20.8,-23.5477053880449));
#1826=CARTESIAN_POINT('',(-18.4762446436468,20.8,7.45229481125978));
#1827=CARTESIAN_POINT('',(-18.4762445937318,23.5,-23.5477053880449));
#1828=CARTESIAN_POINT('',(-18.4762445937318,0.,-23.5477053880449));
#1829=CARTESIAN_POINT('',(-18.4762446935617,23.5,38.4522950061181));
#1830=CARTESIAN_POINT('',(-18.4762446686043,23.5,22.9522947963658));
#1831=CARTESIAN_POINT('',(-18.4762446935618,20.8,38.4522950061181));
#1832=CARTESIAN_POINT('',(-18.4762446935618,0.,38.4522950061181));
#1833=CARTESIAN_POINT('',(-18.4762446871211,20.8,34.452295434189));
#1834=CARTESIAN_POINT('',(-18.4762446935618,20.8,38.4522950144967));
#1835=CARTESIAN_POINT('',(-18.4762446871211,10.5,34.452295434189));
#1836=CARTESIAN_POINT('',(-18.4762446935617,0.,38.4522950061181));
#1837=CARTESIAN_POINT('',(-18.4762446935618,0.,38.4522950061181));
#1838=CARTESIAN_POINT('',(-18.4762446186893,0.,-8.04770540071567));
#1839=CARTESIAN_POINT('Origin',(-15.4762451000453,0.,38.4522950277054));
#1840=CARTESIAN_POINT('',(-15.4762450999877,0.,41.452294621232));
#1841=CARTESIAN_POINT('',(-15.4762450999877,0.,41.452294621232));
#1842=CARTESIAN_POINT('Origin',(-15.4762451000453,0.,38.4522950277054));
#1843=CARTESIAN_POINT('Origin',(3.02375530646292,1.5,7.45229462122568));
#1844=CARTESIAN_POINT('',(24.5237553064361,1.5,-19.5477053788257));
#1845=CARTESIAN_POINT('',(21.5237553064671,1.5,-19.5477053788257));
#1846=CARTESIAN_POINT('',(13.7737553064518,1.5,-19.5477053788257));
#1847=CARTESIAN_POINT('',(17.5237553064959,1.5,-23.5477053787969));
#1848=CARTESIAN_POINT('Origin',(21.5237553064671,1.5,-23.5477053787969));
#1849=CARTESIAN_POINT('',(17.5237553064959,1.5,-8.04770537878559));
#1850=CARTESIAN_POINT('',(24.5237553064382,1.5,-23.5477053787811));
#1851=CARTESIAN_POINT('Origin',(21.5237553064671,1.5,-23.5477053787969));
#1852=CARTESIAN_POINT('',(24.5237553064298,1.5,-8.04770537877246));
#1853=CARTESIAN_POINT('',(19.8737553064671,1.5,-23.5477053787969));
#1854=CARTESIAN_POINT('Origin',(21.5237553064671,1.5,-23.5477053787969));
#1855=CARTESIAN_POINT('Origin',(3.02375530646292,1.5,7.45229462122568));
#1856=CARTESIAN_POINT('',(17.5237553064876,1.5,41.452294621232));
#1857=CARTESIAN_POINT('',(17.5237553064876,1.5,38.452294621232));
#1858=CARTESIAN_POINT('',(17.5237553064876,1.5,24.4522946212284));
#1859=CARTESIAN_POINT('',(21.5237553064876,1.5,34.452294621232));
#1860=CARTESIAN_POINT('Origin',(21.5237553064876,1.5,38.452294621232));
#1861=CARTESIAN_POINT('',(24.5237553064067,1.5,34.452294621232));
#1862=CARTESIAN_POINT('',(12.2737553064753,1.5,34.452294621232));
#1863=CARTESIAN_POINT('',(24.5237553064876,1.5,38.4522946212335));
#1864=CARTESIAN_POINT('',(24.5237553064298,1.5,-8.04770537877246));
#1865=CARTESIAN_POINT('',(21.5237553065814,1.5,41.452294621232));
#1866=CARTESIAN_POINT('Origin',(21.5237553064876,1.5,38.452294621232));
#1867=CARTESIAN_POINT('',(12.2737553065183,1.5,41.452294621232));
#1868=CARTESIAN_POINT('',(19.8737553064876,1.5,38.452294621232));
#1869=CARTESIAN_POINT('Origin',(21.5237553064876,1.5,38.452294621232));
#1870=CARTESIAN_POINT('Origin',(21.5237553064876,0.,38.452294621232));
#1871=CARTESIAN_POINT('',(24.5237553064046,0.,38.4522946212339));
#1872=CARTESIAN_POINT('',(24.5237553064046,1.5,38.4522946212339));
#1873=CARTESIAN_POINT('',(21.5237553065736,0.,41.452294621232));
#1874=CARTESIAN_POINT('Origin',(21.5237553064876,0.,38.452294621232));
#1875=CARTESIAN_POINT('',(21.5237553065736,1.5,41.452294621232));
#1876=CARTESIAN_POINT('Origin',(24.5237553064382,0.,-23.5477053787823));
#1877=CARTESIAN_POINT('',(24.5237553064382,0.,-23.5477053787823));
#1878=CARTESIAN_POINT('',(24.5237553064382,1.5,-23.5477053787823));
#1879=CARTESIAN_POINT('',(24.523755306413,0.,22.9522946212388));
#1880=CARTESIAN_POINT('',(24.5237553064067,20.8,34.452294621232));
#1881=CARTESIAN_POINT('',(24.5237553064067,10.5,34.452294621232));
#1882=CARTESIAN_POINT('',(24.5237553064046,20.8,38.4522946212339));
#1883=CARTESIAN_POINT('',(24.5237553064214,20.8,7.45229462122566));
#1884=CARTESIAN_POINT('',(24.5237553064046,23.5,38.4522946212338));
#1885=CARTESIAN_POINT('',(24.5237553064046,1.5,38.4522946212339));
#1886=CARTESIAN_POINT('',(24.5237553064382,23.5,-23.5477053787823));
#1887=CARTESIAN_POINT('',(24.5237553064298,23.5,-8.04770537876932));
#1888=CARTESIAN_POINT('',(24.5237553064382,20.8,-23.5477053787823));
#1889=CARTESIAN_POINT('',(24.5237553064382,1.5,-23.5477053787823));
#1890=CARTESIAN_POINT('',(24.5237553064361,20.8,-19.5477053788257));
#1891=CARTESIAN_POINT('',(24.5237553064382,20.8,-23.5477053787888));
#1892=CARTESIAN_POINT('',(24.5237553064361,10.5,-19.5477053788257));
#1893=CARTESIAN_POINT('Origin',(21.5237553064876,21.,38.452294621232));
#1894=CARTESIAN_POINT('',(19.8737553064876,20.8,38.452294621232));
#1895=CARTESIAN_POINT('',(19.8737553064876,21.,38.452294621232));
#1896=CARTESIAN_POINT('Origin',(21.5237553064876,20.8,38.452294621232));
#1897=CARTESIAN_POINT('Origin',(17.5237553064876,21.,41.4522946212312));
#1898=CARTESIAN_POINT('',(17.5237553064876,20.8,38.452294621232));
#1899=CARTESIAN_POINT('',(17.5237553064876,20.8,41.452294621232));
#1900=CARTESIAN_POINT('',(17.5237553064876,20.8,39.9522946212316));
#1901=CARTESIAN_POINT('',(17.5237553064876,21.,38.452294621232));
#1902=CARTESIAN_POINT('',(17.5237553064876,10.5,41.452294621232));
#1903=CARTESIAN_POINT('Origin',(21.5237553064876,21.,34.452294621232));
#1904=CARTESIAN_POINT('',(21.5237553064876,20.8,34.452294621232));
#1905=CARTESIAN_POINT('',(21.5237553064876,20.8,34.452294621232));
#1906=CARTESIAN_POINT('',(21.5237553064876,21.,34.452294621232));
#1907=CARTESIAN_POINT('Origin',(21.5237553064876,21.,38.452294621232));
#1908=CARTESIAN_POINT('Origin',(21.5237553064876,20.8,38.452294621232));
#1909=CARTESIAN_POINT('Origin',(21.5237553064876,20.8,38.452294621232));
#1910=CARTESIAN_POINT('',(21.5237553065736,20.8,41.452294621232));
#1911=CARTESIAN_POINT('',(21.5237553065306,20.8,41.452294621232));
#1912=CARTESIAN_POINT('Origin',(21.5237553064876,20.8,38.452294621232));
#1913=CARTESIAN_POINT('Origin',(21.5237553065736,0.,41.452294621232));
#1914=CARTESIAN_POINT('',(-11.4762455065289,20.8,41.452294621232));
#1915=CARTESIAN_POINT('',(-11.4762455065289,10.5,41.452294621232));
#1916=CARTESIAN_POINT('',(-15.4762450999877,20.8,41.452294621232));
#1917=CARTESIAN_POINT('',(3.02375510326413,20.8,41.452294621232));
#1918=CARTESIAN_POINT('',(-15.4762450999877,23.5,41.452294621232));
#1919=CARTESIAN_POINT('',(-15.4762450999877,0.,41.452294621232));
#1920=CARTESIAN_POINT('',(21.5237553065736,23.5,41.452294621232));
#1921=CARTESIAN_POINT('',(12.2737553065158,23.5,41.452294621232));
#1922=CARTESIAN_POINT('',(21.5237553065736,1.5,41.452294621232));
#1923=CARTESIAN_POINT('',(-6.2262448967649,0.,41.452294621232));
#1924=CARTESIAN_POINT('',(10.6319441160859,5.32990810602849,41.452294621232));
#1925=CARTESIAN_POINT('',(10.6319441160859,12.3299081060285,41.452294621232));
#1926=CARTESIAN_POINT('',(10.6319441160859,6.16495405301425,41.452294621232));
#1927=CARTESIAN_POINT('',(8.1319441160859,14.8299081060285,41.452294621232));
#1928=CARTESIAN_POINT('Origin',(8.1319441160859,12.3299081060285,41.452294621232));
#1929=CARTESIAN_POINT('',(-8.86805588391411,14.8299081060285,41.452294621232));
#1930=CARTESIAN_POINT('',(6.32784971132974,14.8299081060285,41.452294621232));
#1931=CARTESIAN_POINT('',(-11.3680558839141,12.3299081060285,41.452294621232));
#1932=CARTESIAN_POINT('Origin',(-8.86805588391411,12.3299081060285,41.452294621232));
#1933=CARTESIAN_POINT('',(-11.3680558839141,5.32990810602849,41.452294621232));
#1934=CARTESIAN_POINT('',(-11.3680558839141,2.66495405301424,41.452294621232));
#1935=CARTESIAN_POINT('',(-8.86805588391411,2.82990810602849,41.452294621232));
#1936=CARTESIAN_POINT('Origin',(-8.86805588391411,5.32990810602849,41.452294621232));
#1937=CARTESIAN_POINT('',(8.13194411608589,2.82990810602849,41.452294621232));
#1938=CARTESIAN_POINT('',(14.8278497113297,2.82990810602849,41.452294621232));
#1939=CARTESIAN_POINT('Origin',(8.13194411608589,5.32990810602849,41.452294621232));
#1940=CARTESIAN_POINT('Origin',(-15.4762451000453,21.,38.4522950277054));
#1941=CARTESIAN_POINT('',(-17.1262451000453,20.8,38.4522950277054));
#1942=CARTESIAN_POINT('',(-17.1262451000453,21.,38.4522950277054));
#1943=CARTESIAN_POINT('Origin',(-15.4762451000453,20.8,38.4522950277054));
#1944=CARTESIAN_POINT('Origin',(-11.4762455065289,21.,38.4522950277054));
#1945=CARTESIAN_POINT('',(-11.4762455065289,20.8,38.4522950277054));
#1946=CARTESIAN_POINT('',(-11.4762455065289,20.8,38.4522950277056));
#1947=CARTESIAN_POINT('',(-11.4762455065289,21.,38.4522950277054));
#1948=CARTESIAN_POINT('Origin',(-15.4762451000453,21.,38.4522950277054));
#1949=CARTESIAN_POINT('',(-15.4762451000453,20.8,34.452295434189));
#1950=CARTESIAN_POINT('Origin',(-15.4762451000453,20.8,38.4522950277054));
#1951=CARTESIAN_POINT('',(-15.4762451000453,21.,34.452295434189));
#1952=CARTESIAN_POINT('Origin',(-18.4762446935618,21.,34.452295434189));
#1953=CARTESIAN_POINT('',(-16.9762448968035,20.8,34.452295434189));
#1954=CARTESIAN_POINT('Origin',(-15.4762451000453,20.8,38.4522950277059));
#1955=CARTESIAN_POINT('Origin',(-15.4762451000453,20.8,38.4522950277054));
#1956=CARTESIAN_POINT('Origin',(-15.4762451000453,0.,38.4522950277054));
#1957=CARTESIAN_POINT('Origin',(-15.4762451000453,23.5,38.4522950277054));
#1958=CARTESIAN_POINT('Origin',(21.5237553064671,21.,-23.5477053787969));
#1959=CARTESIAN_POINT('',(19.8737553064671,20.8,-23.5477053787969));
#1960=CARTESIAN_POINT('',(19.8737553064671,21.,-23.5477053787969));
#1961=CARTESIAN_POINT('Origin',(21.5237553064671,20.8,-23.5477053787969));
#1962=CARTESIAN_POINT('Origin',(24.5237553064406,21.,-19.5477053788257));
#1963=CARTESIAN_POINT('',(21.5237553064671,20.8,-19.5477053788257));
#1964=CARTESIAN_POINT('',(23.0237553064545,20.8,-19.5477053788257));
#1965=CARTESIAN_POINT('',(21.5237553064671,21.,-19.5477053788257));
#1966=CARTESIAN_POINT('Origin',(17.5237553064959,21.,-23.5477053787969));
#1967=CARTESIAN_POINT('',(17.5237553064959,20.8,-23.5477053787969));
#1968=CARTESIAN_POINT('',(17.5237553064959,20.8,-23.5477053787969));
#1969=CARTESIAN_POINT('',(17.5237553064959,21.,-23.5477053787969));
#1970=CARTESIAN_POINT('Origin',(21.5237553064671,21.,-23.5477053787969));
#1971=CARTESIAN_POINT('Origin',(21.5237553064671,20.8,-23.5477053787969));
#1972=CARTESIAN_POINT('Origin',(21.5237553064683,20.8,-23.5477053787969));
#1973=CARTESIAN_POINT('Origin',(21.5237553064671,20.8,-23.5477053787969));
#1974=CARTESIAN_POINT('Origin',(21.5237553064671,0.,-23.5477053787969));
#1975=CARTESIAN_POINT('Origin',(21.5237553064671,0.,-23.5477053787969));
#1976=CARTESIAN_POINT('Origin',(-15.4762446935618,21.,-23.547705378768));
#1977=CARTESIAN_POINT('',(-17.1262446935618,20.8,-23.547705378768));
#1978=CARTESIAN_POINT('',(-17.1262446935618,21.,-23.547705378768));
#1979=CARTESIAN_POINT('Origin',(-15.4762446935618,20.8,-23.547705378768));
#1980=CARTESIAN_POINT('Origin',(-11.4762446935618,21.,-26.547705378768));
#1981=CARTESIAN_POINT('',(-11.4762446935618,20.8,-23.547705378768));
#1982=CARTESIAN_POINT('',(-11.4762446935618,20.8,-25.047705378768));
#1983=CARTESIAN_POINT('',(-11.4762446935618,21.,-23.547705378768));
#1984=CARTESIAN_POINT('Origin',(-15.4762446935618,21.,-19.547705378768));
#1985=CARTESIAN_POINT('',(-15.4762446935618,20.8,-19.547705378768));
#1986=CARTESIAN_POINT('',(-15.4762446935618,20.8,-19.547705378768));
#1987=CARTESIAN_POINT('',(-15.4762446935618,21.,-19.547705378768));
#1988=CARTESIAN_POINT('Origin',(-15.4762446935618,21.,-23.547705378768));
#1989=CARTESIAN_POINT('Origin',(-15.4762446935618,20.8,-23.547705378768));
#1990=CARTESIAN_POINT('Origin',(-15.4762446935618,20.8,-23.547705378768));
#1991=CARTESIAN_POINT('Origin',(-15.4762446935618,20.8,-23.547705378768));
#1992=CARTESIAN_POINT('Origin',(3.02375530645793,23.5,7.45229462123198));
#1993=CARTESIAN_POINT('',(-20.4762446935618,23.5,-23.547705378768));
#1994=CARTESIAN_POINT('',(-15.4762446935618,23.5,-28.547705378768));
#1995=CARTESIAN_POINT('Origin',(-15.4762446935618,23.5,-23.547705378768));
#1996=CARTESIAN_POINT('',(-20.4762446935717,23.5,38.4522950277054));
#1997=CARTESIAN_POINT('',(-20.4762446935717,23.5,-8.04770537876803));
#1998=CARTESIAN_POINT('',(-15.4762451000453,23.5,43.4522946212319));
#1999=CARTESIAN_POINT('Origin',(-15.4762451000453,23.5,38.4522950277054));
#2000=CARTESIAN_POINT('',(21.5237553064775,23.5,43.452294621232));
#2001=CARTESIAN_POINT('',(-6.22624489679366,23.5,43.452294621232));
#2002=CARTESIAN_POINT('',(26.5237553064876,23.5,38.452294621232));
#2003=CARTESIAN_POINT('Origin',(21.5237553064876,23.5,38.452294621232));
#2004=CARTESIAN_POINT('',(26.5237553064383,23.5,-23.5477053787969));
#2005=CARTESIAN_POINT('',(26.5237553064581,23.5,22.952294621227));
#2006=CARTESIAN_POINT('',(21.5237553064671,23.5,-28.547705378768));
#2007=CARTESIAN_POINT('Origin',(21.5237553064671,23.5,-23.5477053787969));
#2008=CARTESIAN_POINT('',(12.2737553064625,23.5,-28.547705378768));
#2009=CARTESIAN_POINT('Origin',(21.5237553064671,23.5,-23.5477053787969));
#2010=CARTESIAN_POINT('Origin',(21.5237553064876,23.5,38.452294621232));
#2011=CARTESIAN_POINT('Origin',(-15.4762446935618,23.5,-23.547705378768));
#2012=CARTESIAN_POINT('Origin',(21.5237553064876,0.,38.452294621232));
#2013=CARTESIAN_POINT('Origin',(26.5237553064647,0.,38.452294621232));
#2014=CARTESIAN_POINT('',(26.5237553064876,0.,38.452294621232));
#2015=CARTESIAN_POINT('',(26.5237553064876,0.,38.452294621232));
#2016=CARTESIAN_POINT('',(26.5237553064383,0.,-23.5477053787969));
#2017=CARTESIAN_POINT('',(26.5237553064449,0.,-8.04770537878745));
#2018=CARTESIAN_POINT('',(26.5237553064383,0.,-23.5477053787969));
#2019=CARTESIAN_POINT('Origin',(21.5237553064876,0.,38.452294621232));
#2020=CARTESIAN_POINT('',(21.5237553064775,0.,43.452294621232));
#2021=CARTESIAN_POINT('',(21.5237553064775,0.,43.452294621232));
#2022=CARTESIAN_POINT('Origin',(21.5237553064876,0.,38.452294621232));
#2023=CARTESIAN_POINT('Origin',(-15.4762451000453,0.,43.452294621232));
#2024=CARTESIAN_POINT('',(-15.4762451000453,0.,43.4522946212319));
#2025=CARTESIAN_POINT('',(-15.4762451000453,1.5,43.4522946212319));
#2026=CARTESIAN_POINT('',(12.2737553064677,0.,43.452294621232));
#2027=CARTESIAN_POINT('',(10.6319441160859,12.3299081060285,43.452294621232));
#2028=CARTESIAN_POINT('',(10.6319441160859,5.32990810602849,43.452294621232));
#2029=CARTESIAN_POINT('',(10.6319441160859,6.16495405301425,43.452294621232));
#2030=CARTESIAN_POINT('',(8.13194411608589,2.82990810602849,43.452294621232));
#2031=CARTESIAN_POINT('Origin',(8.13194411608589,5.32990810602849,43.452294621232));
#2032=CARTESIAN_POINT('',(-8.86805588391411,2.82990810602849,43.452294621232));
#2033=CARTESIAN_POINT('',(-3.67215049197968,2.82990810602849,43.452294621232));
#2034=CARTESIAN_POINT('',(-11.3680558839141,5.32990810602849,43.452294621232));
#2035=CARTESIAN_POINT('Origin',(-8.86805588391411,5.32990810602849,43.452294621232));
#2036=CARTESIAN_POINT('',(-11.3680558839141,12.3299081060285,43.452294621232));
#2037=CARTESIAN_POINT('',(-11.3680558839141,2.66495405301424,43.452294621232));
#2038=CARTESIAN_POINT('',(-8.86805588391411,14.8299081060285,43.452294621232));
#2039=CARTESIAN_POINT('Origin',(-8.86805588391411,12.3299081060285,43.452294621232));
#2040=CARTESIAN_POINT('',(8.1319441160859,14.8299081060285,43.452294621232));
#2041=CARTESIAN_POINT('',(-12.1721504919797,14.8299081060285,43.452294621232));
#2042=CARTESIAN_POINT('Origin',(8.1319441160859,12.3299081060285,43.452294621232));
#2043=CARTESIAN_POINT('Origin',(-15.4762451000453,0.,38.4522950277054));
#2044=CARTESIAN_POINT('',(-20.4762446935717,0.,38.4522950277054));
#2045=CARTESIAN_POINT('',(-20.4762446935717,1.5,38.4522950277054));
#2046=CARTESIAN_POINT('Origin',(-15.4762451000453,0.,38.4522950277054));
#2047=CARTESIAN_POINT('Origin',(3.02375530645793,0.,7.45229462123198));
#2048=CARTESIAN_POINT('',(-20.4762446935618,0.,-23.547705378768));
#2049=CARTESIAN_POINT('',(-15.4762446935618,0.,-28.547705378768));
#2050=CARTESIAN_POINT('Origin',(-15.4762446935618,0.,-23.547705378768));
#2051=CARTESIAN_POINT('',(21.5237553064671,0.,-28.547705378768));
#2052=CARTESIAN_POINT('',(-6.22624469355191,0.,-28.547705378768));
#2053=CARTESIAN_POINT('Origin',(21.5237553064671,0.,-23.5477053787969));
#2054=CARTESIAN_POINT('',(-20.4762446935717,0.,22.9522948244687));
#2055=CARTESIAN_POINT('Origin',(-15.4762446935618,0.,-23.547705378768));
#2056=CARTESIAN_POINT('',(-15.4762446935618,0.,-28.547705378768));
#2057=CARTESIAN_POINT('',(-20.4762446935618,1.5,-23.547705378768));
#2058=CARTESIAN_POINT('Origin',(-20.4762446935717,0.,-23.547705378768));
#2059=CARTESIAN_POINT('Origin',(21.5237553064671,0.,-28.547705378768));
#2060=CARTESIAN_POINT('',(21.5237553064671,0.,-28.547705378768));
#2061=CARTESIAN_POINT('',(-6.03274886382523,10.8600606990561,-28.547705378768));
#2062=CARTESIAN_POINT('',(-6.03274886382523,3.86006069905608,-28.547705378768));
#2063=CARTESIAN_POINT('',(-6.03274886382523,5.43003034952804,-28.547705378768));
#2064=CARTESIAN_POINT('',(-4.53274886382523,2.36006069905608,-28.547705378768));
#2065=CARTESIAN_POINT('Origin',(-4.53274886382523,3.86006069905608,-28.547705378768));
#2066=CARTESIAN_POINT('',(4.46725113617477,2.36006069905608,-28.547705378768));
#2067=CARTESIAN_POINT('',(8.49550322132093,2.36006069905608,-28.547705378768));
#2068=CARTESIAN_POINT('',(5.96725113617478,3.86006069905608,-28.547705378768));
#2069=CARTESIAN_POINT('Origin',(4.46725113617477,3.86006069905608,-28.547705378768));
#2070=CARTESIAN_POINT('',(5.96725113617477,10.8600606990561,-28.547705378768));
#2071=CARTESIAN_POINT('',(5.96725113617478,1.93003034952804,-28.547705378768));
#2072=CARTESIAN_POINT('',(4.46725113617477,12.3600606990561,-28.547705378768));
#2073=CARTESIAN_POINT('Origin',(4.46725113617478,10.8600606990561,-28.547705378768));
#2074=CARTESIAN_POINT('',(-4.53274886382523,12.3600606990561,-28.547705378768));
#2075=CARTESIAN_POINT('',(12.9955032213209,12.3600606990561,-28.547705378768));
#2076=CARTESIAN_POINT('Origin',(-4.53274886382523,10.8600606990561,-28.547705378768));
#2077=CARTESIAN_POINT('Origin',(21.5237553064671,0.,-23.5477053787969));
#2078=CARTESIAN_POINT('Origin',(8.13194411608589,5.32990810602849,43.452294621232));
#2079=CARTESIAN_POINT('',(8.13194411608589,2.82990810602849,43.452294621232));
#2080=CARTESIAN_POINT('',(10.6319441160859,5.32990810602849,43.452294621232));
#2081=CARTESIAN_POINT('Origin',(8.13194411608589,2.82990810602849,43.452294621232));
#2082=CARTESIAN_POINT('',(-8.86805588391411,2.82990810602849,43.452294621232));
#2083=CARTESIAN_POINT('Origin',(-8.86805588391411,5.32990810602849,43.452294621232));
#2084=CARTESIAN_POINT('',(-11.3680558839141,5.32990810602849,43.452294621232));
#2085=CARTESIAN_POINT('Origin',(-11.3680558839141,5.32990810602849,43.452294621232));
#2086=CARTESIAN_POINT('',(-11.3680558839141,12.3299081060285,43.452294621232));
#2087=CARTESIAN_POINT('Origin',(-8.86805588391411,12.3299081060285,43.452294621232));
#2088=CARTESIAN_POINT('',(-8.86805588391411,14.8299081060285,43.452294621232));
#2089=CARTESIAN_POINT('Origin',(-8.86805588391411,14.8299081060285,43.452294621232));
#2090=CARTESIAN_POINT('',(8.1319441160859,14.8299081060285,43.452294621232));
#2091=CARTESIAN_POINT('Origin',(8.1319441160859,12.3299081060285,43.452294621232));
#2092=CARTESIAN_POINT('',(10.6319441160859,12.3299081060285,43.452294621232));
#2093=CARTESIAN_POINT('Origin',(10.6319441160859,12.3299081060285,43.452294621232));
#2094=CARTESIAN_POINT('Origin',(-4.53274886382523,3.86006069905608,-28.547705378768));
#2095=CARTESIAN_POINT('',(-4.53274886382523,2.36006069905608,-28.547705378768));
#2096=CARTESIAN_POINT('',(-6.03274886382523,3.86006069905608,-28.547705378768));
#2097=CARTESIAN_POINT('Origin',(-4.53274886382523,2.36006069905608,-28.547705378768));
#2098=CARTESIAN_POINT('',(4.46725113617477,2.36006069905608,-28.547705378768));
#2099=CARTESIAN_POINT('Origin',(4.46725113617477,3.86006069905608,-28.547705378768));
#2100=CARTESIAN_POINT('',(5.96725113617478,3.86006069905608,-28.547705378768));
#2101=CARTESIAN_POINT('Origin',(5.96725113617478,3.86006069905608,-28.547705378768));
#2102=CARTESIAN_POINT('',(5.96725113617477,10.8600606990561,-28.547705378768));
#2103=CARTESIAN_POINT('Origin',(4.46725113617478,10.8600606990561,-28.547705378768));
#2104=CARTESIAN_POINT('',(4.46725113617477,12.3600606990561,-28.547705378768));
#2105=CARTESIAN_POINT('Origin',(4.46725113617477,12.3600606990561,-28.547705378768));
#2106=CARTESIAN_POINT('',(-4.53274886382523,12.3600606990561,-28.547705378768));
#2107=CARTESIAN_POINT('Origin',(-4.53274886382523,10.8600606990561,-28.547705378768));
#2108=CARTESIAN_POINT('',(-6.03274886382523,10.8600606990561,-28.547705378768));
#2109=CARTESIAN_POINT('Origin',(-6.03274886382523,10.8600606990561,-28.547705378768));
#2110=CARTESIAN_POINT('Origin',(-15.4762446935618,0.,-23.547705378768));
#2111=CARTESIAN_POINT('Origin',(21.5237553064671,0.,-23.5477053787969));
#2112=UNCERTAINTY_MEASURE_WITH_UNIT(LENGTH_MEASURE(0.01),#2116,
'DISTANCE_ACCURACY_VALUE',
'Maximum model space distance between geometric entities at asserted c
onnectivities');
#2113=UNCERTAINTY_MEASURE_WITH_UNIT(LENGTH_MEASURE(0.01),#2116,
'DISTANCE_ACCURACY_VALUE',
'Maximum model space distance between geometric entities at asserted c
onnectivities');
#2114=(
GEOMETRIC_REPRESENTATION_CONTEXT(3)
GLOBAL_UNCERTAINTY_ASSIGNED_CONTEXT((#2112))
GLOBAL_UNIT_ASSIGNED_CONTEXT((#2116,#2118,#2119))
REPRESENTATION_CONTEXT('','3D')
);
#2115=(
GEOMETRIC_REPRESENTATION_CONTEXT(3)
GLOBAL_UNCERTAINTY_ASSIGNED_CONTEXT((#2113))
GLOBAL_UNIT_ASSIGNED_CONTEXT((#2116,#2118,#2119))
REPRESENTATION_CONTEXT('','3D')
);
#2116=(
LENGTH_UNIT()
NAMED_UNIT(*)
SI_UNIT(.MILLI.,.METRE.)
);
#2117=(
LENGTH_UNIT()
NAMED_UNIT(*)
SI_UNIT($,.METRE.)
);
#2118=(
NAMED_UNIT(*)
PLANE_ANGLE_UNIT()
SI_UNIT($,.RADIAN.)
);
#2119=(
NAMED_UNIT(*)
SI_UNIT($,.STERADIAN.)
SOLID_ANGLE_UNIT()
);
#2120=SHAPE_DEFINITION_REPRESENTATION(#2121,#2122);
#2121=PRODUCT_DEFINITION_SHAPE('',$,#2124);
#2122=SHAPE_REPRESENTATION('',(#1268),#2114);
#2123=PRODUCT_DEFINITION_CONTEXT('part definition',#2128,'design');
#2124=PRODUCT_DEFINITION('2026-09-17-05-59-26-691','WALL',#2125,#2123);
#2125=PRODUCT_DEFINITION_FORMATION('',$,#2130);
#2126=PRODUCT_RELATED_PRODUCT_CATEGORY('WALL','WALL',(#2130));
#2127=APPLICATION_PROTOCOL_DEFINITION('international standard',
'automotive_design',2009,#2128);
#2128=APPLICATION_CONTEXT(
'Core Data for Automotive Mechanical Design Process');
#2129=PRODUCT_CONTEXT('part definition',#2128,'mechanical');
#2130=PRODUCT('2026-09-17-05-59-26-691','WALL',$,(#2129));
#2131=PRESENTATION_STYLE_ASSIGNMENT((#2132));
#2132=SURFACE_STYLE_USAGE(.BOTH.,#2133);
#2133=SURFACE_SIDE_STYLE('',(#2134));
#2134=SURFACE_STYLE_FILL_AREA(#2135);
#2135=FILL_AREA_STYLE('Acrylic (Clear)',(#2136));
#2136=FILL_AREA_STYLE_COLOUR('Acrylic (Clear)',#2137);
#2137=COLOUR_RGB('Acrylic (Clear)',0.964705882352941,0.964705882352941,
0.952941176470588);
ENDSEC;
END-ISO-10303-21;
